<ttFont>
    <TTGlyph name="A" xMin="20" yMin="0" xMax="644" yMax="700">
      <contour>
        <pt x="394" y="700" on="1"/>
        <pt x="644" y="0" on="1"/>
        <pt x="546" y="0" on="1"/>
        <pt x="487" y="166" on="1"/>
        <pt x="177" y="166" on="1"/>
        <pt x="118" y="0" on="1"/>
        <pt x="20" y="0" on="1"/>
        <pt x="270" y="700" on="1"/>
      </contour>
      <contour>
        <pt x="331" y="601" on="1"/>
        <pt x="209" y="256" on="1"/>
        <pt x="455" y="256" on="1"/>
        <pt x="333" y="601" on="1"/>
      </contour>
    </TTGlyph>
    <TTGlyph name="AE" xMin="-20" yMin="0" xMax="918" yMax="700">
      <contour>
        <pt x="619" y="315" on="1"/>
        <pt x="619" y="90" on="1"/>
        <pt x="918" y="90" on="1"/>
        <pt x="918" y="0" on="1"/>
        <pt x="519" y="0" on="1"/>
        <pt x="519" y="166" on="1"/>
        <pt x="213" y="166" on="1"/>
        <pt x="98" y="0" on="1"/>
        <pt x="-20" y="0" on="1"/>
        <pt x="470" y="700" on="1"/>
        <pt x="918" y="700" on="1"/>
        <pt x="918" y="610" on="1"/>
        <pt x="619" y="610" on="1"/>
        <pt x="619" y="405" on="1"/>
        <pt x="858" y="405" on="1"/>
        <pt x="858" y="315" on="1"/>
      </contour>
      <contour>
        <pt x="517" y="601" on="1"/>
        <pt x="276" y="256" on="1"/>
        <pt x="519" y="256" on="1"/>
        <pt x="519" y="601" on="1"/>
      </contour>
    </TTGlyph>
    <TTGlyph name="Aacute" xMin="20" yMin="0" xMax="644" yMax="908">
      <contour>
        <pt x="394" y="700" on="1"/>
        <pt x="644" y="0" on="1"/>
        <pt x="546" y="0" on="1"/>
        <pt x="487" y="166" on="1"/>
        <pt x="177" y="166" on="1"/>
        <pt x="118" y="0" on="1"/>
        <pt x="20" y="0" on="1"/>
        <pt x="270" y="700" on="1"/>
      </contour>
      <contour>
        <pt x="331" y="601" on="1"/>
        <pt x="209" y="256" on="1"/>
        <pt x="455" y="256" on="1"/>
        <pt x="333" y="601" on="1"/>
      </contour>
      <contour>
        <pt x="245" y="780" on="1"/>
        <pt x="339" y="908" on="1"/>
        <pt x="469" y="908" on="1"/>
        <pt x="325" y="780" on="1"/>
      </contour>
    </TTGlyph>
    <TTGlyph name="Acircumflex" xMin="20" yMin="0" xMax="644" yMax="918">
      <contour>
        <pt x="394" y="700" on="1"/>
        <pt x="644" y="0" on="1"/>
        <pt x="546" y="0" on="1"/>
        <pt x="487" y="166" on="1"/>
        <pt x="177" y="166" on="1"/>
        <pt x="118" y="0" on="1"/>
        <pt x="20" y="0" on="1"/>
        <pt x="270" y="700" on="1"/>
      </contour>
      <contour>
        <pt x="331" y="601" on="1"/>
        <pt x="209" y="256" on="1"/>
        <pt x="455" y="256" on="1"/>
        <pt x="333" y="601" on="1"/>
      </contour>
      <contour>
        <pt x="277" y="918" on="1"/>
        <pt x="387" y="918" on="1"/>
        <pt x="488" y="780" on="1"/>
        <pt x="413" y="780" on="1"/>
        <pt x="332" y="860" on="1"/>
        <pt x="252" y="780" on="1"/>
        <pt x="177" y="780" on="1"/>
      </contour>
    </TTGlyph>
    <TTGlyph name="Adieresis" xMin="20" yMin="0" xMax="644" yMax="890">
      <contour>
        <pt x="394" y="700" on="1"/>
        <pt x="644" y="0" on="1"/>
        <pt x="546" y="0" on="1"/>
        <pt x="487" y="166" on="1"/>
        <pt x="177" y="166" on="1"/>
        <pt x="118" y="0" on="1"/>
        <pt x="20" y="0" on="1"/>
        <pt x="270" y="700" on="1"/>
      </contour>
      <contour>
        <pt x="331" y="601" on="1"/>
        <pt x="209" y="256" on="1"/>
        <pt x="455" y="256" on="1"/>
        <pt x="333" y="601" on="1"/>
      </contour>
      <contour>
        <pt x="170" y="785" on="1"/>
        <pt x="170" y="890" on="1"/>
        <pt x="275" y="890" on="1"/>
        <pt x="275" y="785" on="1"/>
      </contour>
      <contour>
        <pt x="389" y="785" on="1"/>
        <pt x="389" y="890" on="1"/>
        <pt x="494" y="890" on="1"/>
        <pt x="494" y="785" on="1"/>
      </contour>
    </TTGlyph>
    <TTGlyph name="Agrave" xMin="20" yMin="0" xMax="644" yMax="908">
      <contour>
        <pt x="394" y="700" on="1"/>
        <pt x="644" y="0" on="1"/>
        <pt x="546" y="0" on="1"/>
        <pt x="487" y="166" on="1"/>
        <pt x="177" y="166" on="1"/>
        <pt x="118" y="0" on="1"/>
        <pt x="20" y="0" on="1"/>
        <pt x="270" y="700" on="1"/>
      </contour>
      <contour>
        <pt x="331" y="601" on="1"/>
        <pt x="209" y="256" on="1"/>
        <pt x="455" y="256" on="1"/>
        <pt x="333" y="601" on="1"/>
      </contour>
      <contour>
        <pt x="318" y="908" on="1"/>
        <pt x="412" y="780" on="1"/>
        <pt x="332" y="780" on="1"/>
        <pt x="188" y="908" on="1"/>
      </contour>
    </TTGlyph>
    <TTGlyph name="Aring" xMin="20" yMin="0" xMax="644" yMax="898">
      <contour>
        <pt x="475" y="682" on="1"/>
        <pt x="413" y="646" on="1"/>
        <pt x="644" y="0" on="1"/>
        <pt x="546" y="0" on="1"/>
        <pt x="487" y="166" on="1"/>
        <pt x="177" y="166" on="1"/>
        <pt x="118" y="0" on="1"/>
        <pt x="20" y="0" on="1"/>
        <pt x="251" y="647" on="1"/>
        <pt x="190" y="682" on="1"/>
        <pt x="190" y="851" on="1"/>
        <pt x="272" y="898" on="1"/>
        <pt x="393" y="898" on="1"/>
        <pt x="475" y="851" on="1"/>
      </contour>
      <contour>
        <pt x="331" y="601" on="1"/>
        <pt x="209" y="256" on="1"/>
        <pt x="455" y="256" on="1"/>
        <pt x="333" y="601" on="1"/>
      </contour>
      <contour>
        <pt x="265" y="833" on="1"/>
        <pt x="265" y="700" on="1"/>
        <pt x="400" y="700" on="1"/>
        <pt x="400" y="833" on="1"/>
      </contour>
    </TTGlyph>
    <TTGlyph name="Atilde" xMin="20" yMin="0" xMax="644" yMax="924">
      <contour>
        <pt x="394" y="700" on="1"/>
        <pt x="644" y="0" on="1"/>
        <pt x="546" y="0" on="1"/>
        <pt x="487" y="166" on="1"/>
        <pt x="177" y="166" on="1"/>
        <pt x="118" y="0" on="1"/>
        <pt x="20" y="0" on="1"/>
        <pt x="270" y="700" on="1"/>
      </contour>
      <contour>
        <pt x="331" y="601" on="1"/>
        <pt x="209" y="256" on="1"/>
        <pt x="455" y="256" on="1"/>
        <pt x="333" y="601" on="1"/>
      </contour>
      <contour>
        <pt x="249" y="857" on="1"/>
        <pt x="247" y="857" on="1"/>
        <pt x="247" y="775" on="1"/>
        <pt x="179" y="775" on="1"/>
        <pt x="179" y="869" on="1"/>
        <pt x="273" y="924" on="1"/>
        <pt x="415" y="842" on="1"/>
        <pt x="417" y="842" on="1"/>
        <pt x="417" y="924" on="1"/>
        <pt x="485" y="924" on="1"/>
        <pt x="485" y="830" on="1"/>
        <pt x="391" y="775" on="1"/>
      </contour>
    </TTGlyph>
    <TTGlyph name="B" xMin="90" yMin="0" xMax="565" yMax="700">
      <contour>
        <pt x="565" y="413" on="1"/>
        <pt x="478" y="363" on="1"/>
        <pt x="478" y="361" on="1"/>
        <pt x="565" y="311" on="1"/>
        <pt x="565" y="67" on="1"/>
        <pt x="449" y="0" on="1"/>
        <pt x="90" y="0" on="1"/>
        <pt x="90" y="700" on="1"/>
        <pt x="449" y="700" on="1"/>
        <pt x="565" y="633" on="1"/>
      </contour>
      <contour>
        <pt x="190" y="317" on="1"/>
        <pt x="190" y="90" on="1"/>
        <pt x="465" y="90" on="1"/>
        <pt x="465" y="317" on="1"/>
      </contour>
      <contour>
        <pt x="190" y="610" on="1"/>
        <pt x="190" y="407" on="1"/>
        <pt x="465" y="407" on="1"/>
        <pt x="465" y="610" on="1"/>
      </contour>
    </TTGlyph>
    <TTGlyph name="C" xMin="90" yMin="-5" xMax="585" yMax="705">
      <contour>
        <pt x="485" y="175" on="1"/>
        <pt x="585" y="175" on="1"/>
        <pt x="585" y="62" on="1"/>
        <pt x="469" y="-5" on="1"/>
        <pt x="206" y="-5" on="1"/>
        <pt x="90" y="62" on="1"/>
        <pt x="90" y="638" on="1"/>
        <pt x="206" y="705" on="1"/>
        <pt x="469" y="705" on="1"/>
        <pt x="585" y="638" on="1"/>
        <pt x="585" y="525" on="1"/>
        <pt x="485" y="525" on="1"/>
        <pt x="485" y="615" on="1"/>
        <pt x="190" y="615" on="1"/>
        <pt x="190" y="85" on="1"/>
        <pt x="485" y="85" on="1"/>
      </contour>
    </TTGlyph>
    <TTGlyph name="Ccedilla" xMin="90" yMin="-199" xMax="585" yMax="705">
      <contour>
        <pt x="485" y="175" on="1"/>
        <pt x="585" y="175" on="1"/>
        <pt x="585" y="62" on="1"/>
        <pt x="469" y="-5" on="1"/>
        <pt x="363" y="-5" on="1"/>
        <pt x="344" y="-37" on="1"/>
        <pt x="410" y="-75" on="1"/>
        <pt x="410" y="-149" on="1"/>
        <pt x="324" y="-199" on="1"/>
        <pt x="254" y="-199" on="1"/>
        <pt x="254" y="-149" on="1"/>
        <pt x="353" y="-149" on="1"/>
        <pt x="353" y="-84" on="1"/>
        <pt x="264" y="-84" on="1"/>
        <pt x="309" y="-5" on="1"/>
        <pt x="206" y="-5" on="1"/>
        <pt x="90" y="62" on="1"/>
        <pt x="90" y="638" on="1"/>
        <pt x="206" y="705" on="1"/>
        <pt x="469" y="705" on="1"/>
        <pt x="585" y="638" on="1"/>
        <pt x="585" y="525" on="1"/>
        <pt x="485" y="525" on="1"/>
        <pt x="485" y="615" on="1"/>
        <pt x="190" y="615" on="1"/>
        <pt x="190" y="85" on="1"/>
        <pt x="485" y="85" on="1"/>
      </contour>
    </TTGlyph>
    <TTGlyph name="D" xMin="90" yMin="0" xMax="615" yMax="700">
      <contour>
        <pt x="615" y="67" on="1"/>
        <pt x="499" y="0" on="1"/>
        <pt x="90" y="0" on="1"/>
        <pt x="90" y="700" on="1"/>
        <pt x="499" y="700" on="1"/>
        <pt x="615" y="633" on="1"/>
      </contour>
      <contour>
        <pt x="190" y="610" on="1"/>
        <pt x="190" y="90" on="1"/>
        <pt x="515" y="90" on="1"/>
        <pt x="515" y="610" on="1"/>
      </contour>
    </TTGlyph>
    <TTGlyph name="E" xMin="90" yMin="0" xMax="489" yMax="700">
      <contour>
        <pt x="190" y="315" on="1"/>
        <pt x="190" y="90" on="1"/>
        <pt x="489" y="90" on="1"/>
        <pt x="489" y="0" on="1"/>
        <pt x="90" y="0" on="1"/>
        <pt x="90" y="700" on="1"/>
        <pt x="489" y="700" on="1"/>
        <pt x="489" y="610" on="1"/>
        <pt x="190" y="610" on="1"/>
        <pt x="190" y="405" on="1"/>
        <pt x="429" y="405" on="1"/>
        <pt x="429" y="315" on="1"/>
      </contour>
    </TTGlyph>
    <TTGlyph name="Eacute" xMin="90" yMin="0" xMax="489" yMax="908">
      <contour>
        <pt x="190" y="315" on="1"/>
        <pt x="190" y="90" on="1"/>
        <pt x="489" y="90" on="1"/>
        <pt x="489" y="0" on="1"/>
        <pt x="90" y="0" on="1"/>
        <pt x="90" y="700" on="1"/>
        <pt x="489" y="700" on="1"/>
        <pt x="489" y="610" on="1"/>
        <pt x="190" y="610" on="1"/>
        <pt x="190" y="405" on="1"/>
        <pt x="429" y="405" on="1"/>
        <pt x="429" y="315" on="1"/>
      </contour>
      <contour>
        <pt x="225" y="780" on="1"/>
        <pt x="319" y="908" on="1"/>
        <pt x="449" y="908" on="1"/>
        <pt x="305" y="780" on="1"/>
      </contour>
    </TTGlyph>
    <TTGlyph name="Ecircumflex" xMin="90" yMin="0" xMax="489" yMax="918">
      <contour>
        <pt x="190" y="315" on="1"/>
        <pt x="190" y="90" on="1"/>
        <pt x="489" y="90" on="1"/>
        <pt x="489" y="0" on="1"/>
        <pt x="90" y="0" on="1"/>
        <pt x="90" y="700" on="1"/>
        <pt x="489" y="700" on="1"/>
        <pt x="489" y="610" on="1"/>
        <pt x="190" y="610" on="1"/>
        <pt x="190" y="405" on="1"/>
        <pt x="429" y="405" on="1"/>
        <pt x="429" y="315" on="1"/>
      </contour>
      <contour>
        <pt x="236" y="918" on="1"/>
        <pt x="346" y="918" on="1"/>
        <pt x="447" y="780" on="1"/>
        <pt x="372" y="780" on="1"/>
        <pt x="291" y="860" on="1"/>
        <pt x="211" y="780" on="1"/>
        <pt x="136" y="780" on="1"/>
      </contour>
    </TTGlyph>
    <TTGlyph name="Edieresis" xMin="90" yMin="0" xMax="489" yMax="890">
      <contour>
        <pt x="190" y="315" on="1"/>
        <pt x="190" y="90" on="1"/>
        <pt x="489" y="90" on="1"/>
        <pt x="489" y="0" on="1"/>
        <pt x="90" y="0" on="1"/>
        <pt x="90" y="700" on="1"/>
        <pt x="489" y="700" on="1"/>
        <pt x="489" y="610" on="1"/>
        <pt x="190" y="610" on="1"/>
        <pt x="190" y="405" on="1"/>
        <pt x="429" y="405" on="1"/>
        <pt x="429" y="315" on="1"/>
      </contour>
      <contour>
        <pt x="130" y="785" on="1"/>
        <pt x="130" y="890" on="1"/>
        <pt x="235" y="890" on="1"/>
        <pt x="235" y="785" on="1"/>
      </contour>
      <contour>
        <pt x="349" y="785" on="1"/>
        <pt x="349" y="890" on="1"/>
        <pt x="454" y="890" on="1"/>
        <pt x="454" y="785" on="1"/>
      </contour>
    </TTGlyph>
    <TTGlyph name="Egrave" xMin="90" yMin="0" xMax="489" yMax="908">
      <contour>
        <pt x="190" y="315" on="1"/>
        <pt x="190" y="90" on="1"/>
        <pt x="489" y="90" on="1"/>
        <pt x="489" y="0" on="1"/>
        <pt x="90" y="0" on="1"/>
        <pt x="90" y="700" on="1"/>
        <pt x="489" y="700" on="1"/>
        <pt x="489" y="610" on="1"/>
        <pt x="190" y="610" on="1"/>
        <pt x="190" y="405" on="1"/>
        <pt x="429" y="405" on="1"/>
        <pt x="429" y="315" on="1"/>
      </contour>
      <contour>
        <pt x="255" y="908" on="1"/>
        <pt x="349" y="780" on="1"/>
        <pt x="269" y="780" on="1"/>
        <pt x="125" y="908" on="1"/>
      </contour>
    </TTGlyph>
    <TTGlyph name="Eth" xMin="20" yMin="0" xMax="615" yMax="700">
      <contour>
        <pt x="20" y="291" on="1"/>
        <pt x="20" y="365" on="1"/>
        <pt x="90" y="365" on="1"/>
        <pt x="90" y="700" on="1"/>
        <pt x="499" y="700" on="1"/>
        <pt x="615" y="633" on="1"/>
        <pt x="615" y="67" on="1"/>
        <pt x="499" y="0" on="1"/>
        <pt x="90" y="0" on="1"/>
        <pt x="90" y="291" on="1"/>
      </contour>
      <contour>
        <pt x="190" y="610" on="1"/>
        <pt x="190" y="365" on="1"/>
        <pt x="296" y="365" on="1"/>
        <pt x="296" y="291" on="1"/>
        <pt x="190" y="291" on="1"/>
        <pt x="190" y="90" on="1"/>
        <pt x="515" y="90" on="1"/>
        <pt x="515" y="610" on="1"/>
      </contour>
    </TTGlyph>
    <TTGlyph name="Euro" xMin="30" yMin="-5" xMax="594" yMax="705">
      <contour>
        <pt x="458" y="461" on="1"/>
        <pt x="415" y="387" on="1"/>
        <pt x="207" y="387" on="1"/>
        <pt x="207" y="313" on="1"/>
        <pt x="373" y="313" on="1"/>
        <pt x="330" y="239" on="1"/>
        <pt x="207" y="239" on="1"/>
        <pt x="207" y="85" on="1"/>
        <pt x="494" y="85" on="1"/>
        <pt x="494" y="175" on="1"/>
        <pt x="594" y="175" on="1"/>
        <pt x="594" y="62" on="1"/>
        <pt x="478" y="-5" on="1"/>
        <pt x="223" y="-5" on="1"/>
        <pt x="107" y="62" on="1"/>
        <pt x="107" y="239" on="1"/>
        <pt x="30" y="239" on="1"/>
        <pt x="30" y="313" on="1"/>
        <pt x="107" y="313" on="1"/>
        <pt x="107" y="387" on="1"/>
        <pt x="30" y="387" on="1"/>
        <pt x="30" y="461" on="1"/>
        <pt x="107" y="461" on="1"/>
        <pt x="107" y="638" on="1"/>
        <pt x="223" y="705" on="1"/>
        <pt x="478" y="705" on="1"/>
        <pt x="594" y="638" on="1"/>
        <pt x="594" y="525" on="1"/>
        <pt x="494" y="525" on="1"/>
        <pt x="494" y="615" on="1"/>
        <pt x="207" y="615" on="1"/>
        <pt x="207" y="461" on="1"/>
      </contour>
    </TTGlyph>
    <TTGlyph name="F" xMin="90" yMin="0" xMax="499" yMax="700">
      <contour>
        <pt x="190" y="315" on="1"/>
        <pt x="190" y="0" on="1"/>
        <pt x="90" y="0" on="1"/>
        <pt x="90" y="700" on="1"/>
        <pt x="499" y="700" on="1"/>
        <pt x="499" y="610" on="1"/>
        <pt x="190" y="610" on="1"/>
        <pt x="190" y="405" on="1"/>
        <pt x="439" y="405" on="1"/>
        <pt x="439" y="315" on="1"/>
      </contour>
    </TTGlyph>
    <TTGlyph name="G" xMin="90" yMin="-5" xMax="585" yMax="705">
      <contour>
        <pt x="370" y="260" on="1"/>
        <pt x="370" y="350" on="1"/>
        <pt x="585" y="350" on="1"/>
        <pt x="585" y="62" on="1"/>
        <pt x="469" y="-5" on="1"/>
        <pt x="206" y="-5" on="1"/>
        <pt x="90" y="62" on="1"/>
        <pt x="90" y="638" on="1"/>
        <pt x="206" y="705" on="1"/>
        <pt x="469" y="705" on="1"/>
        <pt x="585" y="638" on="1"/>
        <pt x="585" y="525" on="1"/>
        <pt x="485" y="525" on="1"/>
        <pt x="485" y="615" on="1"/>
        <pt x="190" y="615" on="1"/>
        <pt x="190" y="85" on="1"/>
        <pt x="485" y="85" on="1"/>
        <pt x="485" y="260" on="1"/>
      </contour>
    </TTGlyph>
    <TTGlyph name="H" xMin="90" yMin="0" xMax="625" yMax="700">
      <contour>
        <pt x="190" y="315" on="1"/>
        <pt x="190" y="0" on="1"/>
        <pt x="90" y="0" on="1"/>
        <pt x="90" y="700" on="1"/>
        <pt x="190" y="700" on="1"/>
        <pt x="190" y="405" on="1"/>
        <pt x="525" y="405" on="1"/>
        <pt x="525" y="700" on="1"/>
        <pt x="625" y="700" on="1"/>
        <pt x="625" y="0" on="1"/>
        <pt x="525" y="0" on="1"/>
        <pt x="525" y="315" on="1"/>
      </contour>
    </TTGlyph>
    <TTGlyph name="I" xMin="90" yMin="0" xMax="190" yMax="700">
      <contour>
        <pt x="90" y="0" on="1"/>
        <pt x="90" y="700" on="1"/>
        <pt x="190" y="700" on="1"/>
        <pt x="190" y="0" on="1"/>
      </contour>
    </TTGlyph>
    <TTGlyph name="IJ" xMin="90" yMin="-5" xMax="725" yMax="700">
      <contour>
        <pt x="90" y="0" on="1"/>
        <pt x="90" y="700" on="1"/>
        <pt x="190" y="700" on="1"/>
        <pt x="190" y="0" on="1"/>
      </contour>
      <contour>
        <pt x="625" y="85" on="1"/>
        <pt x="625" y="700" on="1"/>
        <pt x="725" y="700" on="1"/>
        <pt x="725" y="62" on="1"/>
        <pt x="609" y="-5" on="1"/>
        <pt x="416" y="-5" on="1"/>
        <pt x="300" y="62" on="1"/>
        <pt x="300" y="225" on="1"/>
        <pt x="400" y="225" on="1"/>
        <pt x="400" y="85" on="1"/>
      </contour>
    </TTGlyph>
    <TTGlyph name="Iacute" xMin="65" yMin="0" xMax="289" yMax="908">
      <contour>
        <pt x="90" y="0" on="1"/>
        <pt x="90" y="700" on="1"/>
        <pt x="190" y="700" on="1"/>
        <pt x="190" y="0" on="1"/>
      </contour>
      <contour>
        <pt x="65" y="780" on="1"/>
        <pt x="159" y="908" on="1"/>
        <pt x="289" y="908" on="1"/>
        <pt x="145" y="780" on="1"/>
      </contour>
    </TTGlyph>
    <TTGlyph name="Icircumflex" xMin="-15" yMin="0" xMax="296" yMax="918">
      <contour>
        <pt x="90" y="0" on="1"/>
        <pt x="90" y="700" on="1"/>
        <pt x="190" y="700" on="1"/>
        <pt x="190" y="0" on="1"/>
      </contour>
      <contour>
        <pt x="85" y="918" on="1"/>
        <pt x="195" y="918" on="1"/>
        <pt x="296" y="780" on="1"/>
        <pt x="221" y="780" on="1"/>
        <pt x="140" y="860" on="1"/>
        <pt x="60" y="780" on="1"/>
        <pt x="-15" y="780" on="1"/>
      </contour>
    </TTGlyph>
    <TTGlyph name="Idieresis" xMin="-22" yMin="0" xMax="302" yMax="890">
      <contour>
        <pt x="90" y="0" on="1"/>
        <pt x="90" y="700" on="1"/>
        <pt x="190" y="700" on="1"/>
        <pt x="190" y="0" on="1"/>
      </contour>
      <contour>
        <pt x="-22" y="785" on="1"/>
        <pt x="-22" y="890" on="1"/>
        <pt x="83" y="890" on="1"/>
        <pt x="83" y="785" on="1"/>
      </contour>
      <contour>
        <pt x="197" y="785" on="1"/>
        <pt x="197" y="890" on="1"/>
        <pt x="302" y="890" on="1"/>
        <pt x="302" y="785" on="1"/>
      </contour>
    </TTGlyph>
    <TTGlyph name="Igrave" xMin="-9" yMin="0" xMax="215" yMax="908">
      <contour>
        <pt x="90" y="0" on="1"/>
        <pt x="90" y="700" on="1"/>
        <pt x="190" y="700" on="1"/>
        <pt x="190" y="0" on="1"/>
      </contour>
      <contour>
        <pt x="121" y="908" on="1"/>
        <pt x="215" y="780" on="1"/>
        <pt x="135" y="780" on="1"/>
        <pt x="-9" y="908" on="1"/>
      </contour>
    </TTGlyph>
    <TTGlyph name="Itilde" xMin="-13" yMin="0" xMax="293" yMax="934">
      <component glyphName="I" x="0" y="0" flags="0x1004"/>
      <component glyphName="tilde" x="-113" y="200" flags="0x1004"/>
    </TTGlyph>
    <TTGlyph name="J" xMin="20" yMin="-5" xMax="445" yMax="700">
      <contour>
        <pt x="345" y="85" on="1"/>
        <pt x="345" y="700" on="1"/>
        <pt x="445" y="700" on="1"/>
        <pt x="445" y="62" on="1"/>
        <pt x="329" y="-5" on="1"/>
        <pt x="136" y="-5" on="1"/>
        <pt x="20" y="62" on="1"/>
        <pt x="20" y="225" on="1"/>
        <pt x="120" y="225" on="1"/>
        <pt x="120" y="85" on="1"/>
      </contour>
    </TTGlyph>
    <TTGlyph name="Jcircumflex" xMin="20" yMin="-5" xMax="551" yMax="928">
      <component glyphName="J" x="0" y="0" flags="0x1004"/>
      <component glyphName="circumflex" x="130" y="200" flags="0x1004"/>
    </TTGlyph>
    <TTGlyph name="K" xMin="90" yMin="0" xMax="653" yMax="700">
      <contour>
        <pt x="90" y="0" on="1"/>
        <pt x="90" y="700" on="1"/>
        <pt x="190" y="700" on="1"/>
        <pt x="190" y="330" on="1"/>
        <pt x="192" y="330" on="1"/>
        <pt x="501" y="700" on="1"/>
        <pt x="621" y="700" on="1"/>
        <pt x="346" y="373" on="1"/>
        <pt x="653" y="0" on="1"/>
        <pt x="531" y="0" on="1"/>
        <pt x="285" y="301" on="1"/>
        <pt x="190" y="188" on="1"/>
        <pt x="190" y="0" on="1"/>
      </contour>
    </TTGlyph>
    <TTGlyph name="L" xMin="90" yMin="0" xMax="449" yMax="700">
      <contour>
        <pt x="90" y="0" on="1"/>
        <pt x="90" y="700" on="1"/>
        <pt x="190" y="700" on="1"/>
        <pt x="190" y="90" on="1"/>
        <pt x="449" y="90" on="1"/>
        <pt x="449" y="0" on="1"/>
      </contour>
    </TTGlyph>
    <TTGlyph name="Ldotaccent" xMin="90" yMin="0" xMax="449" yMax="700">
      <contour>
        <pt x="90" y="0" on="1"/>
        <pt x="90" y="700" on="1"/>
        <pt x="190" y="700" on="1"/>
        <pt x="190" y="90" on="1"/>
        <pt x="449" y="90" on="1"/>
        <pt x="449" y="0" on="1"/>
      </contour>
      <contour>
        <pt x="284" y="232" on="1"/>
        <pt x="284" y="352" on="1"/>
        <pt x="404" y="352" on="1"/>
        <pt x="404" y="232" on="1"/>
      </contour>
    </TTGlyph>
    <TTGlyph name="Lslash" xMin="20" yMin="0" xMax="449" yMax="700">
      <contour>
        <pt x="20" y="291" on="1"/>
        <pt x="20" y="365" on="1"/>
        <pt x="90" y="380" on="1"/>
        <pt x="90" y="700" on="1"/>
        <pt x="190" y="700" on="1"/>
        <pt x="190" y="402" on="1"/>
        <pt x="296" y="425" on="1"/>
        <pt x="296" y="351" on="1"/>
        <pt x="190" y="328" on="1"/>
        <pt x="190" y="90" on="1"/>
        <pt x="449" y="90" on="1"/>
        <pt x="449" y="0" on="1"/>
        <pt x="90" y="0" on="1"/>
        <pt x="90" y="306" on="1"/>
      </contour>
    </TTGlyph>
    <TTGlyph name="M" xMin="90" yMin="0" xMax="795" yMax="700">
      <contour>
        <pt x="700" y="0" on="1"/>
        <pt x="700" y="570" on="1"/>
        <pt x="698" y="570" on="1"/>
        <pt x="492" y="0" on="1"/>
        <pt x="392" y="0" on="1"/>
        <pt x="187" y="570" on="1"/>
        <pt x="185" y="570" on="1"/>
        <pt x="185" y="0" on="1"/>
        <pt x="90" y="0" on="1"/>
        <pt x="90" y="700" on="1"/>
        <pt x="231" y="700" on="1"/>
        <pt x="441" y="116" on="1"/>
        <pt x="443" y="116" on="1"/>
        <pt x="654" y="700" on="1"/>
        <pt x="795" y="700" on="1"/>
        <pt x="795" y="0" on="1"/>
      </contour>
    </TTGlyph>
    <TTGlyph name="N" xMin="90" yMin="0" xMax="645" yMax="700">
      <contour>
        <pt x="190" y="529" on="1"/>
        <pt x="190" y="0" on="1"/>
        <pt x="90" y="0" on="1"/>
        <pt x="90" y="700" on="1"/>
        <pt x="181" y="700" on="1"/>
        <pt x="543" y="171" on="1"/>
        <pt x="545" y="171" on="1"/>
        <pt x="545" y="700" on="1"/>
        <pt x="645" y="700" on="1"/>
        <pt x="645" y="0" on="1"/>
        <pt x="554" y="0" on="1"/>
        <pt x="192" y="529" on="1"/>
      </contour>
    </TTGlyph>
    <TTGlyph name="Nacute" xMin="90" yMin="0" xMax="645" yMax="918">
      <component glyphName="N" x="0" y="0" flags="0x1004"/>
      <component glyphName="acute" x="125" y="200" flags="0x1004"/>
    </TTGlyph>
    <TTGlyph name="Ntilde" xMin="90" yMin="0" xMax="645" yMax="924">
      <contour>
        <pt x="190" y="529" on="1"/>
        <pt x="190" y="0" on="1"/>
        <pt x="90" y="0" on="1"/>
        <pt x="90" y="700" on="1"/>
        <pt x="181" y="700" on="1"/>
        <pt x="543" y="171" on="1"/>
        <pt x="545" y="171" on="1"/>
        <pt x="545" y="700" on="1"/>
        <pt x="645" y="700" on="1"/>
        <pt x="645" y="0" on="1"/>
        <pt x="554" y="0" on="1"/>
        <pt x="192" y="529" on="1"/>
      </contour>
      <contour>
        <pt x="276" y="857" on="1"/>
        <pt x="274" y="857" on="1"/>
        <pt x="274" y="775" on="1"/>
        <pt x="206" y="775" on="1"/>
        <pt x="206" y="869" on="1"/>
        <pt x="300" y="924" on="1"/>
        <pt x="442" y="842" on="1"/>
        <pt x="444" y="842" on="1"/>
        <pt x="444" y="924" on="1"/>
        <pt x="512" y="924" on="1"/>
        <pt x="512" y="830" on="1"/>
        <pt x="418" y="775" on="1"/>
      </contour>
    </TTGlyph>
    <TTGlyph name="O" xMin="90" yMin="-5" xMax="615" yMax="705">
      <contour>
        <pt x="615" y="62" on="1"/>
        <pt x="499" y="-5" on="1"/>
        <pt x="206" y="-5" on="1"/>
        <pt x="90" y="62" on="1"/>
        <pt x="90" y="638" on="1"/>
        <pt x="206" y="705" on="1"/>
        <pt x="499" y="705" on="1"/>
        <pt x="615" y="638" on="1"/>
      </contour>
      <contour>
        <pt x="190" y="615" on="1"/>
        <pt x="190" y="85" on="1"/>
        <pt x="515" y="85" on="1"/>
        <pt x="515" y="615" on="1"/>
      </contour>
    </TTGlyph>
    <TTGlyph name="OE" xMin="90" yMin="0" xMax="914" yMax="700">
      <contour>
        <pt x="615" y="315" on="1"/>
        <pt x="615" y="90" on="1"/>
        <pt x="914" y="90" on="1"/>
        <pt x="914" y="0" on="1"/>
        <pt x="206" y="0" on="1"/>
        <pt x="90" y="67" on="1"/>
        <pt x="90" y="633" on="1"/>
        <pt x="206" y="700" on="1"/>
        <pt x="914" y="700" on="1"/>
        <pt x="914" y="610" on="1"/>
        <pt x="615" y="610" on="1"/>
        <pt x="615" y="405" on="1"/>
        <pt x="854" y="405" on="1"/>
        <pt x="854" y="315" on="1"/>
      </contour>
      <contour>
        <pt x="190" y="610" on="1"/>
        <pt x="190" y="90" on="1"/>
        <pt x="515" y="90" on="1"/>
        <pt x="515" y="610" on="1"/>
      </contour>
    </TTGlyph>
    <TTGlyph name="Oacute" xMin="90" yMin="-5" xMax="615" yMax="908">
      <contour>
        <pt x="615" y="62" on="1"/>
        <pt x="499" y="-5" on="1"/>
        <pt x="206" y="-5" on="1"/>
        <pt x="90" y="62" on="1"/>
        <pt x="90" y="638" on="1"/>
        <pt x="206" y="705" on="1"/>
        <pt x="499" y="705" on="1"/>
        <pt x="615" y="638" on="1"/>
      </contour>
      <contour>
        <pt x="190" y="615" on="1"/>
        <pt x="190" y="85" on="1"/>
        <pt x="515" y="85" on="1"/>
        <pt x="515" y="615" on="1"/>
      </contour>
      <contour>
        <pt x="278" y="780" on="1"/>
        <pt x="372" y="908" on="1"/>
        <pt x="502" y="908" on="1"/>
        <pt x="358" y="780" on="1"/>
      </contour>
    </TTGlyph>
    <TTGlyph name="Ocircumflex" xMin="90" yMin="-5" xMax="615" yMax="918">
      <contour>
        <pt x="615" y="62" on="1"/>
        <pt x="499" y="-5" on="1"/>
        <pt x="206" y="-5" on="1"/>
        <pt x="90" y="62" on="1"/>
        <pt x="90" y="638" on="1"/>
        <pt x="206" y="705" on="1"/>
        <pt x="499" y="705" on="1"/>
        <pt x="615" y="638" on="1"/>
      </contour>
      <contour>
        <pt x="190" y="615" on="1"/>
        <pt x="190" y="85" on="1"/>
        <pt x="515" y="85" on="1"/>
        <pt x="515" y="615" on="1"/>
      </contour>
      <contour>
        <pt x="297" y="918" on="1"/>
        <pt x="407" y="918" on="1"/>
        <pt x="508" y="780" on="1"/>
        <pt x="433" y="780" on="1"/>
        <pt x="352" y="860" on="1"/>
        <pt x="272" y="780" on="1"/>
        <pt x="197" y="780" on="1"/>
      </contour>
    </TTGlyph>
    <TTGlyph name="Odieresis" xMin="90" yMin="-5" xMax="615" yMax="890">
      <contour>
        <pt x="615" y="62" on="1"/>
        <pt x="499" y="-5" on="1"/>
        <pt x="206" y="-5" on="1"/>
        <pt x="90" y="62" on="1"/>
        <pt x="90" y="638" on="1"/>
        <pt x="206" y="705" on="1"/>
        <pt x="499" y="705" on="1"/>
        <pt x="615" y="638" on="1"/>
      </contour>
      <contour>
        <pt x="190" y="615" on="1"/>
        <pt x="190" y="85" on="1"/>
        <pt x="515" y="85" on="1"/>
        <pt x="515" y="615" on="1"/>
      </contour>
      <contour>
        <pt x="196" y="785" on="1"/>
        <pt x="196" y="890" on="1"/>
        <pt x="301" y="890" on="1"/>
        <pt x="301" y="785" on="1"/>
      </contour>
      <contour>
        <pt x="415" y="785" on="1"/>
        <pt x="415" y="890" on="1"/>
        <pt x="520" y="890" on="1"/>
        <pt x="520" y="785" on="1"/>
      </contour>
    </TTGlyph>
    <TTGlyph name="Ograve" xMin="90" yMin="-5" xMax="615" yMax="908">
      <contour>
        <pt x="615" y="62" on="1"/>
        <pt x="499" y="-5" on="1"/>
        <pt x="206" y="-5" on="1"/>
        <pt x="90" y="62" on="1"/>
        <pt x="90" y="638" on="1"/>
        <pt x="206" y="705" on="1"/>
        <pt x="499" y="705" on="1"/>
        <pt x="615" y="638" on="1"/>
      </contour>
      <contour>
        <pt x="190" y="615" on="1"/>
        <pt x="190" y="85" on="1"/>
        <pt x="515" y="85" on="1"/>
        <pt x="515" y="615" on="1"/>
      </contour>
      <contour>
        <pt x="325" y="908" on="1"/>
        <pt x="419" y="780" on="1"/>
        <pt x="339" y="780" on="1"/>
        <pt x="195" y="908" on="1"/>
      </contour>
    </TTGlyph>
    <TTGlyph name="Oslash" xMin="90" yMin="-5" xMax="615" yMax="705">
      <contour>
        <pt x="615" y="62" on="1"/>
        <pt x="499" y="-5" on="1"/>
        <pt x="206" y="-5" on="1"/>
        <pt x="90" y="62" on="1"/>
        <pt x="90" y="638" on="1"/>
        <pt x="206" y="705" on="1"/>
        <pt x="499" y="705" on="1"/>
        <pt x="615" y="638" on="1"/>
      </contour>
      <contour>
        <pt x="190" y="615" on="1"/>
        <pt x="190" y="150" on="1"/>
        <pt x="475" y="615" on="1"/>
      </contour>
      <contour>
        <pt x="230" y="85" on="1"/>
        <pt x="515" y="85" on="1"/>
        <pt x="515" y="550" on="1"/>
      </contour>
    </TTGlyph>
    <TTGlyph name="Otilde" xMin="90" yMin="-5" xMax="615" yMax="924">
      <contour>
        <pt x="615" y="62" on="1"/>
        <pt x="499" y="-5" on="1"/>
        <pt x="206" y="-5" on="1"/>
        <pt x="90" y="62" on="1"/>
        <pt x="90" y="638" on="1"/>
        <pt x="206" y="705" on="1"/>
        <pt x="499" y="705" on="1"/>
        <pt x="615" y="638" on="1"/>
      </contour>
      <contour>
        <pt x="190" y="615" on="1"/>
        <pt x="190" y="85" on="1"/>
        <pt x="515" y="85" on="1"/>
        <pt x="515" y="615" on="1"/>
      </contour>
      <contour>
        <pt x="270" y="857" on="1"/>
        <pt x="268" y="857" on="1"/>
        <pt x="268" y="775" on="1"/>
        <pt x="200" y="775" on="1"/>
        <pt x="200" y="869" on="1"/>
        <pt x="294" y="924" on="1"/>
        <pt x="436" y="842" on="1"/>
        <pt x="438" y="842" on="1"/>
        <pt x="438" y="924" on="1"/>
        <pt x="506" y="924" on="1"/>
        <pt x="506" y="830" on="1"/>
        <pt x="412" y="775" on="1"/>
      </contour>
    </TTGlyph>
    <TTGlyph name="P" xMin="90" yMin="0" xMax="555" yMax="700">
      <contour>
        <pt x="90" y="0" on="1"/>
        <pt x="90" y="700" on="1"/>
        <pt x="439" y="700" on="1"/>
        <pt x="555" y="633" on="1"/>
        <pt x="555" y="336" on="1"/>
        <pt x="439" y="269" on="1"/>
        <pt x="190" y="269" on="1"/>
        <pt x="190" y="0" on="1"/>
      </contour>
      <contour>
        <pt x="190" y="610" on="1"/>
        <pt x="190" y="359" on="1"/>
        <pt x="455" y="359" on="1"/>
        <pt x="455" y="610" on="1"/>
      </contour>
    </TTGlyph>
    <TTGlyph name="Q" xMin="90" yMin="-200" xMax="615" yMax="705">
      <contour>
        <pt x="190" y="615" on="1"/>
        <pt x="190" y="85" on="1"/>
        <pt x="515" y="85" on="1"/>
        <pt x="515" y="615" on="1"/>
      </contour>
      <contour>
        <pt x="391" y="-5" on="1"/>
        <pt x="206" y="-5" on="1"/>
        <pt x="90" y="62" on="1"/>
        <pt x="90" y="638" on="1"/>
        <pt x="206" y="705" on="1"/>
        <pt x="499" y="705" on="1"/>
        <pt x="615" y="638" on="1"/>
        <pt x="615" y="62" on="1"/>
        <pt x="499" y="-5" on="1"/>
        <pt x="612" y="-200" on="1"/>
        <pt x="501" y="-200" on="1"/>
      </contour>
    </TTGlyph>
    <TTGlyph name="R" xMin="90" yMin="0" xMax="610" yMax="700">
      <contour>
        <pt x="341" y="279" on="1"/>
        <pt x="190" y="279" on="1"/>
        <pt x="190" y="0" on="1"/>
        <pt x="90" y="0" on="1"/>
        <pt x="90" y="700" on="1"/>
        <pt x="449" y="700" on="1"/>
        <pt x="565" y="633" on="1"/>
        <pt x="565" y="346" on="1"/>
        <pt x="449" y="279" on="1"/>
        <pt x="610" y="0" on="1"/>
        <pt x="499" y="0" on="1"/>
      </contour>
      <contour>
        <pt x="190" y="610" on="1"/>
        <pt x="190" y="369" on="1"/>
        <pt x="465" y="369" on="1"/>
        <pt x="465" y="610" on="1"/>
      </contour>
    </TTGlyph>
    <TTGlyph name="Racute" xMin="90" yMin="0" xMax="610" yMax="918">
      <component glyphName="R" x="0" y="0" flags="0x1004"/>
      <component glyphName="acute" x="30" y="200" flags="0x1004"/>
    </TTGlyph>
    <TTGlyph name="Rcaron" xMin="90" yMin="0" xMax="610" yMax="928">
      <component glyphName="R" x="0" y="0" flags="0x1004"/>
      <component glyphName="caron" x="62" y="200" flags="0x1004"/>
    </TTGlyph>
    <TTGlyph name="Rcommaaccent" xMin="90" yMin="-335" xMax="610" yMax="700">
      <contour>
        <pt x="341" y="279" on="1"/>
        <pt x="190" y="279" on="1"/>
        <pt x="190" y="0" on="1"/>
        <pt x="90" y="0" on="1"/>
        <pt x="90" y="700" on="1"/>
        <pt x="449" y="700" on="1"/>
        <pt x="565" y="633" on="1"/>
        <pt x="565" y="346" on="1"/>
        <pt x="449" y="279" on="1"/>
        <pt x="610" y="0" on="1"/>
        <pt x="499" y="0" on="1"/>
      </contour>
      <contour>
        <pt x="190" y="610" on="1"/>
        <pt x="190" y="369" on="1"/>
        <pt x="465" y="369" on="1"/>
        <pt x="465" y="610" on="1"/>
      </contour>
      <contour>
        <pt x="272" y="-335" on="1"/>
        <pt x="272" y="-55" on="1"/>
        <pt x="392" y="-55" on="1"/>
        <pt x="392" y="-89" on="1"/>
        <pt x="306" y="-335" on="1"/>
      </contour>
    </TTGlyph>
    <TTGlyph name="S" xMin="80" yMin="-5" xMax="555" yMax="705">
      <contour>
        <pt x="90" y="370" on="1"/>
        <pt x="90" y="638" on="1"/>
        <pt x="206" y="705" on="1"/>
        <pt x="439" y="705" on="1"/>
        <pt x="555" y="638" on="1"/>
        <pt x="555" y="535" on="1"/>
        <pt x="455" y="535" on="1"/>
        <pt x="455" y="615" on="1"/>
        <pt x="190" y="615" on="1"/>
        <pt x="190" y="403" on="1"/>
        <pt x="439" y="403" on="1"/>
        <pt x="555" y="336" on="1"/>
        <pt x="555" y="62" on="1"/>
        <pt x="439" y="-5" on="1"/>
        <pt x="196" y="-5" on="1"/>
        <pt x="80" y="62" on="1"/>
        <pt x="80" y="165" on="1"/>
        <pt x="180" y="165" on="1"/>
        <pt x="180" y="85" on="1"/>
        <pt x="455" y="85" on="1"/>
        <pt x="455" y="303" on="1"/>
        <pt x="206" y="303" on="1"/>
      </contour>
    </TTGlyph>
    <TTGlyph name="Scaron" xMin="80" yMin="-5" xMax="555" yMax="918">
      <contour>
        <pt x="90" y="370" on="1"/>
        <pt x="90" y="638" on="1"/>
        <pt x="206" y="705" on="1"/>
        <pt x="439" y="705" on="1"/>
        <pt x="555" y="638" on="1"/>
        <pt x="555" y="535" on="1"/>
        <pt x="455" y="535" on="1"/>
        <pt x="455" y="615" on="1"/>
        <pt x="190" y="615" on="1"/>
        <pt x="190" y="403" on="1"/>
        <pt x="439" y="403" on="1"/>
        <pt x="555" y="336" on="1"/>
        <pt x="555" y="62" on="1"/>
        <pt x="439" y="-5" on="1"/>
        <pt x="196" y="-5" on="1"/>
        <pt x="80" y="62" on="1"/>
        <pt x="80" y="165" on="1"/>
        <pt x="180" y="165" on="1"/>
        <pt x="180" y="85" on="1"/>
        <pt x="455" y="85" on="1"/>
        <pt x="455" y="303" on="1"/>
        <pt x="206" y="303" on="1"/>
      </contour>
      <contour>
        <pt x="380" y="780" on="1"/>
        <pt x="270" y="780" on="1"/>
        <pt x="170" y="918" on="1"/>
        <pt x="245" y="918" on="1"/>
        <pt x="325" y="838" on="1"/>
        <pt x="406" y="918" on="1"/>
        <pt x="481" y="918" on="1"/>
      </contour>
    </TTGlyph>
    <TTGlyph name="T" xMin="30" yMin="0" xMax="528" yMax="700">
      <contour>
        <pt x="329" y="610" on="1"/>
        <pt x="329" y="0" on="1"/>
        <pt x="229" y="0" on="1"/>
        <pt x="229" y="610" on="1"/>
        <pt x="30" y="610" on="1"/>
        <pt x="30" y="700" on="1"/>
        <pt x="528" y="700" on="1"/>
        <pt x="528" y="610" on="1"/>
      </contour>
    </TTGlyph>
    <TTGlyph name="Thorn" xMin="90" yMin="0" xMax="555" yMax="730">
      <contour>
        <pt x="90" y="0" on="1"/>
        <pt x="90" y="730" on="1"/>
        <pt x="190" y="730" on="1"/>
        <pt x="190" y="587" on="1"/>
        <pt x="439" y="587" on="1"/>
        <pt x="555" y="520" on="1"/>
        <pt x="555" y="223" on="1"/>
        <pt x="439" y="156" on="1"/>
        <pt x="190" y="156" on="1"/>
        <pt x="190" y="0" on="1"/>
      </contour>
      <contour>
        <pt x="190" y="497" on="1"/>
        <pt x="190" y="246" on="1"/>
        <pt x="455" y="246" on="1"/>
        <pt x="455" y="497" on="1"/>
      </contour>
    </TTGlyph>
    <TTGlyph name="U" xMin="90" yMin="-5" xMax="615" yMax="700">
      <contour>
        <pt x="515" y="700" on="1"/>
        <pt x="615" y="700" on="1"/>
        <pt x="615" y="62" on="1"/>
        <pt x="499" y="-5" on="1"/>
        <pt x="206" y="-5" on="1"/>
        <pt x="90" y="62" on="1"/>
        <pt x="90" y="700" on="1"/>
        <pt x="190" y="700" on="1"/>
        <pt x="190" y="95" on="1"/>
        <pt x="515" y="95" on="1"/>
      </contour>
    </TTGlyph>
    <TTGlyph name="Uacute" xMin="90" yMin="-5" xMax="615" yMax="908">
      <contour>
        <pt x="515" y="700" on="1"/>
        <pt x="615" y="700" on="1"/>
        <pt x="615" y="62" on="1"/>
        <pt x="499" y="-5" on="1"/>
        <pt x="206" y="-5" on="1"/>
        <pt x="90" y="62" on="1"/>
        <pt x="90" y="700" on="1"/>
        <pt x="190" y="700" on="1"/>
        <pt x="190" y="95" on="1"/>
        <pt x="515" y="95" on="1"/>
      </contour>
      <contour>
        <pt x="295" y="780" on="1"/>
        <pt x="389" y="908" on="1"/>
        <pt x="519" y="908" on="1"/>
        <pt x="375" y="780" on="1"/>
      </contour>
    </TTGlyph>
    <TTGlyph name="Ucircumflex" xMin="90" yMin="-5" xMax="615" yMax="918">
      <contour>
        <pt x="515" y="700" on="1"/>
        <pt x="615" y="700" on="1"/>
        <pt x="615" y="62" on="1"/>
        <pt x="499" y="-5" on="1"/>
        <pt x="206" y="-5" on="1"/>
        <pt x="90" y="62" on="1"/>
        <pt x="90" y="700" on="1"/>
        <pt x="190" y="700" on="1"/>
        <pt x="190" y="95" on="1"/>
        <pt x="515" y="95" on="1"/>
      </contour>
      <contour>
        <pt x="297" y="918" on="1"/>
        <pt x="407" y="918" on="1"/>
        <pt x="508" y="780" on="1"/>
        <pt x="433" y="780" on="1"/>
        <pt x="352" y="860" on="1"/>
        <pt x="272" y="780" on="1"/>
        <pt x="197" y="780" on="1"/>
      </contour>
    </TTGlyph>
    <TTGlyph name="Udieresis" xMin="90" yMin="-5" xMax="615" yMax="890">
      <contour>
        <pt x="515" y="700" on="1"/>
        <pt x="615" y="700" on="1"/>
        <pt x="615" y="62" on="1"/>
        <pt x="499" y="-5" on="1"/>
        <pt x="206" y="-5" on="1"/>
        <pt x="90" y="62" on="1"/>
        <pt x="90" y="700" on="1"/>
        <pt x="190" y="700" on="1"/>
        <pt x="190" y="95" on="1"/>
        <pt x="515" y="95" on="1"/>
      </contour>
      <contour>
        <pt x="190" y="785" on="1"/>
        <pt x="190" y="890" on="1"/>
        <pt x="295" y="890" on="1"/>
        <pt x="295" y="785" on="1"/>
      </contour>
      <contour>
        <pt x="409" y="785" on="1"/>
        <pt x="409" y="890" on="1"/>
        <pt x="514" y="890" on="1"/>
        <pt x="514" y="785" on="1"/>
      </contour>
    </TTGlyph>
    <TTGlyph name="Ugrave" xMin="90" yMin="-5" xMax="615" yMax="908">
      <contour>
        <pt x="515" y="700" on="1"/>
        <pt x="615" y="700" on="1"/>
        <pt x="615" y="62" on="1"/>
        <pt x="499" y="-5" on="1"/>
        <pt x="206" y="-5" on="1"/>
        <pt x="90" y="62" on="1"/>
        <pt x="90" y="700" on="1"/>
        <pt x="190" y="700" on="1"/>
        <pt x="190" y="95" on="1"/>
        <pt x="515" y="95" on="1"/>
      </contour>
      <contour>
        <pt x="305" y="908" on="1"/>
        <pt x="399" y="780" on="1"/>
        <pt x="319" y="780" on="1"/>
        <pt x="175" y="908" on="1"/>
      </contour>
    </TTGlyph>
    <TTGlyph name="V" xMin="20" yMin="0" xMax="644" yMax="700">
      <contour>
        <pt x="644" y="700" on="1"/>
        <pt x="394" y="0" on="1"/>
        <pt x="270" y="0" on="1"/>
        <pt x="20" y="700" on="1"/>
        <pt x="121" y="700" on="1"/>
        <pt x="331" y="103" on="1"/>
        <pt x="333" y="103" on="1"/>
        <pt x="543" y="700" on="1"/>
      </contour>
    </TTGlyph>
    <TTGlyph name="W" xMin="30" yMin="0" xMax="926" yMax="700">
      <contour>
        <pt x="926" y="700" on="1"/>
        <pt x="746" y="0" on="1"/>
        <pt x="627" y="0" on="1"/>
        <pt x="479" y="561" on="1"/>
        <pt x="477" y="561" on="1"/>
        <pt x="329" y="0" on="1"/>
        <pt x="210" y="0" on="1"/>
        <pt x="30" y="700" on="1"/>
        <pt x="127" y="700" on="1"/>
        <pt x="269" y="128" on="1"/>
        <pt x="271" y="128" on="1"/>
        <pt x="422" y="700" on="1"/>
        <pt x="534" y="700" on="1"/>
        <pt x="684" y="128" on="1"/>
        <pt x="686" y="128" on="1"/>
        <pt x="829" y="700" on="1"/>
      </contour>
    </TTGlyph>
    <TTGlyph name="X" xMin="30" yMin="0" xMax="621" yMax="700">
      <contour>
        <pt x="30" y="0" on="1"/>
        <pt x="270" y="357" on="1"/>
        <pt x="40" y="700" on="1"/>
        <pt x="152" y="700" on="1"/>
        <pt x="325" y="440" on="1"/>
        <pt x="499" y="700" on="1"/>
        <pt x="611" y="700" on="1"/>
        <pt x="380" y="357" on="1"/>
        <pt x="621" y="0" on="1"/>
        <pt x="509" y="0" on="1"/>
        <pt x="325" y="275" on="1"/>
        <pt x="142" y="0" on="1"/>
      </contour>
    </TTGlyph>
    <TTGlyph name="Y" xMin="20" yMin="0" xMax="591" yMax="700">
      <contour>
        <pt x="255" y="0" on="1"/>
        <pt x="255" y="309" on="1"/>
        <pt x="20" y="700" on="1"/>
        <pt x="132" y="700" on="1"/>
        <pt x="304" y="402" on="1"/>
        <pt x="306" y="402" on="1"/>
        <pt x="479" y="700" on="1"/>
        <pt x="591" y="700" on="1"/>
        <pt x="355" y="308" on="1"/>
        <pt x="355" y="0" on="1"/>
      </contour>
    </TTGlyph>
    <TTGlyph name="Yacute" xMin="20" yMin="0" xMax="591" yMax="908">
      <contour>
        <pt x="255" y="0" on="1"/>
        <pt x="255" y="309" on="1"/>
        <pt x="20" y="700" on="1"/>
        <pt x="132" y="700" on="1"/>
        <pt x="304" y="402" on="1"/>
        <pt x="306" y="402" on="1"/>
        <pt x="479" y="700" on="1"/>
        <pt x="591" y="700" on="1"/>
        <pt x="355" y="308" on="1"/>
        <pt x="355" y="0" on="1"/>
      </contour>
      <contour>
        <pt x="255" y="780" on="1"/>
        <pt x="349" y="908" on="1"/>
        <pt x="479" y="908" on="1"/>
        <pt x="335" y="780" on="1"/>
      </contour>
    </TTGlyph>
    <TTGlyph name="Ydieresis" xMin="20" yMin="0" xMax="591" yMax="890">
      <contour>
        <pt x="255" y="0" on="1"/>
        <pt x="255" y="309" on="1"/>
        <pt x="20" y="700" on="1"/>
        <pt x="132" y="700" on="1"/>
        <pt x="304" y="402" on="1"/>
        <pt x="306" y="402" on="1"/>
        <pt x="479" y="700" on="1"/>
        <pt x="591" y="700" on="1"/>
        <pt x="355" y="308" on="1"/>
        <pt x="355" y="0" on="1"/>
      </contour>
      <contour>
        <pt x="143" y="785" on="1"/>
        <pt x="143" y="890" on="1"/>
        <pt x="248" y="890" on="1"/>
        <pt x="248" y="785" on="1"/>
      </contour>
      <contour>
        <pt x="362" y="785" on="1"/>
        <pt x="362" y="890" on="1"/>
        <pt x="467" y="890" on="1"/>
        <pt x="467" y="785" on="1"/>
      </contour>
    </TTGlyph>
    <TTGlyph name="Z" xMin="50" yMin="0" xMax="525" yMax="700">
      <contour>
        <pt x="70" y="610" on="1"/>
        <pt x="70" y="700" on="1"/>
        <pt x="525" y="700" on="1"/>
        <pt x="525" y="640" on="1"/>
        <pt x="180" y="92" on="1"/>
        <pt x="180" y="90" on="1"/>
        <pt x="525" y="90" on="1"/>
        <pt x="525" y="0" on="1"/>
        <pt x="50" y="0" on="1"/>
        <pt x="50" y="60" on="1"/>
        <pt x="395" y="608" on="1"/>
        <pt x="395" y="610" on="1"/>
      </contour>
    </TTGlyph>
    <TTGlyph name="Zcaron" xMin="50" yMin="0" xMax="525" yMax="918">
      <contour>
        <pt x="70" y="610" on="1"/>
        <pt x="70" y="700" on="1"/>
        <pt x="525" y="700" on="1"/>
        <pt x="525" y="640" on="1"/>
        <pt x="180" y="92" on="1"/>
        <pt x="180" y="90" on="1"/>
        <pt x="525" y="90" on="1"/>
        <pt x="525" y="0" on="1"/>
        <pt x="50" y="0" on="1"/>
        <pt x="50" y="60" on="1"/>
        <pt x="395" y="608" on="1"/>
        <pt x="395" y="610" on="1"/>
      </contour>
      <contour>
        <pt x="344" y="780" on="1"/>
        <pt x="234" y="780" on="1"/>
        <pt x="134" y="918" on="1"/>
        <pt x="209" y="918" on="1"/>
        <pt x="289" y="838" on="1"/>
        <pt x="370" y="918" on="1"/>
        <pt x="445" y="918" on="1"/>
      </contour>
    </TTGlyph>
    <TTGlyph name="a" xMin="60" yMin="-5" xMax="455" yMax="500">
      <contour>
        <pt x="157" y="205" on="1"/>
        <pt x="157" y="82" on="1"/>
        <pt x="358" y="82" on="1"/>
        <pt x="358" y="205" on="1"/>
      </contour>
      <contour>
        <pt x="176" y="-5" on="1"/>
        <pt x="60" y="62" on="1"/>
        <pt x="60" y="225" on="1"/>
        <pt x="176" y="292" on="1"/>
        <pt x="358" y="292" on="1"/>
        <pt x="358" y="413" on="1"/>
        <pt x="110" y="413" on="1"/>
        <pt x="110" y="500" on="1"/>
        <pt x="339" y="500" on="1"/>
        <pt x="455" y="433" on="1"/>
        <pt x="455" y="-5" on="1"/>
        <pt x="429" y="-5" on="1"/>
        <pt x="358" y="36" on="1"/>
        <pt x="287" y="-5" on="1"/>
      </contour>
    </TTGlyph>
    <TTGlyph name="a.alt" xMin="80" yMin="-5" xMax="495" yMax="505">
      <contour>
        <pt x="177" y="418" on="1"/>
        <pt x="177" y="82" on="1"/>
        <pt x="398" y="82" on="1"/>
        <pt x="398" y="418" on="1"/>
      </contour>
      <contour>
        <pt x="495" y="505" on="1"/>
        <pt x="495" y="-5" on="1"/>
        <pt x="469" y="-5" on="1"/>
        <pt x="398" y="36" on="1"/>
        <pt x="327" y="-5" on="1"/>
        <pt x="196" y="-5" on="1"/>
        <pt x="80" y="62" on="1"/>
        <pt x="80" y="438" on="1"/>
        <pt x="196" y="505" on="1"/>
        <pt x="327" y="505" on="1"/>
        <pt x="398" y="464" on="1"/>
        <pt x="469" y="505" on="1"/>
      </contour>
    </TTGlyph>
    <TTGlyph name="aacute" xMin="60" yMin="-5" xMax="455" yMax="718">
      <contour>
        <pt x="157" y="205" on="1"/>
        <pt x="157" y="82" on="1"/>
        <pt x="358" y="82" on="1"/>
        <pt x="358" y="205" on="1"/>
      </contour>
      <contour>
        <pt x="176" y="-5" on="1"/>
        <pt x="60" y="62" on="1"/>
        <pt x="60" y="225" on="1"/>
        <pt x="176" y="292" on="1"/>
        <pt x="358" y="292" on="1"/>
        <pt x="358" y="413" on="1"/>
        <pt x="110" y="413" on="1"/>
        <pt x="110" y="500" on="1"/>
        <pt x="339" y="500" on="1"/>
        <pt x="455" y="433" on="1"/>
        <pt x="455" y="-5" on="1"/>
        <pt x="429" y="-5" on="1"/>
        <pt x="358" y="36" on="1"/>
        <pt x="287" y="-5" on="1"/>
      </contour>
      <contour>
        <pt x="185" y="590" on="1"/>
        <pt x="279" y="718" on="1"/>
        <pt x="409" y="718" on="1"/>
        <pt x="265" y="590" on="1"/>
      </contour>
    </TTGlyph>
    <TTGlyph name="acircumflex" xMin="60" yMin="-5" xMax="455" yMax="728">
      <contour>
        <pt x="157" y="205" on="1"/>
        <pt x="157" y="82" on="1"/>
        <pt x="358" y="82" on="1"/>
        <pt x="358" y="205" on="1"/>
      </contour>
      <contour>
        <pt x="176" y="-5" on="1"/>
        <pt x="60" y="62" on="1"/>
        <pt x="60" y="225" on="1"/>
        <pt x="176" y="292" on="1"/>
        <pt x="358" y="292" on="1"/>
        <pt x="358" y="413" on="1"/>
        <pt x="110" y="413" on="1"/>
        <pt x="110" y="500" on="1"/>
        <pt x="339" y="500" on="1"/>
        <pt x="455" y="433" on="1"/>
        <pt x="455" y="-5" on="1"/>
        <pt x="429" y="-5" on="1"/>
        <pt x="358" y="36" on="1"/>
        <pt x="287" y="-5" on="1"/>
      </contour>
      <contour>
        <pt x="210" y="728" on="1"/>
        <pt x="320" y="728" on="1"/>
        <pt x="421" y="590" on="1"/>
        <pt x="346" y="590" on="1"/>
        <pt x="265" y="670" on="1"/>
        <pt x="185" y="590" on="1"/>
        <pt x="110" y="590" on="1"/>
      </contour>
    </TTGlyph>
    <TTGlyph name="acute" xMin="185" yMin="590" xMax="409" yMax="718">
      <contour>
        <pt x="185" y="590" on="1"/>
        <pt x="279" y="718" on="1"/>
        <pt x="409" y="718" on="1"/>
        <pt x="265" y="590" on="1"/>
      </contour>
    </TTGlyph>
    <TTGlyph name="acute.cap" xMin="185" yMin="790" xMax="409" yMax="918">
      <contour>
        <pt x="185" y="790" on="1"/>
        <pt x="279" y="918" on="1"/>
        <pt x="409" y="918" on="1"/>
        <pt x="265" y="790" on="1"/>
      </contour>
    </TTGlyph>
    <TTGlyph name="adieresis" xMin="60" yMin="-5" xMax="455" yMax="700">
      <contour>
        <pt x="157" y="205" on="1"/>
        <pt x="157" y="82" on="1"/>
        <pt x="358" y="82" on="1"/>
        <pt x="358" y="205" on="1"/>
      </contour>
      <contour>
        <pt x="176" y="-5" on="1"/>
        <pt x="60" y="62" on="1"/>
        <pt x="60" y="225" on="1"/>
        <pt x="176" y="292" on="1"/>
        <pt x="358" y="292" on="1"/>
        <pt x="358" y="413" on="1"/>
        <pt x="110" y="413" on="1"/>
        <pt x="110" y="500" on="1"/>
        <pt x="339" y="500" on="1"/>
        <pt x="455" y="433" on="1"/>
        <pt x="455" y="-5" on="1"/>
        <pt x="429" y="-5" on="1"/>
        <pt x="358" y="36" on="1"/>
        <pt x="287" y="-5" on="1"/>
      </contour>
      <contour>
        <pt x="110" y="595" on="1"/>
        <pt x="110" y="700" on="1"/>
        <pt x="215" y="700" on="1"/>
        <pt x="215" y="595" on="1"/>
      </contour>
      <contour>
        <pt x="329" y="595" on="1"/>
        <pt x="329" y="700" on="1"/>
        <pt x="434" y="700" on="1"/>
        <pt x="434" y="595" on="1"/>
      </contour>
    </TTGlyph>
    <TTGlyph name="ae" xMin="60" yMin="-5" xMax="753" yMax="505">
      <contour>
        <pt x="753" y="87" on="1"/>
        <pt x="753" y="0" on="1"/>
        <pt x="474" y="0" on="1"/>
        <pt x="384" y="52" on="1"/>
        <pt x="287" y="-5" on="1"/>
        <pt x="176" y="-5" on="1"/>
        <pt x="60" y="62" on="1"/>
        <pt x="60" y="225" on="1"/>
        <pt x="176" y="292" on="1"/>
        <pt x="358" y="292" on="1"/>
        <pt x="358" y="413" on="1"/>
        <pt x="110" y="413" on="1"/>
        <pt x="110" y="500" on="1"/>
        <pt x="339" y="500" on="1"/>
        <pt x="402" y="463" on="1"/>
        <pt x="474" y="505" on="1"/>
        <pt x="637" y="505" on="1"/>
        <pt x="753" y="438" on="1"/>
        <pt x="753" y="216" on="1"/>
        <pt x="455" y="216" on="1"/>
        <pt x="455" y="87" on="1"/>
      </contour>
      <contour>
        <pt x="157" y="205" on="1"/>
        <pt x="157" y="82" on="1"/>
        <pt x="358" y="82" on="1"/>
        <pt x="358" y="205" on="1"/>
      </contour>
      <contour>
        <pt x="455" y="418" on="1"/>
        <pt x="455" y="303" on="1"/>
        <pt x="656" y="303" on="1"/>
        <pt x="656" y="418" on="1"/>
      </contour>
    </TTGlyph>
    <TTGlyph name="agrave" xMin="60" yMin="-5" xMax="455" yMax="718">
      <contour>
        <pt x="157" y="205" on="1"/>
        <pt x="157" y="82" on="1"/>
        <pt x="358" y="82" on="1"/>
        <pt x="358" y="205" on="1"/>
      </contour>
      <contour>
        <pt x="176" y="-5" on="1"/>
        <pt x="60" y="62" on="1"/>
        <pt x="60" y="225" on="1"/>
        <pt x="176" y="292" on="1"/>
        <pt x="358" y="292" on="1"/>
        <pt x="358" y="413" on="1"/>
        <pt x="110" y="413" on="1"/>
        <pt x="110" y="500" on="1"/>
        <pt x="339" y="500" on="1"/>
        <pt x="455" y="433" on="1"/>
        <pt x="455" y="-5" on="1"/>
        <pt x="429" y="-5" on="1"/>
        <pt x="358" y="36" on="1"/>
        <pt x="287" y="-5" on="1"/>
      </contour>
      <contour>
        <pt x="265" y="718" on="1"/>
        <pt x="359" y="590" on="1"/>
        <pt x="279" y="590" on="1"/>
        <pt x="135" y="718" on="1"/>
      </contour>
    </TTGlyph>
    <TTGlyph name="ampersand" xMin="90" yMin="-5" xMax="625" yMax="705">
      <contour>
        <pt x="625" y="407" on="1"/>
        <pt x="625" y="317" on="1"/>
        <pt x="551" y="317" on="1"/>
        <pt x="551" y="62" on="1"/>
        <pt x="435" y="-5" on="1"/>
        <pt x="206" y="-5" on="1"/>
        <pt x="90" y="62" on="1"/>
        <pt x="90" y="311" on="1"/>
        <pt x="177" y="361" on="1"/>
        <pt x="177" y="363" on="1"/>
        <pt x="90" y="413" on="1"/>
        <pt x="90" y="638" on="1"/>
        <pt x="206" y="705" on="1"/>
        <pt x="395" y="705" on="1"/>
        <pt x="511" y="638" on="1"/>
        <pt x="511" y="525" on="1"/>
        <pt x="411" y="525" on="1"/>
        <pt x="411" y="615" on="1"/>
        <pt x="190" y="615" on="1"/>
        <pt x="190" y="407" on="1"/>
        <pt x="365" y="407" on="1"/>
        <pt x="365" y="317" on="1"/>
        <pt x="190" y="317" on="1"/>
        <pt x="190" y="85" on="1"/>
        <pt x="451" y="85" on="1"/>
        <pt x="451" y="340" on="1"/>
        <pt x="567" y="407" on="1"/>
      </contour>
    </TTGlyph>
    <TTGlyph name="apple" xMin="80" yMin="-23" xMax="778" yMax="811">
      <contour>
        <pt x="279" y="618" on="1"/>
        <pt x="314" y="618" on="0"/>
        <pt x="420" y="588" on="0"/>
        <pt x="457" y="588" on="0"/>
        <pt x="559" y="622" on="0"/>
        <pt x="595" y="622" on="1"/>
        <pt x="655" y="622" on="0"/>
        <pt x="702" y="590" on="1"/>
        <pt x="732" y="567" on="0"/>
        <pt x="754" y="540" on="1"/>
        <pt x="715" y="506" on="0"/>
        <pt x="697" y="480" on="1"/>
        <pt x="664" y="434" on="0"/>
        <pt x="664" y="314" on="0"/>
        <pt x="732" y="216" on="0"/>
        <pt x="778" y="202" on="1"/>
        <pt x="757" y="138" on="0"/>
        <pt x="716" y="77" on="1"/>
        <pt x="651" y="-21" on="0"/>
        <pt x="587" y="-21" on="1"/>
        <pt x="561" y="-21" on="0"/>
        <pt x="475" y="11" on="0"/>
        <pt x="412" y="11" on="0"/>
        <pt x="328" y="-23" on="0"/>
        <pt x="304" y="-23" on="1"/>
        <pt x="227" y="-23" on="0"/>
        <pt x="154" y="107" on="1"/>
        <pt x="80" y="235" on="0"/>
        <pt x="80" y="473" on="0"/>
        <pt x="136" y="546" on="1"/>
        <pt x="193" y="618" on="0"/>
      </contour>
      <contour>
        <pt x="589" y="790" on="1"/>
        <pt x="589" y="713" on="0"/>
        <pt x="528" y="652" on="1"/>
        <pt x="501" y="625" on="0"/>
        <pt x="455" y="611" on="0"/>
        <pt x="422" y="608" on="1"/>
        <pt x="424" y="773" on="0"/>
        <pt x="586" y="811" on="1"/>
        <pt x="589" y="802" on="0"/>
      </contour>
    </TTGlyph>
    <TTGlyph name="approxequal" xMin="90" yMin="51" xMax="632" yMax="458">
      <contour>
        <pt x="272" y="371" on="1"/>
        <pt x="177" y="371" on="1"/>
        <pt x="177" y="289" on="1"/>
        <pt x="90" y="289" on="1"/>
        <pt x="90" y="391" on="1"/>
        <pt x="206" y="458" on="1"/>
        <pt x="309" y="458" on="1"/>
        <pt x="450" y="376" on="1"/>
        <pt x="545" y="376" on="1"/>
        <pt x="545" y="458" on="1"/>
        <pt x="632" y="458" on="1"/>
        <pt x="632" y="356" on="1"/>
        <pt x="516" y="289" on="1"/>
        <pt x="413" y="289" on="1"/>
      </contour>
      <contour>
        <pt x="272" y="133" on="1"/>
        <pt x="177" y="133" on="1"/>
        <pt x="177" y="51" on="1"/>
        <pt x="90" y="51" on="1"/>
        <pt x="90" y="153" on="1"/>
        <pt x="206" y="220" on="1"/>
        <pt x="309" y="220" on="1"/>
        <pt x="450" y="138" on="1"/>
        <pt x="545" y="138" on="1"/>
        <pt x="545" y="220" on="1"/>
        <pt x="632" y="220" on="1"/>
        <pt x="632" y="118" on="1"/>
        <pt x="516" y="51" on="1"/>
        <pt x="413" y="51" on="1"/>
      </contour>
    </TTGlyph>
    <TTGlyph name="aring" xMin="60" yMin="-5" xMax="455" yMax="833">
      <contour>
        <pt x="157" y="205" on="1"/>
        <pt x="157" y="82" on="1"/>
        <pt x="358" y="82" on="1"/>
        <pt x="358" y="205" on="1"/>
      </contour>
      <contour>
        <pt x="176" y="-5" on="1"/>
        <pt x="60" y="62" on="1"/>
        <pt x="60" y="225" on="1"/>
        <pt x="176" y="292" on="1"/>
        <pt x="358" y="292" on="1"/>
        <pt x="358" y="413" on="1"/>
        <pt x="110" y="413" on="1"/>
        <pt x="110" y="500" on="1"/>
        <pt x="339" y="500" on="1"/>
        <pt x="455" y="433" on="1"/>
        <pt x="455" y="-5" on="1"/>
        <pt x="429" y="-5" on="1"/>
        <pt x="358" y="36" on="1"/>
        <pt x="287" y="-5" on="1"/>
      </contour>
      <contour>
        <pt x="407" y="617" on="1"/>
        <pt x="325" y="570" on="1"/>
        <pt x="204" y="570" on="1"/>
        <pt x="122" y="617" on="1"/>
        <pt x="122" y="786" on="1"/>
        <pt x="204" y="833" on="1"/>
        <pt x="325" y="833" on="1"/>
        <pt x="407" y="786" on="1"/>
      </contour>
      <contour>
        <pt x="197" y="768" on="1"/>
        <pt x="197" y="635" on="1"/>
        <pt x="332" y="635" on="1"/>
        <pt x="332" y="768" on="1"/>
      </contour>
    </TTGlyph>
    <TTGlyph name="asciicircum" xMin="50" yMin="380" xMax="552" yMax="700">
      <contour>
        <pt x="157" y="380" on="1"/>
        <pt x="50" y="380" on="1"/>
        <pt x="250" y="700" on="1"/>
        <pt x="352" y="700" on="1"/>
        <pt x="552" y="380" on="1"/>
        <pt x="445" y="380" on="1"/>
        <pt x="302" y="613" on="1"/>
        <pt x="301" y="613" on="1"/>
      </contour>
    </TTGlyph>
    <TTGlyph name="asciitilde" xMin="70" yMin="188" xMax="612" yMax="357">
      <contour>
        <pt x="252" y="270" on="1"/>
        <pt x="157" y="270" on="1"/>
        <pt x="157" y="188" on="1"/>
        <pt x="70" y="188" on="1"/>
        <pt x="70" y="290" on="1"/>
        <pt x="186" y="357" on="1"/>
        <pt x="289" y="357" on="1"/>
        <pt x="430" y="275" on="1"/>
        <pt x="525" y="275" on="1"/>
        <pt x="525" y="357" on="1"/>
        <pt x="612" y="357" on="1"/>
        <pt x="612" y="255" on="1"/>
        <pt x="496" y="188" on="1"/>
        <pt x="393" y="188" on="1"/>
      </contour>
    </TTGlyph>
    <TTGlyph name="asterisk" xMin="80" yMin="264" xMax="550" yMax="710">
      <contour>
        <pt x="281" y="524" on="1"/>
        <pt x="271" y="710" on="1"/>
        <pt x="359" y="710" on="1"/>
        <pt x="349" y="524" on="1"/>
        <pt x="522" y="591" on="1"/>
        <pt x="550" y="508" on="1"/>
        <pt x="371" y="460" on="1"/>
        <pt x="487" y="317" on="1"/>
        <pt x="416" y="264" on="1"/>
        <pt x="315" y="418" on="1"/>
        <pt x="214" y="264" on="1"/>
        <pt x="143" y="317" on="1"/>
        <pt x="259" y="460" on="1"/>
        <pt x="80" y="508" on="1"/>
        <pt x="108" y="591" on="1"/>
      </contour>
    </TTGlyph>
    <TTGlyph name="at" xMin="90" yMin="-141" xMax="920" yMax="705">
      <contour>
        <pt x="804" y="-141" on="1"/>
        <pt x="206" y="-141" on="1"/>
        <pt x="90" y="-74" on="1"/>
        <pt x="90" y="638" on="1"/>
        <pt x="206" y="705" on="1"/>
        <pt x="804" y="705" on="1"/>
        <pt x="920" y="638" on="1"/>
        <pt x="920" y="104" on="1"/>
        <pt x="804" y="37" on="1"/>
        <pt x="635" y="37" on="1"/>
        <pt x="569" y="78" on="1"/>
        <pt x="493" y="37" on="1"/>
        <pt x="392" y="37" on="1"/>
        <pt x="283" y="104" on="1"/>
        <pt x="322" y="470" on="1"/>
        <pt x="445" y="537" on="1"/>
        <pt x="546" y="537" on="1"/>
        <pt x="612" y="496" on="1"/>
        <pt x="688" y="537" on="1"/>
        <pt x="714" y="537" on="1"/>
        <pt x="670" y="117" on="1"/>
        <pt x="830" y="117" on="1"/>
        <pt x="830" y="625" on="1"/>
        <pt x="180" y="625" on="1"/>
        <pt x="180" y="-61" on="1"/>
        <pt x="804" y="-61" on="1"/>
      </contour>
      <contour>
        <pt x="417" y="450" on="1"/>
        <pt x="382" y="124" on="1"/>
        <pt x="573" y="124" on="1"/>
        <pt x="608" y="450" on="1"/>
      </contour>
    </TTGlyph>
    <TTGlyph name="atilde" xMin="60" yMin="-5" xMax="455" yMax="734">
      <contour>
        <pt x="157" y="205" on="1"/>
        <pt x="157" y="82" on="1"/>
        <pt x="358" y="82" on="1"/>
        <pt x="358" y="205" on="1"/>
      </contour>
      <contour>
        <pt x="176" y="-5" on="1"/>
        <pt x="60" y="62" on="1"/>
        <pt x="60" y="225" on="1"/>
        <pt x="176" y="292" on="1"/>
        <pt x="358" y="292" on="1"/>
        <pt x="358" y="413" on="1"/>
        <pt x="110" y="413" on="1"/>
        <pt x="110" y="500" on="1"/>
        <pt x="339" y="500" on="1"/>
        <pt x="455" y="433" on="1"/>
        <pt x="455" y="-5" on="1"/>
        <pt x="429" y="-5" on="1"/>
        <pt x="358" y="36" on="1"/>
        <pt x="287" y="-5" on="1"/>
      </contour>
      <contour>
        <pt x="180" y="667" on="1"/>
        <pt x="178" y="667" on="1"/>
        <pt x="178" y="585" on="1"/>
        <pt x="110" y="585" on="1"/>
        <pt x="110" y="679" on="1"/>
        <pt x="204" y="734" on="1"/>
        <pt x="346" y="652" on="1"/>
        <pt x="348" y="652" on="1"/>
        <pt x="348" y="734" on="1"/>
        <pt x="416" y="734" on="1"/>
        <pt x="416" y="640" on="1"/>
        <pt x="322" y="585" on="1"/>
      </contour>
    </TTGlyph>
    <TTGlyph name="b" xMin="80" yMin="-5" xMax="515" yMax="730">
      <contour>
        <pt x="248" y="505" on="1"/>
        <pt x="399" y="505" on="1"/>
        <pt x="515" y="438" on="1"/>
        <pt x="515" y="62" on="1"/>
        <pt x="399" y="-5" on="1"/>
        <pt x="248" y="-5" on="1"/>
        <pt x="177" y="36" on="1"/>
        <pt x="106" y="-5" on="1"/>
        <pt x="80" y="-5" on="1"/>
        <pt x="80" y="730" on="1"/>
        <pt x="177" y="730" on="1"/>
        <pt x="177" y="464" on="1"/>
      </contour>
      <contour>
        <pt x="177" y="418" on="1"/>
        <pt x="177" y="82" on="1"/>
        <pt x="418" y="82" on="1"/>
        <pt x="418" y="418" on="1"/>
      </contour>
    </TTGlyph>
    <TTGlyph name="backslash" xMin="30" yMin="-20" xMax="356" yMax="720">
      <contour>
        <pt x="120" y="720" on="1"/>
        <pt x="356" y="-20" on="1"/>
        <pt x="266" y="-20" on="1"/>
        <pt x="30" y="720" on="1"/>
      </contour>
    </TTGlyph>
    <TTGlyph name="bar" xMin="120" yMin="-200" xMax="210" yMax="730">
      <contour>
        <pt x="120" y="-200" on="1"/>
        <pt x="120" y="730" on="1"/>
        <pt x="210" y="730" on="1"/>
        <pt x="210" y="-200" on="1"/>
      </contour>
    </TTGlyph>
    <TTGlyph name="braceleft" xMin="40" yMin="-200" xMax="338" yMax="730">
      <contour>
        <pt x="205" y="225" on="1"/>
        <pt x="205" y="-130" on="1"/>
        <pt x="338" y="-130" on="1"/>
        <pt x="338" y="-200" on="1"/>
        <pt x="241" y="-200" on="1"/>
        <pt x="125" y="-133" on="1"/>
        <pt x="125" y="230" on="1"/>
        <pt x="40" y="230" on="1"/>
        <pt x="40" y="300" on="1"/>
        <pt x="125" y="300" on="1"/>
        <pt x="125" y="663" on="1"/>
        <pt x="241" y="730" on="1"/>
        <pt x="338" y="730" on="1"/>
        <pt x="338" y="660" on="1"/>
        <pt x="205" y="660" on="1"/>
        <pt x="205" y="305" on="1"/>
        <pt x="138" y="266" on="1"/>
        <pt x="138" y="264" on="1"/>
      </contour>
    </TTGlyph>
    <TTGlyph name="braceright" xMin="60" yMin="-200" xMax="358" yMax="730">
      <contour>
        <pt x="193" y="-130" on="1"/>
        <pt x="193" y="225" on="1"/>
        <pt x="260" y="264" on="1"/>
        <pt x="260" y="266" on="1"/>
        <pt x="193" y="305" on="1"/>
        <pt x="193" y="660" on="1"/>
        <pt x="60" y="660" on="1"/>
        <pt x="60" y="730" on="1"/>
        <pt x="157" y="730" on="1"/>
        <pt x="273" y="663" on="1"/>
        <pt x="273" y="300" on="1"/>
        <pt x="358" y="300" on="1"/>
        <pt x="358" y="230" on="1"/>
        <pt x="273" y="230" on="1"/>
        <pt x="273" y="-133" on="1"/>
        <pt x="157" y="-200" on="1"/>
        <pt x="60" y="-200" on="1"/>
        <pt x="60" y="-130" on="1"/>
      </contour>
    </TTGlyph>
    <TTGlyph name="bracketleft" xMin="90" yMin="-200" xMax="303" yMax="730">
      <contour>
        <pt x="170" y="660" on="1"/>
        <pt x="170" y="-130" on="1"/>
        <pt x="303" y="-130" on="1"/>
        <pt x="303" y="-200" on="1"/>
        <pt x="90" y="-200" on="1"/>
        <pt x="90" y="730" on="1"/>
        <pt x="303" y="730" on="1"/>
        <pt x="303" y="660" on="1"/>
      </contour>
    </TTGlyph>
    <TTGlyph name="bracketright" xMin="60" yMin="-200" xMax="273" yMax="730">
      <contour>
        <pt x="193" y="-130" on="1"/>
        <pt x="193" y="660" on="1"/>
        <pt x="60" y="660" on="1"/>
        <pt x="60" y="730" on="1"/>
        <pt x="273" y="730" on="1"/>
        <pt x="273" y="-200" on="1"/>
        <pt x="60" y="-200" on="1"/>
        <pt x="60" y="-130" on="1"/>
      </contour>
    </TTGlyph>
    <TTGlyph name="breve" xMin="122" yMin="580" xMax="407" yMax="736">
      <contour>
        <pt x="332" y="736" on="1"/>
        <pt x="407" y="736" on="1"/>
        <pt x="407" y="627" on="1"/>
        <pt x="325" y="580" on="1"/>
        <pt x="204" y="580" on="1"/>
        <pt x="122" y="627" on="1"/>
        <pt x="122" y="736" on="1"/>
        <pt x="197" y="736" on="1"/>
        <pt x="197" y="645" on="1"/>
        <pt x="332" y="645" on="1"/>
      </contour>
    </TTGlyph>
    <TTGlyph name="brokenbar" xMin="120" yMin="-200" xMax="210" yMax="730">
      <contour>
        <pt x="120" y="-200" on="1"/>
        <pt x="120" y="202" on="1"/>
        <pt x="210" y="202" on="1"/>
        <pt x="210" y="-200" on="1"/>
      </contour>
      <contour>
        <pt x="120" y="328" on="1"/>
        <pt x="120" y="730" on="1"/>
        <pt x="210" y="730" on="1"/>
        <pt x="210" y="328" on="1"/>
      </contour>
    </TTGlyph>
    <TTGlyph name="bullet" xMin="100" yMin="157" xMax="480" yMax="537">
      <contour>
        <pt x="480" y="224" on="1"/>
        <pt x="364" y="157" on="1"/>
        <pt x="216" y="157" on="1"/>
        <pt x="100" y="224" on="1"/>
        <pt x="100" y="470" on="1"/>
        <pt x="216" y="537" on="1"/>
        <pt x="364" y="537" on="1"/>
        <pt x="480" y="470" on="1"/>
      </contour>
    </TTGlyph>
    <TTGlyph name="c" xMin="80" yMin="0" xMax="455" yMax="500">
      <contour>
        <pt x="177" y="413" on="1"/>
        <pt x="177" y="87" on="1"/>
        <pt x="455" y="87" on="1"/>
        <pt x="455" y="0" on="1"/>
        <pt x="196" y="0" on="1"/>
        <pt x="80" y="67" on="1"/>
        <pt x="80" y="433" on="1"/>
        <pt x="196" y="500" on="1"/>
        <pt x="455" y="500" on="1"/>
        <pt x="455" y="413" on="1"/>
      </contour>
    </TTGlyph>
    <TTGlyph name="caron" xMin="110" yMin="590" xMax="421" yMax="728">
      <contour>
        <pt x="320" y="590" on="1"/>
        <pt x="210" y="590" on="1"/>
        <pt x="110" y="728" on="1"/>
        <pt x="185" y="728" on="1"/>
        <pt x="265" y="648" on="1"/>
        <pt x="346" y="728" on="1"/>
        <pt x="421" y="728" on="1"/>
      </contour>
    </TTGlyph>
    <TTGlyph name="caron.cap" xMin="110" yMin="790" xMax="421" yMax="928">
      <contour>
        <pt x="320" y="790" on="1"/>
        <pt x="210" y="790" on="1"/>
        <pt x="110" y="928" on="1"/>
        <pt x="185" y="928" on="1"/>
        <pt x="265" y="848" on="1"/>
        <pt x="346" y="928" on="1"/>
        <pt x="421" y="928" on="1"/>
      </contour>
    </TTGlyph>
    <TTGlyph name="ccedilla" xMin="80" yMin="-199" xMax="455" yMax="500">
      <contour>
        <pt x="269" y="0" on="1"/>
        <pt x="196" y="0" on="1"/>
        <pt x="80" y="67" on="1"/>
        <pt x="80" y="433" on="1"/>
        <pt x="196" y="500" on="1"/>
        <pt x="455" y="500" on="1"/>
        <pt x="455" y="413" on="1"/>
        <pt x="177" y="413" on="1"/>
        <pt x="177" y="87" on="1"/>
        <pt x="455" y="87" on="1"/>
        <pt x="455" y="0" on="1"/>
        <pt x="323" y="0" on="1"/>
        <pt x="301" y="-37" on="1"/>
        <pt x="367" y="-75" on="1"/>
        <pt x="367" y="-149" on="1"/>
        <pt x="281" y="-199" on="1"/>
        <pt x="211" y="-199" on="1"/>
        <pt x="211" y="-149" on="1"/>
        <pt x="310" y="-149" on="1"/>
        <pt x="310" y="-84" on="1"/>
        <pt x="221" y="-84" on="1"/>
      </contour>
    </TTGlyph>
    <TTGlyph name="cedilla" xMin="211" yMin="-199" xMax="367" yMax="0">
      <contour>
        <pt x="269" y="0" on="1"/>
        <pt x="323" y="0" on="1"/>
        <pt x="301" y="-37" on="1"/>
        <pt x="367" y="-75" on="1"/>
        <pt x="367" y="-149" on="1"/>
        <pt x="281" y="-199" on="1"/>
        <pt x="211" y="-199" on="1"/>
        <pt x="211" y="-149" on="1"/>
        <pt x="310" y="-149" on="1"/>
        <pt x="310" y="-84" on="1"/>
        <pt x="221" y="-84" on="1"/>
      </contour>
    </TTGlyph>
    <TTGlyph name="cent" xMin="80" yMin="-118" xMax="455" yMax="618">
      <contour>
        <pt x="363" y="500" on="1"/>
        <pt x="455" y="500" on="1"/>
        <pt x="455" y="413" on="1"/>
        <pt x="177" y="413" on="1"/>
        <pt x="177" y="87" on="1"/>
        <pt x="455" y="87" on="1"/>
        <pt x="455" y="0" on="1"/>
        <pt x="363" y="0" on="1"/>
        <pt x="363" y="-118" on="1"/>
        <pt x="267" y="-118" on="1"/>
        <pt x="267" y="0" on="1"/>
        <pt x="196" y="0" on="1"/>
        <pt x="80" y="67" on="1"/>
        <pt x="80" y="433" on="1"/>
        <pt x="196" y="500" on="1"/>
        <pt x="267" y="500" on="1"/>
        <pt x="267" y="618" on="1"/>
        <pt x="363" y="618" on="1"/>
      </contour>
    </TTGlyph>
    <TTGlyph name="circumflex" xMin="110" yMin="590" xMax="421" yMax="728">
      <contour>
        <pt x="210" y="728" on="1"/>
        <pt x="320" y="728" on="1"/>
        <pt x="421" y="590" on="1"/>
        <pt x="346" y="590" on="1"/>
        <pt x="265" y="670" on="1"/>
        <pt x="185" y="590" on="1"/>
        <pt x="110" y="590" on="1"/>
      </contour>
    </TTGlyph>
    <TTGlyph name="circumflex.cap" xMin="110" yMin="790" xMax="421" yMax="928">
      <contour>
        <pt x="210" y="928" on="1"/>
        <pt x="320" y="928" on="1"/>
        <pt x="421" y="790" on="1"/>
        <pt x="346" y="790" on="1"/>
        <pt x="265" y="870" on="1"/>
        <pt x="185" y="790" on="1"/>
        <pt x="110" y="790" on="1"/>
      </contour>
    </TTGlyph>
    <TTGlyph name="colon" xMin="100" yMin="0" xMax="250" yMax="500">
      <contour>
        <pt x="100" y="0" on="1"/>
        <pt x="100" y="150" on="1"/>
        <pt x="250" y="150" on="1"/>
        <pt x="250" y="0" on="1"/>
      </contour>
      <contour>
        <pt x="100" y="350" on="1"/>
        <pt x="100" y="500" on="1"/>
        <pt x="250" y="500" on="1"/>
        <pt x="250" y="350" on="1"/>
      </contour>
    </TTGlyph>
    <TTGlyph name="comma" xMin="100" yMin="-200" xMax="250" yMax="150">
      <contour>
        <pt x="100" y="-200" on="1"/>
        <pt x="100" y="150" on="1"/>
        <pt x="250" y="150" on="1"/>
        <pt x="250" y="108" on="1"/>
        <pt x="142" y="-200" on="1"/>
      </contour>
    </TTGlyph>
    <TTGlyph name="commaaccent" xMin="100" yMin="-335" xMax="220" yMax="-55">
      <contour>
        <pt x="100" y="-335" on="1"/>
        <pt x="100" y="-55" on="1"/>
        <pt x="220" y="-55" on="1"/>
        <pt x="220" y="-89" on="1"/>
        <pt x="134" y="-335" on="1"/>
      </contour>
    </TTGlyph>
    <TTGlyph name="copyright" xMin="90" yMin="-5" xMax="750" yMax="705">
      <contour>
        <pt x="750" y="62" on="1"/>
        <pt x="634" y="-5" on="1"/>
        <pt x="206" y="-5" on="1"/>
        <pt x="90" y="62" on="1"/>
        <pt x="90" y="638" on="1"/>
        <pt x="206" y="705" on="1"/>
        <pt x="634" y="705" on="1"/>
        <pt x="750" y="638" on="1"/>
      </contour>
      <contour>
        <pt x="170" y="635" on="1"/>
        <pt x="170" y="65" on="1"/>
        <pt x="670" y="65" on="1"/>
        <pt x="670" y="635" on="1"/>
      </contour>
      <contour>
        <pt x="517" y="251" on="1"/>
        <pt x="586" y="251" on="1"/>
        <pt x="586" y="177" on="1"/>
        <pt x="513" y="135" on="1"/>
        <pt x="327" y="135" on="1"/>
        <pt x="253" y="177" on="1"/>
        <pt x="253" y="523" on="1"/>
        <pt x="327" y="565" on="1"/>
        <pt x="513" y="565" on="1"/>
        <pt x="586" y="523" on="1"/>
        <pt x="586" y="449" on="1"/>
        <pt x="517" y="449" on="1"/>
        <pt x="517" y="502" on="1"/>
        <pt x="322" y="502" on="1"/>
        <pt x="322" y="198" on="1"/>
        <pt x="517" y="198" on="1"/>
      </contour>
    </TTGlyph>
    <TTGlyph name="ct" xMin="80" yMin="0" xMax="809" yMax="640">
      <contour>
        <pt x="177" y="413" on="1"/>
        <pt x="177" y="87" on="1"/>
        <pt x="455" y="87" on="1"/>
        <pt x="455" y="0" on="1"/>
        <pt x="196" y="0" on="1"/>
        <pt x="80" y="67" on="1"/>
        <pt x="80" y="433" on="1"/>
        <pt x="196" y="500" on="1"/>
        <pt x="592" y="500" on="1"/>
        <pt x="592" y="584" on="1"/>
        <pt x="689" y="640" on="1"/>
        <pt x="689" y="500" on="1"/>
        <pt x="809" y="500" on="1"/>
        <pt x="809" y="413" on="1"/>
        <pt x="689" y="413" on="1"/>
        <pt x="689" y="87" on="1"/>
        <pt x="809" y="87" on="1"/>
        <pt x="809" y="0" on="1"/>
        <pt x="708" y="0" on="1"/>
        <pt x="592" y="67" on="1"/>
        <pt x="592" y="413" on="1"/>
      </contour>
    </TTGlyph>
    <TTGlyph name="d" xMin="80" yMin="-5" xMax="515" yMax="730">
      <contour>
        <pt x="196" y="505" on="1"/>
        <pt x="347" y="505" on="1"/>
        <pt x="418" y="464" on="1"/>
        <pt x="418" y="730" on="1"/>
        <pt x="515" y="730" on="1"/>
        <pt x="515" y="-5" on="1"/>
        <pt x="442" y="-5" on="1"/>
        <pt x="418" y="36" on="1"/>
        <pt x="347" y="-5" on="1"/>
        <pt x="196" y="-5" on="1"/>
        <pt x="80" y="62" on="1"/>
        <pt x="80" y="438" on="1"/>
      </contour>
      <contour>
        <pt x="418" y="82" on="1"/>
        <pt x="418" y="418" on="1"/>
        <pt x="177" y="418" on="1"/>
        <pt x="177" y="82" on="1"/>
      </contour>
    </TTGlyph>
    <TTGlyph name="dagger" xMin="60" yMin="-200" xMax="523" yMax="731">
      <contour>
        <pt x="324" y="444" on="1"/>
        <pt x="334" y="-200" on="1"/>
        <pt x="249" y="-200" on="1"/>
        <pt x="259" y="444" on="1"/>
        <pt x="60" y="434" on="1"/>
        <pt x="60" y="519" on="1"/>
        <pt x="259" y="509" on="1"/>
        <pt x="249" y="731" on="1"/>
        <pt x="334" y="731" on="1"/>
        <pt x="324" y="509" on="1"/>
        <pt x="523" y="519" on="1"/>
        <pt x="523" y="434" on="1"/>
      </contour>
    </TTGlyph>
    <TTGlyph name="daggerdbl" xMin="60" yMin="-200" xMax="523" yMax="731">
      <contour>
        <pt x="331" y="266" on="1"/>
        <pt x="324" y="87" on="1"/>
        <pt x="523" y="97" on="1"/>
        <pt x="523" y="12" on="1"/>
        <pt x="324" y="22" on="1"/>
        <pt x="334" y="-200" on="1"/>
        <pt x="249" y="-200" on="1"/>
        <pt x="259" y="22" on="1"/>
        <pt x="60" y="12" on="1"/>
        <pt x="60" y="97" on="1"/>
        <pt x="259" y="87" on="1"/>
        <pt x="252" y="266" on="1"/>
        <pt x="259" y="444" on="1"/>
        <pt x="60" y="434" on="1"/>
        <pt x="60" y="519" on="1"/>
        <pt x="259" y="509" on="1"/>
        <pt x="249" y="731" on="1"/>
        <pt x="334" y="731" on="1"/>
        <pt x="324" y="509" on="1"/>
        <pt x="523" y="519" on="1"/>
        <pt x="523" y="434" on="1"/>
        <pt x="324" y="444" on="1"/>
      </contour>
    </TTGlyph>
    <TTGlyph name="degree" xMin="80" yMin="357" xMax="425" yMax="710">
      <contour>
        <pt x="425" y="424" on="1"/>
        <pt x="309" y="357" on="1"/>
        <pt x="196" y="357" on="1"/>
        <pt x="80" y="424" on="1"/>
        <pt x="80" y="643" on="1"/>
        <pt x="196" y="710" on="1"/>
        <pt x="309" y="710" on="1"/>
        <pt x="425" y="643" on="1"/>
      </contour>
      <contour>
        <pt x="171" y="629" on="1"/>
        <pt x="171" y="438" on="1"/>
        <pt x="334" y="438" on="1"/>
        <pt x="334" y="629" on="1"/>
      </contour>
    </TTGlyph>
    <TTGlyph name="dieresis" xMin="110" yMin="595" xMax="434" yMax="700">
      <contour>
        <pt x="110" y="595" on="1"/>
        <pt x="110" y="700" on="1"/>
        <pt x="215" y="700" on="1"/>
        <pt x="215" y="595" on="1"/>
      </contour>
      <contour>
        <pt x="329" y="595" on="1"/>
        <pt x="329" y="700" on="1"/>
        <pt x="434" y="700" on="1"/>
        <pt x="434" y="595" on="1"/>
      </contour>
    </TTGlyph>
    <TTGlyph name="dieresis.cap" xMin="110" yMin="795" xMax="434" yMax="900">
      <contour>
        <pt x="110" y="795" on="1"/>
        <pt x="110" y="900" on="1"/>
        <pt x="215" y="900" on="1"/>
        <pt x="215" y="795" on="1"/>
      </contour>
      <contour>
        <pt x="329" y="795" on="1"/>
        <pt x="329" y="900" on="1"/>
        <pt x="434" y="900" on="1"/>
        <pt x="434" y="795" on="1"/>
      </contour>
    </TTGlyph>
    <TTGlyph name="divide" xMin="50" yMin="-10" xMax="550" yMax="510">
      <contour>
        <pt x="550" y="297" on="1"/>
        <pt x="550" y="203" on="1"/>
        <pt x="50" y="203" on="1"/>
        <pt x="50" y="297" on="1"/>
      </contour>
      <contour>
        <pt x="235" y="-10" on="1"/>
        <pt x="235" y="120" on="1"/>
        <pt x="365" y="120" on="1"/>
        <pt x="365" y="-10" on="1"/>
      </contour>
      <contour>
        <pt x="235" y="380" on="1"/>
        <pt x="235" y="510" on="1"/>
        <pt x="365" y="510" on="1"/>
        <pt x="365" y="380" on="1"/>
      </contour>
    </TTGlyph>
    <TTGlyph name="dollar" xMin="80" yMin="-123" xMax="555" yMax="823">
      <contour>
        <pt x="276" y="-123" on="1"/>
        <pt x="276" y="-5" on="1"/>
        <pt x="196" y="-5" on="1"/>
        <pt x="80" y="62" on="1"/>
        <pt x="80" y="165" on="1"/>
        <pt x="180" y="165" on="1"/>
        <pt x="180" y="85" on="1"/>
        <pt x="455" y="85" on="1"/>
        <pt x="455" y="303" on="1"/>
        <pt x="206" y="303" on="1"/>
        <pt x="90" y="370" on="1"/>
        <pt x="90" y="638" on="1"/>
        <pt x="206" y="705" on="1"/>
        <pt x="276" y="705" on="1"/>
        <pt x="276" y="823" on="1"/>
        <pt x="376" y="823" on="1"/>
        <pt x="376" y="705" on="1"/>
        <pt x="439" y="705" on="1"/>
        <pt x="555" y="638" on="1"/>
        <pt x="555" y="535" on="1"/>
        <pt x="455" y="535" on="1"/>
        <pt x="455" y="615" on="1"/>
        <pt x="190" y="615" on="1"/>
        <pt x="190" y="403" on="1"/>
        <pt x="439" y="403" on="1"/>
        <pt x="555" y="336" on="1"/>
        <pt x="555" y="62" on="1"/>
        <pt x="439" y="-5" on="1"/>
        <pt x="376" y="-5" on="1"/>
        <pt x="376" y="-123" on="1"/>
      </contour>
    </TTGlyph>
    <TTGlyph name="dotaccent" xMin="100" yMin="591" xMax="250" yMax="741">
      <contour>
        <pt x="100" y="591" on="1"/>
        <pt x="100" y="741" on="1"/>
        <pt x="250" y="741" on="1"/>
        <pt x="250" y="591" on="1"/>
      </contour>
    </TTGlyph>
    <TTGlyph name="dotlessi" xMin="80" yMin="0" xMax="177" yMax="500">
      <contour>
        <pt x="177" y="500" on="1"/>
        <pt x="177" y="0" on="1"/>
        <pt x="80" y="0" on="1"/>
        <pt x="80" y="500" on="1"/>
      </contour>
    </TTGlyph>
    <TTGlyph name="dotlessj" xMin="-40" yMin="-200" xMax="177" yMax="500">
      <contour>
        <pt x="177" y="500" on="1"/>
        <pt x="177" y="-133" on="1"/>
        <pt x="61" y="-200" on="1"/>
        <pt x="-40" y="-200" on="1"/>
        <pt x="-40" y="-113" on="1"/>
        <pt x="80" y="-113" on="1"/>
        <pt x="80" y="500" on="1"/>
      </contour>
    </TTGlyph>
    <TTGlyph name="e" xMin="80" yMin="0" xMax="475" yMax="505">
      <contour>
        <pt x="475" y="87" on="1"/>
        <pt x="475" y="0" on="1"/>
        <pt x="196" y="0" on="1"/>
        <pt x="80" y="67" on="1"/>
        <pt x="80" y="438" on="1"/>
        <pt x="196" y="505" on="1"/>
        <pt x="359" y="505" on="1"/>
        <pt x="475" y="438" on="1"/>
        <pt x="475" y="216" on="1"/>
        <pt x="177" y="216" on="1"/>
        <pt x="177" y="87" on="1"/>
      </contour>
      <contour>
        <pt x="177" y="418" on="1"/>
        <pt x="177" y="303" on="1"/>
        <pt x="378" y="303" on="1"/>
        <pt x="378" y="418" on="1"/>
      </contour>
    </TTGlyph>
    <TTGlyph name="eacute" xMin="80" yMin="0" xMax="475" yMax="718">
      <contour>
        <pt x="475" y="87" on="1"/>
        <pt x="475" y="0" on="1"/>
        <pt x="196" y="0" on="1"/>
        <pt x="80" y="67" on="1"/>
        <pt x="80" y="438" on="1"/>
        <pt x="196" y="505" on="1"/>
        <pt x="359" y="505" on="1"/>
        <pt x="475" y="438" on="1"/>
        <pt x="475" y="216" on="1"/>
        <pt x="177" y="216" on="1"/>
        <pt x="177" y="87" on="1"/>
      </contour>
      <contour>
        <pt x="177" y="418" on="1"/>
        <pt x="177" y="303" on="1"/>
        <pt x="378" y="303" on="1"/>
        <pt x="378" y="418" on="1"/>
      </contour>
      <contour>
        <pt x="185" y="590" on="1"/>
        <pt x="279" y="718" on="1"/>
        <pt x="409" y="718" on="1"/>
        <pt x="265" y="590" on="1"/>
      </contour>
    </TTGlyph>
    <TTGlyph name="ecircumflex" xMin="80" yMin="0" xMax="475" yMax="728">
      <contour>
        <pt x="475" y="87" on="1"/>
        <pt x="475" y="0" on="1"/>
        <pt x="196" y="0" on="1"/>
        <pt x="80" y="67" on="1"/>
        <pt x="80" y="438" on="1"/>
        <pt x="196" y="505" on="1"/>
        <pt x="359" y="505" on="1"/>
        <pt x="475" y="438" on="1"/>
        <pt x="475" y="216" on="1"/>
        <pt x="177" y="216" on="1"/>
        <pt x="177" y="87" on="1"/>
      </contour>
      <contour>
        <pt x="177" y="418" on="1"/>
        <pt x="177" y="303" on="1"/>
        <pt x="378" y="303" on="1"/>
        <pt x="378" y="418" on="1"/>
      </contour>
      <contour>
        <pt x="227" y="728" on="1"/>
        <pt x="337" y="728" on="1"/>
        <pt x="438" y="590" on="1"/>
        <pt x="363" y="590" on="1"/>
        <pt x="282" y="670" on="1"/>
        <pt x="202" y="590" on="1"/>
        <pt x="127" y="590" on="1"/>
      </contour>
    </TTGlyph>
    <TTGlyph name="edieresis" xMin="80" yMin="0" xMax="475" yMax="700">
      <contour>
        <pt x="475" y="87" on="1"/>
        <pt x="475" y="0" on="1"/>
        <pt x="196" y="0" on="1"/>
        <pt x="80" y="67" on="1"/>
        <pt x="80" y="438" on="1"/>
        <pt x="196" y="505" on="1"/>
        <pt x="359" y="505" on="1"/>
        <pt x="475" y="438" on="1"/>
        <pt x="475" y="216" on="1"/>
        <pt x="177" y="216" on="1"/>
        <pt x="177" y="87" on="1"/>
      </contour>
      <contour>
        <pt x="177" y="418" on="1"/>
        <pt x="177" y="303" on="1"/>
        <pt x="378" y="303" on="1"/>
        <pt x="378" y="418" on="1"/>
      </contour>
      <contour>
        <pt x="113" y="595" on="1"/>
        <pt x="113" y="700" on="1"/>
        <pt x="218" y="700" on="1"/>
        <pt x="218" y="595" on="1"/>
      </contour>
      <contour>
        <pt x="332" y="595" on="1"/>
        <pt x="332" y="700" on="1"/>
        <pt x="437" y="700" on="1"/>
        <pt x="437" y="595" on="1"/>
      </contour>
    </TTGlyph>
    <TTGlyph name="egrave" xMin="80" yMin="0" xMax="475" yMax="718">
      <contour>
        <pt x="475" y="87" on="1"/>
        <pt x="475" y="0" on="1"/>
        <pt x="196" y="0" on="1"/>
        <pt x="80" y="67" on="1"/>
        <pt x="80" y="438" on="1"/>
        <pt x="196" y="505" on="1"/>
        <pt x="359" y="505" on="1"/>
        <pt x="475" y="438" on="1"/>
        <pt x="475" y="216" on="1"/>
        <pt x="177" y="216" on="1"/>
        <pt x="177" y="87" on="1"/>
      </contour>
      <contour>
        <pt x="177" y="418" on="1"/>
        <pt x="177" y="303" on="1"/>
        <pt x="378" y="303" on="1"/>
        <pt x="378" y="418" on="1"/>
      </contour>
      <contour>
        <pt x="285" y="718" on="1"/>
        <pt x="379" y="590" on="1"/>
        <pt x="299" y="590" on="1"/>
        <pt x="155" y="718" on="1"/>
      </contour>
    </TTGlyph>
    <TTGlyph name="eight" xMin="90" yMin="-5" xMax="555" yMax="705">
      <contour>
        <pt x="190" y="85" on="1"/>
        <pt x="455" y="85" on="1"/>
        <pt x="455" y="317" on="1"/>
        <pt x="190" y="317" on="1"/>
      </contour>
      <contour>
        <pt x="190" y="407" on="1"/>
        <pt x="455" y="407" on="1"/>
        <pt x="455" y="615" on="1"/>
        <pt x="190" y="615" on="1"/>
      </contour>
      <contour>
        <pt x="439" y="-5" on="1"/>
        <pt x="190" y="-5" on="1"/>
        <pt x="90" y="62" on="1"/>
        <pt x="90" y="311" on="1"/>
        <pt x="177" y="361" on="1"/>
        <pt x="177" y="363" on="1"/>
        <pt x="90" y="413" on="1"/>
        <pt x="90" y="638" on="1"/>
        <pt x="206" y="705" on="1"/>
        <pt x="439" y="705" on="1"/>
        <pt x="555" y="638" on="1"/>
        <pt x="555" y="413" on="1"/>
        <pt x="468" y="363" on="1"/>
        <pt x="468" y="361" on="1"/>
        <pt x="555" y="311" on="1"/>
        <pt x="555" y="62" on="1"/>
      </contour>
    </TTGlyph>
    <TTGlyph name="ellipsis" xMin="100" yMin="0" xMax="870" yMax="150">
      <contour>
        <pt x="100" y="0" on="1"/>
        <pt x="100" y="150" on="1"/>
        <pt x="250" y="150" on="1"/>
        <pt x="250" y="0" on="1"/>
      </contour>
      <contour>
        <pt x="410" y="0" on="1"/>
        <pt x="410" y="150" on="1"/>
        <pt x="560" y="150" on="1"/>
        <pt x="560" y="0" on="1"/>
      </contour>
      <contour>
        <pt x="720" y="0" on="1"/>
        <pt x="720" y="150" on="1"/>
        <pt x="870" y="150" on="1"/>
        <pt x="870" y="0" on="1"/>
      </contour>
    </TTGlyph>
    <TTGlyph name="emdash" xMin="70" yMin="218" xMax="904" yMax="305">
      <contour>
        <pt x="70" y="218" on="1"/>
        <pt x="70" y="305" on="1"/>
        <pt x="904" y="305" on="1"/>
        <pt x="904" y="218" on="1"/>
      </contour>
    </TTGlyph>
    <TTGlyph name="endash" xMin="70" yMin="218" xMax="626" yMax="305">
      <contour>
        <pt x="70" y="218" on="1"/>
        <pt x="70" y="305" on="1"/>
        <pt x="626" y="305" on="1"/>
        <pt x="626" y="218" on="1"/>
      </contour>
    </TTGlyph>
    <TTGlyph name="equal" xMin="90" yMin="89" xMax="590" yMax="411">
      <contour>
        <pt x="590" y="183" on="1"/>
        <pt x="590" y="89" on="1"/>
        <pt x="90" y="89" on="1"/>
        <pt x="90" y="183" on="1"/>
      </contour>
      <contour>
        <pt x="590" y="411" on="1"/>
        <pt x="590" y="317" on="1"/>
        <pt x="90" y="317" on="1"/>
        <pt x="90" y="411" on="1"/>
      </contour>
    </TTGlyph>
    <TTGlyph name="eth" xMin="91" yMin="-5" xMax="616" yMax="705">
      <contour>
        <pt x="340" y="487" on="1"/>
        <pt x="340" y="561" on="1"/>
        <pt x="446" y="561" on="1"/>
        <pt x="446" y="615" on="1"/>
        <pt x="207" y="615" on="1"/>
        <pt x="207" y="705" on="1"/>
        <pt x="430" y="705" on="1"/>
        <pt x="546" y="638" on="1"/>
        <pt x="546" y="561" on="1"/>
        <pt x="616" y="561" on="1"/>
        <pt x="616" y="487" on="1"/>
        <pt x="546" y="487" on="1"/>
        <pt x="546" y="62" on="1"/>
        <pt x="430" y="-5" on="1"/>
        <pt x="207" y="-5" on="1"/>
        <pt x="91" y="62" on="1"/>
        <pt x="91" y="363" on="1"/>
        <pt x="207" y="430" on="1"/>
        <pt x="375" y="430" on="1"/>
        <pt x="446" y="389" on="1"/>
        <pt x="446" y="487" on="1"/>
      </contour>
      <contour>
        <pt x="446" y="85" on="1"/>
        <pt x="446" y="340" on="1"/>
        <pt x="191" y="340" on="1"/>
        <pt x="191" y="85" on="1"/>
      </contour>
    </TTGlyph>
    <TTGlyph name="exclam" xMin="100" yMin="0" xMax="250" yMax="730">
      <contour>
        <pt x="100" y="0" on="1"/>
        <pt x="100" y="150" on="1"/>
        <pt x="250" y="150" on="1"/>
        <pt x="250" y="0" on="1"/>
      </contour>
      <contour>
        <pt x="135" y="268" on="1"/>
        <pt x="109" y="730" on="1"/>
        <pt x="241" y="730" on="1"/>
        <pt x="215" y="268" on="1"/>
      </contour>
    </TTGlyph>
    <TTGlyph name="exclamdown" xMin="100" yMin="-230" xMax="250" yMax="500">
      <contour>
        <pt x="100" y="350" on="1"/>
        <pt x="100" y="500" on="1"/>
        <pt x="250" y="500" on="1"/>
        <pt x="250" y="350" on="1"/>
      </contour>
      <contour>
        <pt x="109" y="-230" on="1"/>
        <pt x="135" y="232" on="1"/>
        <pt x="215" y="232" on="1"/>
        <pt x="241" y="-230" on="1"/>
      </contour>
    </TTGlyph>
    <TTGlyph name="f" xMin="40" yMin="0" xMax="349" yMax="730">
      <contour>
        <pt x="40" y="413" on="1"/>
        <pt x="40" y="500" on="1"/>
        <pt x="132" y="500" on="1"/>
        <pt x="132" y="663" on="1"/>
        <pt x="248" y="730" on="1"/>
        <pt x="349" y="730" on="1"/>
        <pt x="349" y="643" on="1"/>
        <pt x="229" y="643" on="1"/>
        <pt x="229" y="500" on="1"/>
        <pt x="349" y="500" on="1"/>
        <pt x="349" y="413" on="1"/>
        <pt x="229" y="413" on="1"/>
        <pt x="229" y="0" on="1"/>
        <pt x="132" y="0" on="1"/>
        <pt x="132" y="413" on="1"/>
      </contour>
    </TTGlyph>
    <TTGlyph name="ffi" xMin="40" yMin="0" xMax="960" yMax="730">
      <contour>
        <pt x="229" y="413" on="1"/>
        <pt x="229" y="0" on="1"/>
        <pt x="132" y="0" on="1"/>
        <pt x="132" y="413" on="1"/>
        <pt x="40" y="413" on="1"/>
        <pt x="40" y="500" on="1"/>
        <pt x="132" y="500" on="1"/>
        <pt x="132" y="663" on="1"/>
        <pt x="248" y="730" on="1"/>
        <pt x="389" y="730" on="1"/>
        <pt x="389" y="643" on="1"/>
        <pt x="229" y="643" on="1"/>
        <pt x="229" y="500" on="1"/>
        <pt x="501" y="500" on="1"/>
        <pt x="501" y="663" on="1"/>
        <pt x="617" y="730" on="1"/>
        <pt x="960" y="730" on="1"/>
        <pt x="960" y="643" on="1"/>
        <pt x="598" y="643" on="1"/>
        <pt x="598" y="500" on="1"/>
        <pt x="758" y="500" on="1"/>
        <pt x="758" y="413" on="1"/>
        <pt x="598" y="413" on="1"/>
        <pt x="598" y="0" on="1"/>
        <pt x="501" y="0" on="1"/>
        <pt x="501" y="413" on="1"/>
      </contour>
      <contour>
        <pt x="955" y="500" on="1"/>
        <pt x="955" y="0" on="1"/>
        <pt x="858" y="0" on="1"/>
        <pt x="858" y="500" on="1"/>
      </contour>
    </TTGlyph>
    <TTGlyph name="ffl" xMin="40" yMin="0" xMax="1075" yMax="730">
      <contour>
        <pt x="40" y="413" on="1"/>
        <pt x="40" y="500" on="1"/>
        <pt x="132" y="500" on="1"/>
        <pt x="132" y="663" on="1"/>
        <pt x="248" y="730" on="1"/>
        <pt x="419" y="730" on="1"/>
        <pt x="419" y="643" on="1"/>
        <pt x="229" y="643" on="1"/>
        <pt x="229" y="500" on="1"/>
        <pt x="521" y="500" on="1"/>
        <pt x="521" y="663" on="1"/>
        <pt x="637" y="730" on="1"/>
        <pt x="955" y="730" on="1"/>
        <pt x="955" y="87" on="1"/>
        <pt x="1075" y="87" on="1"/>
        <pt x="1075" y="0" on="1"/>
        <pt x="974" y="0" on="1"/>
        <pt x="858" y="67" on="1"/>
        <pt x="858" y="643" on="1"/>
        <pt x="618" y="643" on="1"/>
        <pt x="618" y="500" on="1"/>
        <pt x="768" y="500" on="1"/>
        <pt x="768" y="413" on="1"/>
        <pt x="618" y="413" on="1"/>
        <pt x="618" y="0" on="1"/>
        <pt x="521" y="0" on="1"/>
        <pt x="521" y="413" on="1"/>
        <pt x="229" y="413" on="1"/>
        <pt x="229" y="0" on="1"/>
        <pt x="132" y="0" on="1"/>
        <pt x="132" y="413" on="1"/>
      </contour>
    </TTGlyph>
    <TTGlyph name="fi" xMin="40" yMin="0" xMax="561" yMax="730">
      <contour>
        <pt x="40" y="413" on="1"/>
        <pt x="40" y="500" on="1"/>
        <pt x="132" y="500" on="1"/>
        <pt x="132" y="663" on="1"/>
        <pt x="248" y="730" on="1"/>
        <pt x="561" y="730" on="1"/>
        <pt x="561" y="643" on="1"/>
        <pt x="229" y="643" on="1"/>
        <pt x="229" y="500" on="1"/>
        <pt x="369" y="500" on="1"/>
        <pt x="369" y="413" on="1"/>
        <pt x="229" y="413" on="1"/>
        <pt x="229" y="0" on="1"/>
        <pt x="132" y="0" on="1"/>
        <pt x="132" y="413" on="1"/>
      </contour>
      <contour>
        <pt x="556" y="500" on="1"/>
        <pt x="556" y="0" on="1"/>
        <pt x="459" y="0" on="1"/>
        <pt x="459" y="500" on="1"/>
      </contour>
    </TTGlyph>
    <TTGlyph name="five" xMin="90" yMin="-5" xMax="555" yMax="700">
      <contour>
        <pt x="210" y="610" on="1"/>
        <pt x="210" y="431" on="1"/>
        <pt x="439" y="431" on="1"/>
        <pt x="555" y="364" on="1"/>
        <pt x="555" y="62" on="1"/>
        <pt x="439" y="-5" on="1"/>
        <pt x="206" y="-5" on="1"/>
        <pt x="90" y="62" on="1"/>
        <pt x="90" y="175" on="1"/>
        <pt x="190" y="175" on="1"/>
        <pt x="190" y="85" on="1"/>
        <pt x="455" y="85" on="1"/>
        <pt x="455" y="341" on="1"/>
        <pt x="110" y="341" on="1"/>
        <pt x="110" y="700" on="1"/>
        <pt x="545" y="700" on="1"/>
        <pt x="545" y="610" on="1"/>
      </contour>
    </TTGlyph>
    <TTGlyph name="fj" xMin="40" yMin="-200" xMax="561" yMax="730">
      <contour>
        <pt x="40" y="413" on="1"/>
        <pt x="40" y="500" on="1"/>
        <pt x="132" y="500" on="1"/>
        <pt x="132" y="663" on="1"/>
        <pt x="248" y="730" on="1"/>
        <pt x="561" y="730" on="1"/>
        <pt x="561" y="643" on="1"/>
        <pt x="229" y="643" on="1"/>
        <pt x="229" y="500" on="1"/>
        <pt x="349" y="500" on="1"/>
        <pt x="349" y="413" on="1"/>
        <pt x="229" y="413" on="1"/>
        <pt x="229" y="0" on="1"/>
        <pt x="132" y="0" on="1"/>
        <pt x="132" y="413" on="1"/>
      </contour>
      <contour>
        <pt x="556" y="500" on="1"/>
        <pt x="556" y="-133" on="1"/>
        <pt x="440" y="-200" on="1"/>
        <pt x="339" y="-200" on="1"/>
        <pt x="339" y="-113" on="1"/>
        <pt x="459" y="-113" on="1"/>
        <pt x="459" y="500" on="1"/>
      </contour>
    </TTGlyph>
    <TTGlyph name="fl" xMin="40" yMin="0" xMax="686" yMax="730">
      <contour>
        <pt x="585" y="0" on="1"/>
        <pt x="469" y="67" on="1"/>
        <pt x="469" y="643" on="1"/>
        <pt x="229" y="643" on="1"/>
        <pt x="229" y="500" on="1"/>
        <pt x="379" y="500" on="1"/>
        <pt x="379" y="413" on="1"/>
        <pt x="229" y="413" on="1"/>
        <pt x="229" y="0" on="1"/>
        <pt x="132" y="0" on="1"/>
        <pt x="132" y="413" on="1"/>
        <pt x="40" y="413" on="1"/>
        <pt x="40" y="500" on="1"/>
        <pt x="132" y="500" on="1"/>
        <pt x="132" y="663" on="1"/>
        <pt x="248" y="730" on="1"/>
        <pt x="566" y="730" on="1"/>
        <pt x="566" y="87" on="1"/>
        <pt x="686" y="87" on="1"/>
        <pt x="686" y="0" on="1"/>
      </contour>
    </TTGlyph>
    <TTGlyph name="florin" xMin="12" yMin="-200" xMax="349" yMax="730">
      <contour>
        <pt x="229" y="413" on="1"/>
        <pt x="229" y="-133" on="1"/>
        <pt x="113" y="-200" on="1"/>
        <pt x="12" y="-200" on="1"/>
        <pt x="12" y="-113" on="1"/>
        <pt x="132" y="-113" on="1"/>
        <pt x="132" y="413" on="1"/>
        <pt x="40" y="413" on="1"/>
        <pt x="40" y="500" on="1"/>
        <pt x="132" y="500" on="1"/>
        <pt x="132" y="663" on="1"/>
        <pt x="248" y="730" on="1"/>
        <pt x="349" y="730" on="1"/>
        <pt x="349" y="643" on="1"/>
        <pt x="229" y="643" on="1"/>
        <pt x="229" y="500" on="1"/>
        <pt x="349" y="500" on="1"/>
        <pt x="349" y="413" on="1"/>
      </contour>
    </TTGlyph>
    <TTGlyph name="four" xMin="40" yMin="0" xMax="574" yMax="700">
      <contour>
        <pt x="484" y="162" on="1"/>
        <pt x="484" y="0" on="1"/>
        <pt x="386" y="0" on="1"/>
        <pt x="386" y="162" on="1"/>
        <pt x="40" y="162" on="1"/>
        <pt x="40" y="248" on="1"/>
        <pt x="392" y="700" on="1"/>
        <pt x="484" y="700" on="1"/>
        <pt x="484" y="249" on="1"/>
        <pt x="574" y="249" on="1"/>
        <pt x="574" y="162" on="1"/>
      </contour>
      <contour>
        <pt x="144" y="249" on="1"/>
        <pt x="386" y="249" on="1"/>
        <pt x="386" y="557" on="1"/>
        <pt x="384" y="557" on="1"/>
        <pt x="144" y="251" on="1"/>
      </contour>
    </TTGlyph>
    <TTGlyph name="fraction" xMin="10" yMin="-10" xMax="653" yMax="710">
      <contour>
        <pt x="563" y="710" on="1"/>
        <pt x="653" y="710" on="1"/>
        <pt x="100" y="-10" on="1"/>
        <pt x="10" y="-10" on="1"/>
      </contour>
    </TTGlyph>
    <TTGlyph name="g" xMin="60" yMin="-205" xMax="515" yMax="500">
      <contour>
        <pt x="177" y="0" on="1"/>
        <pt x="80" y="56" on="1"/>
        <pt x="80" y="146" on="1"/>
        <pt x="151" y="187" on="1"/>
        <pt x="80" y="228" on="1"/>
        <pt x="80" y="433" on="1"/>
        <pt x="196" y="500" on="1"/>
        <pt x="515" y="500" on="1"/>
        <pt x="515" y="466" on="1"/>
        <pt x="424" y="413" on="1"/>
        <pt x="485" y="377" on="1"/>
        <pt x="485" y="239" on="1"/>
        <pt x="369" y="172" on="1"/>
        <pt x="177" y="172" on="1"/>
        <pt x="177" y="87" on="1"/>
        <pt x="399" y="87" on="1"/>
        <pt x="515" y="20" on="1"/>
        <pt x="515" y="-138" on="1"/>
        <pt x="399" y="-205" on="1"/>
        <pt x="176" y="-205" on="1"/>
        <pt x="60" y="-138" on="1"/>
        <pt x="60" y="-76" on="1"/>
        <pt x="157" y="-20" on="1"/>
        <pt x="157" y="-120" on="1"/>
        <pt x="418" y="-120" on="1"/>
        <pt x="418" y="0" on="1"/>
      </contour>
      <contour>
        <pt x="177" y="415" on="1"/>
        <pt x="177" y="257" on="1"/>
        <pt x="388" y="257" on="1"/>
        <pt x="388" y="415" on="1"/>
      </contour>
    </TTGlyph>
    <TTGlyph name="g.alt" xMin="80" yMin="-200" xMax="505" yMax="505">
      <contour>
        <pt x="479" y="505" on="1"/>
        <pt x="505" y="505" on="1"/>
        <pt x="505" y="-133" on="1"/>
        <pt x="389" y="-200" on="1"/>
        <pt x="130" y="-200" on="1"/>
        <pt x="130" y="-113" on="1"/>
        <pt x="408" y="-113" on="1"/>
        <pt x="408" y="52" on="1"/>
        <pt x="337" y="11" on="1"/>
        <pt x="196" y="11" on="1"/>
        <pt x="80" y="78" on="1"/>
        <pt x="80" y="438" on="1"/>
        <pt x="196" y="505" on="1"/>
        <pt x="337" y="505" on="1"/>
        <pt x="408" y="464" on="1"/>
      </contour>
      <contour>
        <pt x="177" y="98" on="1"/>
        <pt x="408" y="98" on="1"/>
        <pt x="408" y="418" on="1"/>
        <pt x="177" y="418" on="1"/>
      </contour>
    </TTGlyph>
    <TTGlyph name="germandbls" xMin="30" yMin="-200" xMax="585" yMax="700">
      <contour>
        <pt x="30" y="317" on="1"/>
        <pt x="30" y="407" on="1"/>
        <pt x="120" y="407" on="1"/>
        <pt x="120" y="633" on="1"/>
        <pt x="236" y="700" on="1"/>
        <pt x="439" y="700" on="1"/>
        <pt x="555" y="633" on="1"/>
        <pt x="555" y="413" on="1"/>
        <pt x="481" y="370" on="1"/>
        <pt x="585" y="311" on="1"/>
        <pt x="585" y="67" on="1"/>
        <pt x="469" y="0" on="1"/>
        <pt x="293" y="0" on="1"/>
        <pt x="293" y="90" on="1"/>
        <pt x="485" y="90" on="1"/>
        <pt x="485" y="317" on="1"/>
        <pt x="293" y="317" on="1"/>
        <pt x="293" y="407" on="1"/>
        <pt x="455" y="407" on="1"/>
        <pt x="455" y="610" on="1"/>
        <pt x="220" y="610" on="1"/>
        <pt x="220" y="-200" on="1"/>
        <pt x="120" y="-200" on="1"/>
        <pt x="120" y="317" on="1"/>
      </contour>
    </TTGlyph>
    <TTGlyph name="grave" xMin="185" yMin="590" xMax="409" yMax="718">
      <contour>
        <pt x="315" y="718" on="1"/>
        <pt x="409" y="590" on="1"/>
        <pt x="329" y="590" on="1"/>
        <pt x="185" y="718" on="1"/>
      </contour>
    </TTGlyph>
    <TTGlyph name="grave.cap" xMin="185" yMin="790" xMax="409" yMax="918">
      <contour>
        <pt x="315" y="918" on="1"/>
        <pt x="409" y="790" on="1"/>
        <pt x="329" y="790" on="1"/>
        <pt x="185" y="918" on="1"/>
      </contour>
    </TTGlyph>
    <TTGlyph name="greater" xMin="90" yMin="-1" xMax="590" yMax="501">
      <contour>
        <pt x="90" y="407" on="1"/>
        <pt x="90" y="501" on="1"/>
        <pt x="590" y="301" on="1"/>
        <pt x="590" y="199" on="1"/>
        <pt x="90" y="-1" on="1"/>
        <pt x="90" y="93" on="1"/>
        <pt x="493" y="249" on="1"/>
        <pt x="493" y="251" on="1"/>
      </contour>
    </TTGlyph>
    <TTGlyph name="greaterequal" xMin="90" yMin="0" xMax="590" yMax="501">
      <contour>
        <pt x="90" y="410" on="1"/>
        <pt x="90" y="501" on="1"/>
        <pt x="590" y="371" on="1"/>
        <pt x="590" y="269" on="1"/>
        <pt x="90" y="139" on="1"/>
        <pt x="90" y="230" on="1"/>
        <pt x="454" y="319" on="1"/>
        <pt x="454" y="321" on="1"/>
      </contour>
      <contour>
        <pt x="90" y="0" on="1"/>
        <pt x="90" y="94" on="1"/>
        <pt x="590" y="94" on="1"/>
        <pt x="590" y="0" on="1"/>
      </contour>
    </TTGlyph>
    <TTGlyph name="guillemotleft" xMin="90" yMin="0" xMax="590" yMax="502">
      <contour>
        <pt x="340" y="107" on="1"/>
        <pt x="340" y="0" on="1"/>
        <pt x="90" y="200" on="1"/>
        <pt x="90" y="302" on="1"/>
        <pt x="340" y="502" on="1"/>
        <pt x="340" y="395" on="1"/>
        <pt x="157" y="252" on="1"/>
        <pt x="157" y="251" on="1"/>
      </contour>
      <contour>
        <pt x="590" y="107" on="1"/>
        <pt x="590" y="0" on="1"/>
        <pt x="340" y="200" on="1"/>
        <pt x="340" y="302" on="1"/>
        <pt x="590" y="502" on="1"/>
        <pt x="590" y="395" on="1"/>
        <pt x="407" y="252" on="1"/>
        <pt x="407" y="251" on="1"/>
      </contour>
    </TTGlyph>
    <TTGlyph name="guillemotright" xMin="90" yMin="0" xMax="590" yMax="502">
      <contour>
        <pt x="340" y="0" on="1"/>
        <pt x="340" y="107" on="1"/>
        <pt x="523" y="251" on="1"/>
        <pt x="523" y="252" on="1"/>
        <pt x="340" y="395" on="1"/>
        <pt x="340" y="502" on="1"/>
        <pt x="590" y="302" on="1"/>
        <pt x="590" y="200" on="1"/>
      </contour>
      <contour>
        <pt x="90" y="0" on="1"/>
        <pt x="90" y="107" on="1"/>
        <pt x="273" y="251" on="1"/>
        <pt x="273" y="252" on="1"/>
        <pt x="90" y="395" on="1"/>
        <pt x="90" y="502" on="1"/>
        <pt x="340" y="302" on="1"/>
        <pt x="340" y="200" on="1"/>
      </contour>
    </TTGlyph>
    <TTGlyph name="guilsinglleft" xMin="90" yMin="0" xMax="340" yMax="502">
      <contour>
        <pt x="340" y="107" on="1"/>
        <pt x="340" y="0" on="1"/>
        <pt x="90" y="200" on="1"/>
        <pt x="90" y="302" on="1"/>
        <pt x="340" y="502" on="1"/>
        <pt x="340" y="395" on="1"/>
        <pt x="157" y="252" on="1"/>
        <pt x="157" y="251" on="1"/>
      </contour>
    </TTGlyph>
    <TTGlyph name="guilsinglright" xMin="90" yMin="0" xMax="340" yMax="502">
      <contour>
        <pt x="90" y="0" on="1"/>
        <pt x="90" y="107" on="1"/>
        <pt x="273" y="251" on="1"/>
        <pt x="273" y="252" on="1"/>
        <pt x="90" y="395" on="1"/>
        <pt x="90" y="502" on="1"/>
        <pt x="340" y="302" on="1"/>
        <pt x="340" y="200" on="1"/>
      </contour>
    </TTGlyph>
    <TTGlyph name="h" xMin="80" yMin="0" xMax="515" yMax="730">
      <contour>
        <pt x="177" y="0" on="1"/>
        <pt x="80" y="0" on="1"/>
        <pt x="80" y="730" on="1"/>
        <pt x="177" y="730" on="1"/>
        <pt x="177" y="464" on="1"/>
        <pt x="248" y="505" on="1"/>
        <pt x="399" y="505" on="1"/>
        <pt x="515" y="438" on="1"/>
        <pt x="515" y="0" on="1"/>
        <pt x="418" y="0" on="1"/>
        <pt x="418" y="418" on="1"/>
        <pt x="177" y="418" on="1"/>
      </contour>
    </TTGlyph>
    <TTGlyph name="hbar" xMin="10" yMin="0" xMax="515" yMax="730">
      <contour>
        <pt x="177" y="0" on="1"/>
        <pt x="80" y="0" on="1"/>
        <pt x="80" y="585" on="1"/>
        <pt x="10" y="585" on="1"/>
        <pt x="10" y="659" on="1"/>
        <pt x="80" y="659" on="1"/>
        <pt x="80" y="730" on="1"/>
        <pt x="177" y="730" on="1"/>
        <pt x="177" y="659" on="1"/>
        <pt x="326" y="659" on="1"/>
        <pt x="326" y="585" on="1"/>
        <pt x="177" y="585" on="1"/>
        <pt x="177" y="464" on="1"/>
        <pt x="248" y="505" on="1"/>
        <pt x="399" y="505" on="1"/>
        <pt x="515" y="438" on="1"/>
        <pt x="515" y="0" on="1"/>
        <pt x="418" y="0" on="1"/>
        <pt x="418" y="418" on="1"/>
        <pt x="177" y="418" on="1"/>
      </contour>
    </TTGlyph>
    <TTGlyph name="hungarumlaut" xMin="66" yMin="590" xMax="469" yMax="718">
      <contour>
        <pt x="245" y="590" on="1"/>
        <pt x="339" y="718" on="1"/>
        <pt x="469" y="718" on="1"/>
        <pt x="325" y="590" on="1"/>
      </contour>
      <contour>
        <pt x="66" y="590" on="1"/>
        <pt x="160" y="718" on="1"/>
        <pt x="290" y="718" on="1"/>
        <pt x="146" y="590" on="1"/>
      </contour>
    </TTGlyph>
    <TTGlyph name="hyphen" xMin="70" yMin="218" xMax="368" yMax="305">
      <contour>
        <pt x="70" y="218" on="1"/>
        <pt x="70" y="305" on="1"/>
        <pt x="368" y="305" on="1"/>
        <pt x="368" y="218" on="1"/>
      </contour>
    </TTGlyph>
    <TTGlyph name="i" xMin="75" yMin="0" xMax="182" yMax="730">
      <contour>
        <pt x="177" y="500" on="1"/>
        <pt x="177" y="0" on="1"/>
        <pt x="80" y="0" on="1"/>
        <pt x="80" y="500" on="1"/>
      </contour>
      <contour>
        <pt x="75" y="623" on="1"/>
        <pt x="75" y="730" on="1"/>
        <pt x="182" y="730" on="1"/>
        <pt x="182" y="623" on="1"/>
      </contour>
    </TTGlyph>
    <TTGlyph name="iacute" xMin="60" yMin="0" xMax="284" yMax="718">
      <contour>
        <pt x="177" y="500" on="1"/>
        <pt x="177" y="0" on="1"/>
        <pt x="80" y="0" on="1"/>
        <pt x="80" y="500" on="1"/>
      </contour>
      <contour>
        <pt x="60" y="590" on="1"/>
        <pt x="154" y="718" on="1"/>
        <pt x="284" y="718" on="1"/>
        <pt x="140" y="590" on="1"/>
      </contour>
    </TTGlyph>
    <TTGlyph name="icircumflex" xMin="-27" yMin="0" xMax="284" yMax="728">
      <contour>
        <pt x="177" y="500" on="1"/>
        <pt x="177" y="0" on="1"/>
        <pt x="80" y="0" on="1"/>
        <pt x="80" y="500" on="1"/>
      </contour>
      <contour>
        <pt x="73" y="728" on="1"/>
        <pt x="183" y="728" on="1"/>
        <pt x="284" y="590" on="1"/>
        <pt x="209" y="590" on="1"/>
        <pt x="128" y="670" on="1"/>
        <pt x="48" y="590" on="1"/>
        <pt x="-27" y="590" on="1"/>
      </contour>
    </TTGlyph>
    <TTGlyph name="idieresis" xMin="-33" yMin="0" xMax="291" yMax="700">
      <contour>
        <pt x="177" y="500" on="1"/>
        <pt x="177" y="0" on="1"/>
        <pt x="80" y="0" on="1"/>
        <pt x="80" y="500" on="1"/>
      </contour>
      <contour>
        <pt x="-33" y="595" on="1"/>
        <pt x="-33" y="700" on="1"/>
        <pt x="72" y="700" on="1"/>
        <pt x="72" y="595" on="1"/>
      </contour>
      <contour>
        <pt x="186" y="595" on="1"/>
        <pt x="186" y="700" on="1"/>
        <pt x="291" y="700" on="1"/>
        <pt x="291" y="595" on="1"/>
      </contour>
    </TTGlyph>
    <TTGlyph name="igrave" xMin="-27" yMin="0" xMax="197" yMax="718">
      <contour>
        <pt x="177" y="500" on="1"/>
        <pt x="177" y="0" on="1"/>
        <pt x="80" y="0" on="1"/>
        <pt x="80" y="500" on="1"/>
      </contour>
      <contour>
        <pt x="103" y="718" on="1"/>
        <pt x="197" y="590" on="1"/>
        <pt x="117" y="590" on="1"/>
        <pt x="-27" y="718" on="1"/>
      </contour>
    </TTGlyph>
    <TTGlyph name="ij" xMin="75" yMin="-200" xMax="439" yMax="730">
      <contour>
        <pt x="177" y="500" on="1"/>
        <pt x="177" y="0" on="1"/>
        <pt x="80" y="0" on="1"/>
        <pt x="80" y="500" on="1"/>
      </contour>
      <contour>
        <pt x="75" y="623" on="1"/>
        <pt x="75" y="730" on="1"/>
        <pt x="182" y="730" on="1"/>
        <pt x="182" y="623" on="1"/>
      </contour>
      <contour>
        <pt x="332" y="623" on="1"/>
        <pt x="332" y="730" on="1"/>
        <pt x="439" y="730" on="1"/>
        <pt x="439" y="623" on="1"/>
      </contour>
      <contour>
        <pt x="434" y="500" on="1"/>
        <pt x="434" y="-133" on="1"/>
        <pt x="318" y="-200" on="1"/>
        <pt x="217" y="-200" on="1"/>
        <pt x="217" y="-113" on="1"/>
        <pt x="337" y="-113" on="1"/>
        <pt x="337" y="500" on="1"/>
      </contour>
    </TTGlyph>
    <TTGlyph name="infinity" xMin="90" yMin="103" xMax="800" yMax="518">
      <contour>
        <pt x="190" y="428" on="1"/>
        <pt x="190" y="193" on="1"/>
        <pt x="395" y="193" on="1"/>
        <pt x="395" y="428" on="1"/>
      </contour>
      <contour>
        <pt x="495" y="428" on="1"/>
        <pt x="495" y="193" on="1"/>
        <pt x="700" y="193" on="1"/>
        <pt x="700" y="428" on="1"/>
      </contour>
      <contour>
        <pt x="800" y="170" on="1"/>
        <pt x="684" y="103" on="1"/>
        <pt x="561" y="103" on="1"/>
        <pt x="445" y="170" on="1"/>
        <pt x="329" y="103" on="1"/>
        <pt x="206" y="103" on="1"/>
        <pt x="90" y="170" on="1"/>
        <pt x="90" y="451" on="1"/>
        <pt x="206" y="518" on="1"/>
        <pt x="329" y="518" on="1"/>
        <pt x="445" y="451" on="1"/>
        <pt x="561" y="518" on="1"/>
        <pt x="684" y="518" on="1"/>
        <pt x="800" y="451" on="1"/>
      </contour>
    </TTGlyph>
    <TTGlyph name="itilde" xMin="-24" yMin="0" xMax="282" yMax="734">
      <contour>
        <pt x="177" y="500" on="1"/>
        <pt x="177" y="0" on="1"/>
        <pt x="80" y="0" on="1"/>
        <pt x="80" y="500" on="1"/>
      </contour>
      <contour>
        <pt x="46" y="667" on="1"/>
        <pt x="44" y="667" on="1"/>
        <pt x="44" y="585" on="1"/>
        <pt x="-24" y="585" on="1"/>
        <pt x="-24" y="679" on="1"/>
        <pt x="70" y="734" on="1"/>
        <pt x="212" y="652" on="1"/>
        <pt x="214" y="652" on="1"/>
        <pt x="214" y="734" on="1"/>
        <pt x="282" y="734" on="1"/>
        <pt x="282" y="640" on="1"/>
        <pt x="188" y="585" on="1"/>
      </contour>
    </TTGlyph>
    <TTGlyph name="j" xMin="-40" yMin="-200" xMax="182" yMax="730">
      <contour>
        <pt x="75" y="623" on="1"/>
        <pt x="75" y="730" on="1"/>
        <pt x="182" y="730" on="1"/>
        <pt x="182" y="623" on="1"/>
      </contour>
      <contour>
        <pt x="177" y="500" on="1"/>
        <pt x="177" y="-133" on="1"/>
        <pt x="61" y="-200" on="1"/>
        <pt x="-40" y="-200" on="1"/>
        <pt x="-40" y="-113" on="1"/>
        <pt x="80" y="-113" on="1"/>
        <pt x="80" y="500" on="1"/>
      </contour>
    </TTGlyph>
    <TTGlyph name="jcircumflex" xMin="-40" yMin="-200" xMax="284" yMax="728">
      <contour>
        <pt x="177" y="500" on="1"/>
        <pt x="177" y="-133" on="1"/>
        <pt x="61" y="-200" on="1"/>
        <pt x="-40" y="-200" on="1"/>
        <pt x="-40" y="-113" on="1"/>
        <pt x="80" y="-113" on="1"/>
        <pt x="80" y="500" on="1"/>
      </contour>
      <contour>
        <pt x="73" y="728" on="1"/>
        <pt x="183" y="728" on="1"/>
        <pt x="284" y="590" on="1"/>
        <pt x="209" y="590" on="1"/>
        <pt x="128" y="670" on="1"/>
        <pt x="48" y="590" on="1"/>
        <pt x="-27" y="590" on="1"/>
      </contour>
    </TTGlyph>
    <TTGlyph name="k" xMin="80" yMin="0" xMax="531" yMax="730">
      <contour>
        <pt x="177" y="730" on="1"/>
        <pt x="177" y="251" on="1"/>
        <pt x="179" y="251" on="1"/>
        <pt x="385" y="500" on="1"/>
        <pt x="501" y="500" on="1"/>
        <pt x="308" y="274" on="1"/>
        <pt x="531" y="0" on="1"/>
        <pt x="412" y="0" on="1"/>
        <pt x="250" y="205" on="1"/>
        <pt x="177" y="119" on="1"/>
        <pt x="177" y="0" on="1"/>
        <pt x="80" y="0" on="1"/>
        <pt x="80" y="730" on="1"/>
      </contour>
    </TTGlyph>
    <TTGlyph name="kcommaaccent" xMin="80" yMin="-335" xMax="531" yMax="730">
      <contour>
        <pt x="177" y="730" on="1"/>
        <pt x="177" y="251" on="1"/>
        <pt x="179" y="251" on="1"/>
        <pt x="385" y="500" on="1"/>
        <pt x="501" y="500" on="1"/>
        <pt x="308" y="274" on="1"/>
        <pt x="531" y="0" on="1"/>
        <pt x="412" y="0" on="1"/>
        <pt x="250" y="205" on="1"/>
        <pt x="177" y="119" on="1"/>
        <pt x="177" y="0" on="1"/>
        <pt x="80" y="0" on="1"/>
        <pt x="80" y="730" on="1"/>
      </contour>
      <contour>
        <pt x="230" y="-335" on="1"/>
        <pt x="230" y="-55" on="1"/>
        <pt x="350" y="-55" on="1"/>
        <pt x="350" y="-89" on="1"/>
        <pt x="264" y="-335" on="1"/>
      </contour>
    </TTGlyph>
    <TTGlyph name="kgreenlandic" xMin="80" yMin="0" xMax="531" yMax="500">
      <contour>
        <pt x="177" y="500" on="1"/>
        <pt x="177" y="251" on="1"/>
        <pt x="179" y="251" on="1"/>
        <pt x="385" y="500" on="1"/>
        <pt x="501" y="500" on="1"/>
        <pt x="308" y="274" on="1"/>
        <pt x="531" y="0" on="1"/>
        <pt x="412" y="0" on="1"/>
        <pt x="250" y="205" on="1"/>
        <pt x="177" y="119" on="1"/>
        <pt x="177" y="0" on="1"/>
        <pt x="80" y="0" on="1"/>
        <pt x="80" y="500" on="1"/>
      </contour>
    </TTGlyph>
    <TTGlyph name="l" xMin="80" yMin="0" xMax="297" yMax="730">
      <contour>
        <pt x="196" y="0" on="1"/>
        <pt x="80" y="67" on="1"/>
        <pt x="80" y="730" on="1"/>
        <pt x="177" y="730" on="1"/>
        <pt x="177" y="87" on="1"/>
        <pt x="297" y="87" on="1"/>
        <pt x="297" y="0" on="1"/>
      </contour>
    </TTGlyph>
    <TTGlyph name="l.alt" xMin="80" yMin="0" xMax="177" yMax="730">
      <contour>
        <pt x="177" y="0" on="1"/>
        <pt x="80" y="0" on="1"/>
        <pt x="80" y="730" on="1"/>
        <pt x="177" y="730" on="1"/>
      </contour>
    </TTGlyph>
    <TTGlyph name="ldot" xMin="80" yMin="0" xMax="384" yMax="730">
      <contour>
        <pt x="196" y="0" on="1"/>
        <pt x="80" y="67" on="1"/>
        <pt x="80" y="730" on="1"/>
        <pt x="177" y="730" on="1"/>
        <pt x="177" y="87" on="1"/>
        <pt x="297" y="87" on="1"/>
        <pt x="297" y="0" on="1"/>
      </contour>
      <contour>
        <pt x="264" y="239" on="1"/>
        <pt x="264" y="359" on="1"/>
        <pt x="384" y="359" on="1"/>
        <pt x="384" y="239" on="1"/>
      </contour>
    </TTGlyph>
    <TTGlyph name="less" xMin="60" yMin="-1" xMax="560" yMax="501">
      <contour>
        <pt x="560" y="501" on="1"/>
        <pt x="560" y="407" on="1"/>
        <pt x="157" y="251" on="1"/>
        <pt x="157" y="249" on="1"/>
        <pt x="560" y="93" on="1"/>
        <pt x="560" y="-1" on="1"/>
        <pt x="60" y="199" on="1"/>
        <pt x="60" y="301" on="1"/>
      </contour>
    </TTGlyph>
    <TTGlyph name="lessequal" xMin="90" yMin="0" xMax="590" yMax="501">
      <contour>
        <pt x="590" y="501" on="1"/>
        <pt x="590" y="410" on="1"/>
        <pt x="226" y="321" on="1"/>
        <pt x="226" y="319" on="1"/>
        <pt x="590" y="230" on="1"/>
        <pt x="590" y="139" on="1"/>
        <pt x="90" y="269" on="1"/>
        <pt x="90" y="371" on="1"/>
      </contour>
      <contour>
        <pt x="590" y="94" on="1"/>
        <pt x="590" y="0" on="1"/>
        <pt x="90" y="0" on="1"/>
        <pt x="90" y="94" on="1"/>
      </contour>
    </TTGlyph>
    <TTGlyph name="lslash" xMin="20" yMin="0" xMax="297" yMax="730">
      <contour>
        <pt x="20" y="291" on="1"/>
        <pt x="20" y="365" on="1"/>
        <pt x="80" y="381" on="1"/>
        <pt x="80" y="730" on="1"/>
        <pt x="177" y="730" on="1"/>
        <pt x="177" y="408" on="1"/>
        <pt x="277" y="435" on="1"/>
        <pt x="277" y="361" on="1"/>
        <pt x="177" y="334" on="1"/>
        <pt x="177" y="87" on="1"/>
        <pt x="297" y="87" on="1"/>
        <pt x="297" y="0" on="1"/>
        <pt x="196" y="0" on="1"/>
        <pt x="80" y="67" on="1"/>
        <pt x="80" y="307" on="1"/>
      </contour>
    </TTGlyph>
    <TTGlyph name="m" xMin="80" yMin="0" xMax="753" yMax="505">
      <contour>
        <pt x="753" y="438" on="1"/>
        <pt x="753" y="0" on="1"/>
        <pt x="656" y="0" on="1"/>
        <pt x="656" y="418" on="1"/>
        <pt x="465" y="418" on="1"/>
        <pt x="465" y="0" on="1"/>
        <pt x="368" y="0" on="1"/>
        <pt x="368" y="418" on="1"/>
        <pt x="177" y="418" on="1"/>
        <pt x="177" y="0" on="1"/>
        <pt x="80" y="0" on="1"/>
        <pt x="80" y="505" on="1"/>
        <pt x="153" y="505" on="1"/>
        <pt x="177" y="464" on="1"/>
        <pt x="248" y="505" on="1"/>
        <pt x="349" y="505" on="1"/>
        <pt x="442" y="451" on="1"/>
        <pt x="536" y="505" on="1"/>
        <pt x="637" y="505" on="1"/>
      </contour>
    </TTGlyph>
    <TTGlyph name="macron" xMin="144" yMin="600" xMax="455" yMax="667">
      <contour>
        <pt x="144" y="600" on="1"/>
        <pt x="144" y="667" on="1"/>
        <pt x="455" y="667" on="1"/>
        <pt x="455" y="600" on="1"/>
      </contour>
    </TTGlyph>
    <TTGlyph name="madslug" xMin="80" yMin="-9" xMax="816" yMax="730">
      <contour>
        <pt x="650" y="51" on="1"/>
        <pt x="554" y="-9" on="0"/>
        <pt x="447" y="-9" on="1"/>
        <pt x="295" y="-9" on="0"/>
        <pt x="80" y="207" on="0"/>
        <pt x="80" y="361" on="1"/>
        <pt x="80" y="458" on="0"/>
        <pt x="167" y="611" on="0"/>
        <pt x="263" y="611" on="0"/>
        <pt x="263" y="560" on="1"/>
        <pt x="263" y="527" on="0"/>
        <pt x="204" y="267" on="0"/>
        <pt x="204" y="265" on="1"/>
        <pt x="204" y="254" on="0"/>
        <pt x="240" y="254" on="0"/>
        <pt x="317" y="272" on="0"/>
        <pt x="321" y="280" on="1"/>
        <pt x="321" y="282" on="0"/>
        <pt x="351" y="414" on="0"/>
        <pt x="360" y="456" on="1"/>
        <pt x="380" y="557" on="0"/>
        <pt x="380" y="628" on="0"/>
        <pt x="316" y="669" on="0"/>
        <pt x="267" y="669" on="1"/>
        <pt x="248" y="667" on="1"/>
        <pt x="246" y="670" on="1"/>
        <pt x="340" y="730" on="0"/>
        <pt x="447" y="730" on="1"/>
        <pt x="601" y="730" on="0"/>
        <pt x="816" y="514" on="0"/>
        <pt x="816" y="360" on="1"/>
        <pt x="816" y="263" on="0"/>
        <pt x="729" y="110" on="0"/>
        <pt x="633" y="110" on="0"/>
        <pt x="633" y="161" on="1"/>
        <pt x="633" y="194" on="0"/>
        <pt x="692" y="454" on="0"/>
        <pt x="692" y="455" on="1"/>
        <pt x="692" y="467" on="0"/>
        <pt x="656" y="467" on="0"/>
        <pt x="579" y="449" on="0"/>
        <pt x="575" y="441" on="1"/>
        <pt x="575" y="439" on="0"/>
        <pt x="545" y="307" on="0"/>
        <pt x="536" y="265" on="1"/>
        <pt x="516" y="164" on="0"/>
        <pt x="516" y="93" on="0"/>
        <pt x="580" y="52" on="0"/>
        <pt x="629" y="52" on="1"/>
        <pt x="648" y="53" on="1"/>
      </contour>
      <contour>
        <pt x="476" y="234" on="1"/>
        <pt x="489" y="287" on="0"/>
        <pt x="533" y="494" on="0"/>
        <pt x="533" y="511" on="0"/>
        <pt x="498" y="511" on="0"/>
        <pt x="433" y="497" on="0"/>
        <pt x="420" y="487" on="1"/>
        <pt x="407" y="434" on="0"/>
        <pt x="363" y="227" on="0"/>
        <pt x="363" y="209" on="0"/>
        <pt x="397" y="209" on="0"/>
        <pt x="463" y="224" on="0"/>
      </contour>
    </TTGlyph>
    <TTGlyph name="minus" xMin="50" yMin="203" xMax="550" yMax="297">
      <contour>
        <pt x="550" y="297" on="1"/>
        <pt x="550" y="203" on="1"/>
        <pt x="50" y="203" on="1"/>
        <pt x="50" y="297" on="1"/>
      </contour>
    </TTGlyph>
    <TTGlyph name="mu" xMin="80" yMin="-158" xMax="592" yMax="500">
      <contour>
        <pt x="432" y="0" on="1"/>
        <pt x="408" y="41" on="1"/>
        <pt x="337" y="0" on="1"/>
        <pt x="177" y="0" on="1"/>
        <pt x="177" y="-158" on="1"/>
        <pt x="80" y="-158" on="1"/>
        <pt x="80" y="500" on="1"/>
        <pt x="177" y="500" on="1"/>
        <pt x="177" y="87" on="1"/>
        <pt x="408" y="87" on="1"/>
        <pt x="408" y="500" on="1"/>
        <pt x="505" y="500" on="1"/>
        <pt x="505" y="87" on="1"/>
        <pt x="592" y="87" on="1"/>
        <pt x="592" y="0" on="1"/>
      </contour>
    </TTGlyph>
    <TTGlyph name="multiply" xMin="60" yMin="5" xMax="550" yMax="495">
      <contour>
        <pt x="126" y="495" on="1"/>
        <pt x="305" y="316" on="1"/>
        <pt x="484" y="495" on="1"/>
        <pt x="550" y="429" on="1"/>
        <pt x="371" y="250" on="1"/>
        <pt x="550" y="71" on="1"/>
        <pt x="484" y="5" on="1"/>
        <pt x="305" y="184" on="1"/>
        <pt x="126" y="5" on="1"/>
        <pt x="60" y="71" on="1"/>
        <pt x="239" y="250" on="1"/>
        <pt x="60" y="429" on="1"/>
      </contour>
    </TTGlyph>
    <TTGlyph name="n" xMin="80" yMin="0" xMax="505" yMax="505">
      <contour>
        <pt x="505" y="438" on="1"/>
        <pt x="505" y="0" on="1"/>
        <pt x="408" y="0" on="1"/>
        <pt x="408" y="418" on="1"/>
        <pt x="177" y="418" on="1"/>
        <pt x="177" y="0" on="1"/>
        <pt x="80" y="0" on="1"/>
        <pt x="80" y="505" on="1"/>
        <pt x="153" y="505" on="1"/>
        <pt x="177" y="464" on="1"/>
        <pt x="248" y="505" on="1"/>
        <pt x="389" y="505" on="1"/>
      </contour>
    </TTGlyph>
    <TTGlyph name="nacute" xMin="80" yMin="0" xMax="505" yMax="718">
      <contour>
        <pt x="505" y="438" on="1"/>
        <pt x="505" y="0" on="1"/>
        <pt x="408" y="0" on="1"/>
        <pt x="408" y="418" on="1"/>
        <pt x="177" y="418" on="1"/>
        <pt x="177" y="0" on="1"/>
        <pt x="80" y="0" on="1"/>
        <pt x="80" y="505" on="1"/>
        <pt x="153" y="505" on="1"/>
        <pt x="177" y="464" on="1"/>
        <pt x="248" y="505" on="1"/>
        <pt x="389" y="505" on="1"/>
      </contour>
      <contour>
        <pt x="201" y="590" on="1"/>
        <pt x="295" y="718" on="1"/>
        <pt x="425" y="718" on="1"/>
        <pt x="281" y="590" on="1"/>
      </contour>
    </TTGlyph>
    <TTGlyph name="nine" xMin="90" yMin="-5" xMax="545" yMax="705">
      <contour>
        <pt x="445" y="85" on="1"/>
        <pt x="445" y="331" on="1"/>
        <pt x="374" y="290" on="1"/>
        <pt x="206" y="290" on="1"/>
        <pt x="90" y="357" on="1"/>
        <pt x="90" y="638" on="1"/>
        <pt x="206" y="705" on="1"/>
        <pt x="429" y="705" on="1"/>
        <pt x="545" y="638" on="1"/>
        <pt x="545" y="62" on="1"/>
        <pt x="429" y="-5" on="1"/>
        <pt x="206" y="-5" on="1"/>
        <pt x="90" y="62" on="1"/>
        <pt x="90" y="175" on="1"/>
        <pt x="190" y="175" on="1"/>
        <pt x="190" y="85" on="1"/>
      </contour>
      <contour>
        <pt x="445" y="380" on="1"/>
        <pt x="445" y="615" on="1"/>
        <pt x="190" y="615" on="1"/>
        <pt x="190" y="380" on="1"/>
      </contour>
    </TTGlyph>
    <TTGlyph name="notequal" xMin="90" yMin="-11" xMax="590" yMax="511">
      <contour>
        <pt x="590" y="411" on="1"/>
        <pt x="590" y="317" on="1"/>
        <pt x="437" y="317" on="1"/>
        <pt x="332" y="183" on="1"/>
        <pt x="590" y="183" on="1"/>
        <pt x="590" y="89" on="1"/>
        <pt x="258" y="89" on="1"/>
        <pt x="180" y="-11" on="1"/>
        <pt x="90" y="-11" on="1"/>
        <pt x="168" y="89" on="1"/>
        <pt x="90" y="89" on="1"/>
        <pt x="90" y="183" on="1"/>
        <pt x="242" y="183" on="1"/>
        <pt x="347" y="317" on="1"/>
        <pt x="90" y="317" on="1"/>
        <pt x="90" y="411" on="1"/>
        <pt x="421" y="411" on="1"/>
        <pt x="500" y="511" on="1"/>
        <pt x="590" y="511" on="1"/>
        <pt x="511" y="411" on="1"/>
      </contour>
    </TTGlyph>
    <TTGlyph name="ntilde" xMin="80" yMin="0" xMax="505" yMax="734">
      <contour>
        <pt x="505" y="438" on="1"/>
        <pt x="505" y="0" on="1"/>
        <pt x="408" y="0" on="1"/>
        <pt x="408" y="418" on="1"/>
        <pt x="177" y="418" on="1"/>
        <pt x="177" y="0" on="1"/>
        <pt x="80" y="0" on="1"/>
        <pt x="80" y="505" on="1"/>
        <pt x="153" y="505" on="1"/>
        <pt x="177" y="464" on="1"/>
        <pt x="248" y="505" on="1"/>
        <pt x="389" y="505" on="1"/>
      </contour>
      <contour>
        <pt x="209" y="667" on="1"/>
        <pt x="207" y="667" on="1"/>
        <pt x="207" y="585" on="1"/>
        <pt x="139" y="585" on="1"/>
        <pt x="139" y="679" on="1"/>
        <pt x="233" y="734" on="1"/>
        <pt x="375" y="652" on="1"/>
        <pt x="377" y="652" on="1"/>
        <pt x="377" y="734" on="1"/>
        <pt x="445" y="734" on="1"/>
        <pt x="445" y="640" on="1"/>
        <pt x="351" y="585" on="1"/>
      </contour>
    </TTGlyph>
    <TTGlyph name="numbersign" xMin="60" yMin="-20" xMax="696" yMax="720">
      <contour>
        <pt x="426" y="-20" on="1"/>
        <pt x="443" y="172" on="1"/>
        <pt x="267" y="172" on="1"/>
        <pt x="250" y="-20" on="1"/>
        <pt x="167" y="-20" on="1"/>
        <pt x="184" y="172" on="1"/>
        <pt x="60" y="172" on="1"/>
        <pt x="60" y="248" on="1"/>
        <pt x="191" y="248" on="1"/>
        <pt x="210" y="460" on="1"/>
        <pt x="60" y="460" on="1"/>
        <pt x="60" y="536" on="1"/>
        <pt x="217" y="536" on="1"/>
        <pt x="234" y="720" on="1"/>
        <pt x="317" y="720" on="1"/>
        <pt x="300" y="536" on="1"/>
        <pt x="476" y="536" on="1"/>
        <pt x="493" y="720" on="1"/>
        <pt x="576" y="720" on="1"/>
        <pt x="559" y="536" on="1"/>
        <pt x="696" y="536" on="1"/>
        <pt x="696" y="460" on="1"/>
        <pt x="552" y="460" on="1"/>
        <pt x="533" y="248" on="1"/>
        <pt x="696" y="248" on="1"/>
        <pt x="696" y="172" on="1"/>
        <pt x="526" y="172" on="1"/>
        <pt x="509" y="-20" on="1"/>
      </contour>
      <contour>
        <pt x="293" y="460" on="1"/>
        <pt x="274" y="248" on="1"/>
        <pt x="450" y="248" on="1"/>
        <pt x="469" y="460" on="1"/>
      </contour>
    </TTGlyph>
    <TTGlyph name="o" xMin="80" yMin="-5" xMax="505" yMax="505">
      <contour>
        <pt x="505" y="62" on="1"/>
        <pt x="389" y="-5" on="1"/>
        <pt x="196" y="-5" on="1"/>
        <pt x="80" y="62" on="1"/>
        <pt x="80" y="438" on="1"/>
        <pt x="196" y="505" on="1"/>
        <pt x="389" y="505" on="1"/>
        <pt x="505" y="438" on="1"/>
      </contour>
      <contour>
        <pt x="177" y="418" on="1"/>
        <pt x="177" y="82" on="1"/>
        <pt x="408" y="82" on="1"/>
        <pt x="408" y="418" on="1"/>
      </contour>
    </TTGlyph>
    <TTGlyph name="oacute" xMin="80" yMin="-5" xMax="505" yMax="718">
      <contour>
        <pt x="505" y="62" on="1"/>
        <pt x="389" y="-5" on="1"/>
        <pt x="196" y="-5" on="1"/>
        <pt x="80" y="62" on="1"/>
        <pt x="80" y="438" on="1"/>
        <pt x="196" y="505" on="1"/>
        <pt x="389" y="505" on="1"/>
        <pt x="505" y="438" on="1"/>
      </contour>
      <contour>
        <pt x="177" y="418" on="1"/>
        <pt x="177" y="82" on="1"/>
        <pt x="408" y="82" on="1"/>
        <pt x="408" y="418" on="1"/>
      </contour>
      <contour>
        <pt x="218" y="590" on="1"/>
        <pt x="312" y="718" on="1"/>
        <pt x="442" y="718" on="1"/>
        <pt x="298" y="590" on="1"/>
      </contour>
    </TTGlyph>
    <TTGlyph name="ocircumflex" xMin="80" yMin="-5" xMax="505" yMax="728">
      <contour>
        <pt x="505" y="62" on="1"/>
        <pt x="389" y="-5" on="1"/>
        <pt x="196" y="-5" on="1"/>
        <pt x="80" y="62" on="1"/>
        <pt x="80" y="438" on="1"/>
        <pt x="196" y="505" on="1"/>
        <pt x="389" y="505" on="1"/>
        <pt x="505" y="438" on="1"/>
      </contour>
      <contour>
        <pt x="177" y="418" on="1"/>
        <pt x="177" y="82" on="1"/>
        <pt x="408" y="82" on="1"/>
        <pt x="408" y="418" on="1"/>
      </contour>
      <contour>
        <pt x="240" y="728" on="1"/>
        <pt x="350" y="728" on="1"/>
        <pt x="451" y="590" on="1"/>
        <pt x="376" y="590" on="1"/>
        <pt x="295" y="670" on="1"/>
        <pt x="215" y="590" on="1"/>
        <pt x="140" y="590" on="1"/>
      </contour>
    </TTGlyph>
    <TTGlyph name="odieresis" xMin="80" yMin="-5" xMax="505" yMax="700">
      <contour>
        <pt x="505" y="62" on="1"/>
        <pt x="389" y="-5" on="1"/>
        <pt x="196" y="-5" on="1"/>
        <pt x="80" y="62" on="1"/>
        <pt x="80" y="438" on="1"/>
        <pt x="196" y="505" on="1"/>
        <pt x="389" y="505" on="1"/>
        <pt x="505" y="438" on="1"/>
      </contour>
      <contour>
        <pt x="177" y="418" on="1"/>
        <pt x="177" y="82" on="1"/>
        <pt x="408" y="82" on="1"/>
        <pt x="408" y="418" on="1"/>
      </contour>
      <contour>
        <pt x="131" y="595" on="1"/>
        <pt x="131" y="700" on="1"/>
        <pt x="236" y="700" on="1"/>
        <pt x="236" y="595" on="1"/>
      </contour>
      <contour>
        <pt x="350" y="595" on="1"/>
        <pt x="350" y="700" on="1"/>
        <pt x="455" y="700" on="1"/>
        <pt x="455" y="595" on="1"/>
      </contour>
    </TTGlyph>
    <TTGlyph name="oe" xMin="80" yMin="-5" xMax="803" yMax="505">
      <contour>
        <pt x="803" y="87" on="1"/>
        <pt x="803" y="0" on="1"/>
        <pt x="524" y="0" on="1"/>
        <pt x="461" y="36" on="1"/>
        <pt x="389" y="-5" on="1"/>
        <pt x="196" y="-5" on="1"/>
        <pt x="80" y="62" on="1"/>
        <pt x="80" y="438" on="1"/>
        <pt x="196" y="505" on="1"/>
        <pt x="389" y="505" on="1"/>
        <pt x="456" y="466" on="1"/>
        <pt x="524" y="505" on="1"/>
        <pt x="687" y="505" on="1"/>
        <pt x="803" y="438" on="1"/>
        <pt x="803" y="216" on="1"/>
        <pt x="505" y="216" on="1"/>
        <pt x="505" y="87" on="1"/>
      </contour>
      <contour>
        <pt x="177" y="418" on="1"/>
        <pt x="177" y="82" on="1"/>
        <pt x="408" y="82" on="1"/>
        <pt x="408" y="418" on="1"/>
      </contour>
      <contour>
        <pt x="505" y="418" on="1"/>
        <pt x="505" y="303" on="1"/>
        <pt x="706" y="303" on="1"/>
        <pt x="706" y="418" on="1"/>
      </contour>
    </TTGlyph>
    <TTGlyph name="ogonek" xMin="180" yMin="-198" xMax="340" yMax="0">
      <contour>
        <pt x="247" y="0" on="1"/>
        <pt x="247" y="-131" on="1"/>
        <pt x="340" y="-131" on="1"/>
        <pt x="340" y="-198" on="1"/>
        <pt x="296" y="-198" on="1"/>
        <pt x="180" y="-131" on="1"/>
        <pt x="180" y="0" on="1"/>
      </contour>
    </TTGlyph>
    <TTGlyph name="ograve" xMin="80" yMin="-5" xMax="505" yMax="718">
      <contour>
        <pt x="505" y="62" on="1"/>
        <pt x="389" y="-5" on="1"/>
        <pt x="196" y="-5" on="1"/>
        <pt x="80" y="62" on="1"/>
        <pt x="80" y="438" on="1"/>
        <pt x="196" y="505" on="1"/>
        <pt x="389" y="505" on="1"/>
        <pt x="505" y="438" on="1"/>
      </contour>
      <contour>
        <pt x="177" y="418" on="1"/>
        <pt x="177" y="82" on="1"/>
        <pt x="408" y="82" on="1"/>
        <pt x="408" y="418" on="1"/>
      </contour>
      <contour>
        <pt x="292" y="718" on="1"/>
        <pt x="386" y="590" on="1"/>
        <pt x="306" y="590" on="1"/>
        <pt x="162" y="718" on="1"/>
      </contour>
    </TTGlyph>
    <TTGlyph name="one" xMin="90" yMin="0" xMax="530" yMax="700">
      <contour>
        <pt x="90" y="490" on="1"/>
        <pt x="90" y="591" on="1"/>
        <pt x="280" y="700" on="1"/>
        <pt x="360" y="700" on="1"/>
        <pt x="360" y="90" on="1"/>
        <pt x="530" y="90" on="1"/>
        <pt x="530" y="0" on="1"/>
        <pt x="90" y="0" on="1"/>
        <pt x="90" y="90" on="1"/>
        <pt x="260" y="90" on="1"/>
        <pt x="260" y="588" on="1"/>
      </contour>
    </TTGlyph>
    <TTGlyph name="ordfeminine" xMin="60" yMin="0" xMax="455" yMax="700">
      <contour>
        <pt x="157" y="405" on="1"/>
        <pt x="157" y="282" on="1"/>
        <pt x="358" y="282" on="1"/>
        <pt x="358" y="405" on="1"/>
      </contour>
      <contour>
        <pt x="176" y="195" on="1"/>
        <pt x="60" y="262" on="1"/>
        <pt x="60" y="425" on="1"/>
        <pt x="176" y="492" on="1"/>
        <pt x="358" y="492" on="1"/>
        <pt x="358" y="613" on="1"/>
        <pt x="110" y="613" on="1"/>
        <pt x="110" y="700" on="1"/>
        <pt x="339" y="700" on="1"/>
        <pt x="455" y="633" on="1"/>
        <pt x="455" y="195" on="1"/>
        <pt x="429" y="195" on="1"/>
        <pt x="358" y="236" on="1"/>
        <pt x="287" y="195" on="1"/>
      </contour>
      <contour>
        <pt x="60" y="0" on="1"/>
        <pt x="60" y="87" on="1"/>
        <pt x="455" y="87" on="1"/>
        <pt x="455" y="0" on="1"/>
      </contour>
    </TTGlyph>
    <TTGlyph name="ordmasculine" xMin="90" yMin="0" xMax="515" yMax="705">
      <contour>
        <pt x="515" y="262" on="1"/>
        <pt x="399" y="195" on="1"/>
        <pt x="206" y="195" on="1"/>
        <pt x="90" y="262" on="1"/>
        <pt x="90" y="638" on="1"/>
        <pt x="206" y="705" on="1"/>
        <pt x="399" y="705" on="1"/>
        <pt x="515" y="638" on="1"/>
      </contour>
      <contour>
        <pt x="187" y="618" on="1"/>
        <pt x="187" y="282" on="1"/>
        <pt x="418" y="282" on="1"/>
        <pt x="418" y="618" on="1"/>
      </contour>
      <contour>
        <pt x="90" y="0" on="1"/>
        <pt x="90" y="87" on="1"/>
        <pt x="515" y="87" on="1"/>
        <pt x="515" y="0" on="1"/>
      </contour>
    </TTGlyph>
    <TTGlyph name="oslash" xMin="80" yMin="-5" xMax="505" yMax="505">
      <contour>
        <pt x="505" y="62" on="1"/>
        <pt x="389" y="-5" on="1"/>
        <pt x="196" y="-5" on="1"/>
        <pt x="80" y="62" on="1"/>
        <pt x="80" y="438" on="1"/>
        <pt x="196" y="505" on="1"/>
        <pt x="389" y="505" on="1"/>
        <pt x="505" y="438" on="1"/>
      </contour>
      <contour>
        <pt x="177" y="418" on="1"/>
        <pt x="177" y="140" on="1"/>
        <pt x="368" y="418" on="1"/>
      </contour>
      <contour>
        <pt x="217" y="82" on="1"/>
        <pt x="408" y="82" on="1"/>
        <pt x="408" y="360" on="1"/>
      </contour>
    </TTGlyph>
    <TTGlyph name="otilde" xMin="80" yMin="-5" xMax="505" yMax="734">
      <contour>
        <pt x="505" y="62" on="1"/>
        <pt x="389" y="-5" on="1"/>
        <pt x="196" y="-5" on="1"/>
        <pt x="80" y="62" on="1"/>
        <pt x="80" y="438" on="1"/>
        <pt x="196" y="505" on="1"/>
        <pt x="389" y="505" on="1"/>
        <pt x="505" y="438" on="1"/>
      </contour>
      <contour>
        <pt x="177" y="418" on="1"/>
        <pt x="177" y="82" on="1"/>
        <pt x="408" y="82" on="1"/>
        <pt x="408" y="418" on="1"/>
      </contour>
      <contour>
        <pt x="213" y="667" on="1"/>
        <pt x="211" y="667" on="1"/>
        <pt x="211" y="585" on="1"/>
        <pt x="143" y="585" on="1"/>
        <pt x="143" y="679" on="1"/>
        <pt x="237" y="734" on="1"/>
        <pt x="379" y="652" on="1"/>
        <pt x="381" y="652" on="1"/>
        <pt x="381" y="734" on="1"/>
        <pt x="449" y="734" on="1"/>
        <pt x="449" y="640" on="1"/>
        <pt x="355" y="585" on="1"/>
      </contour>
    </TTGlyph>
    <TTGlyph name="p" xMin="80" yMin="-200" xMax="515" yMax="505">
      <contour>
        <pt x="399" y="-5" on="1"/>
        <pt x="248" y="-5" on="1"/>
        <pt x="177" y="36" on="1"/>
        <pt x="177" y="-200" on="1"/>
        <pt x="80" y="-200" on="1"/>
        <pt x="80" y="505" on="1"/>
        <pt x="153" y="505" on="1"/>
        <pt x="177" y="464" on="1"/>
        <pt x="248" y="505" on="1"/>
        <pt x="399" y="505" on="1"/>
        <pt x="515" y="438" on="1"/>
        <pt x="515" y="62" on="1"/>
      </contour>
      <contour>
        <pt x="177" y="418" on="1"/>
        <pt x="177" y="82" on="1"/>
        <pt x="418" y="82" on="1"/>
        <pt x="418" y="418" on="1"/>
      </contour>
    </TTGlyph>
    <TTGlyph name="paragraph" xMin="60" yMin="-200" xMax="595" yMax="700">
      <contour>
        <pt x="498" y="-200" on="1"/>
        <pt x="498" y="613" on="1"/>
        <pt x="401" y="613" on="1"/>
        <pt x="401" y="-200" on="1"/>
        <pt x="304" y="-200" on="1"/>
        <pt x="304" y="249" on="1"/>
        <pt x="176" y="249" on="1"/>
        <pt x="60" y="316" on="1"/>
        <pt x="60" y="633" on="1"/>
        <pt x="176" y="700" on="1"/>
        <pt x="595" y="700" on="1"/>
        <pt x="595" y="-200" on="1"/>
      </contour>
    </TTGlyph>
    <TTGlyph name="parenleft" xMin="90" yMin="-200" xMax="303" yMax="730">
      <contour>
        <pt x="170" y="660" on="1"/>
        <pt x="170" y="-130" on="1"/>
        <pt x="303" y="-130" on="1"/>
        <pt x="303" y="-200" on="1"/>
        <pt x="206" y="-200" on="1"/>
        <pt x="90" y="-133" on="1"/>
        <pt x="90" y="663" on="1"/>
        <pt x="206" y="730" on="1"/>
        <pt x="303" y="730" on="1"/>
        <pt x="303" y="660" on="1"/>
      </contour>
    </TTGlyph>
    <TTGlyph name="parenright" xMin="60" yMin="-200" xMax="273" yMax="730">
      <contour>
        <pt x="193" y="-130" on="1"/>
        <pt x="193" y="660" on="1"/>
        <pt x="60" y="660" on="1"/>
        <pt x="60" y="730" on="1"/>
        <pt x="157" y="730" on="1"/>
        <pt x="273" y="663" on="1"/>
        <pt x="273" y="-133" on="1"/>
        <pt x="157" y="-200" on="1"/>
        <pt x="60" y="-200" on="1"/>
        <pt x="60" y="-130" on="1"/>
      </contour>
    </TTGlyph>
    <TTGlyph name="partialdiff" xMin="90" yMin="-5" xMax="545" yMax="705">
      <contour>
        <pt x="445" y="615" on="1"/>
        <pt x="206" y="615" on="1"/>
        <pt x="206" y="705" on="1"/>
        <pt x="429" y="705" on="1"/>
        <pt x="545" y="638" on="1"/>
        <pt x="545" y="62" on="1"/>
        <pt x="429" y="-5" on="1"/>
        <pt x="206" y="-5" on="1"/>
        <pt x="90" y="62" on="1"/>
        <pt x="90" y="363" on="1"/>
        <pt x="206" y="430" on="1"/>
        <pt x="374" y="430" on="1"/>
        <pt x="445" y="389" on="1"/>
      </contour>
      <contour>
        <pt x="445" y="85" on="1"/>
        <pt x="445" y="340" on="1"/>
        <pt x="190" y="340" on="1"/>
        <pt x="190" y="85" on="1"/>
      </contour>
    </TTGlyph>
    <TTGlyph name="percent" xMin="80" yMin="-10" xMax="911" yMax="710">
      <contour>
        <pt x="425" y="424" on="1"/>
        <pt x="309" y="357" on="1"/>
        <pt x="196" y="357" on="1"/>
        <pt x="80" y="424" on="1"/>
        <pt x="80" y="643" on="1"/>
        <pt x="196" y="710" on="1"/>
        <pt x="309" y="710" on="1"/>
        <pt x="425" y="643" on="1"/>
      </contour>
      <contour>
        <pt x="171" y="629" on="1"/>
        <pt x="171" y="438" on="1"/>
        <pt x="334" y="438" on="1"/>
        <pt x="334" y="629" on="1"/>
      </contour>
      <contour>
        <pt x="707" y="710" on="1"/>
        <pt x="797" y="710" on="1"/>
        <pt x="284" y="-10" on="1"/>
        <pt x="194" y="-10" on="1"/>
      </contour>
      <contour>
        <pt x="566" y="276" on="1"/>
        <pt x="682" y="343" on="1"/>
        <pt x="795" y="343" on="1"/>
        <pt x="911" y="276" on="1"/>
        <pt x="911" y="57" on="1"/>
        <pt x="795" y="-10" on="1"/>
        <pt x="682" y="-10" on="1"/>
        <pt x="566" y="57" on="1"/>
      </contour>
      <contour>
        <pt x="820" y="71" on="1"/>
        <pt x="820" y="262" on="1"/>
        <pt x="657" y="262" on="1"/>
        <pt x="657" y="71" on="1"/>
      </contour>
    </TTGlyph>
    <TTGlyph name="period" xMin="100" yMin="0" xMax="250" yMax="150">
      <contour>
        <pt x="100" y="0" on="1"/>
        <pt x="100" y="150" on="1"/>
        <pt x="250" y="150" on="1"/>
        <pt x="250" y="0" on="1"/>
      </contour>
    </TTGlyph>
    <TTGlyph name="periodcentered" xMin="100" yMin="284" xMax="250" yMax="434">
      <contour>
        <pt x="100" y="284" on="1"/>
        <pt x="100" y="434" on="1"/>
        <pt x="250" y="434" on="1"/>
        <pt x="250" y="284" on="1"/>
      </contour>
    </TTGlyph>
    <TTGlyph name="perthousand" xMin="80" yMin="-10" xMax="1346" yMax="710">
      <contour>
        <pt x="707" y="710" on="1"/>
        <pt x="797" y="710" on="1"/>
        <pt x="284" y="-10" on="1"/>
        <pt x="194" y="-10" on="1"/>
      </contour>
      <contour>
        <pt x="425" y="424" on="1"/>
        <pt x="309" y="357" on="1"/>
        <pt x="196" y="357" on="1"/>
        <pt x="80" y="424" on="1"/>
        <pt x="80" y="643" on="1"/>
        <pt x="196" y="710" on="1"/>
        <pt x="309" y="710" on="1"/>
        <pt x="425" y="643" on="1"/>
      </contour>
      <contour>
        <pt x="171" y="629" on="1"/>
        <pt x="171" y="438" on="1"/>
        <pt x="334" y="438" on="1"/>
        <pt x="334" y="629" on="1"/>
      </contour>
      <contour>
        <pt x="566" y="276" on="1"/>
        <pt x="682" y="343" on="1"/>
        <pt x="795" y="343" on="1"/>
        <pt x="911" y="276" on="1"/>
        <pt x="911" y="57" on="1"/>
        <pt x="795" y="-10" on="1"/>
        <pt x="682" y="-10" on="1"/>
        <pt x="566" y="57" on="1"/>
      </contour>
      <contour>
        <pt x="820" y="71" on="1"/>
        <pt x="820" y="262" on="1"/>
        <pt x="657" y="262" on="1"/>
        <pt x="657" y="71" on="1"/>
      </contour>
      <contour>
        <pt x="1001" y="276" on="1"/>
        <pt x="1117" y="343" on="1"/>
        <pt x="1230" y="343" on="1"/>
        <pt x="1346" y="276" on="1"/>
        <pt x="1346" y="57" on="1"/>
        <pt x="1230" y="-10" on="1"/>
        <pt x="1117" y="-10" on="1"/>
        <pt x="1001" y="57" on="1"/>
      </contour>
      <contour>
        <pt x="1255" y="71" on="1"/>
        <pt x="1255" y="262" on="1"/>
        <pt x="1092" y="262" on="1"/>
        <pt x="1092" y="71" on="1"/>
      </contour>
    </TTGlyph>
    <TTGlyph name="plus" xMin="50" yMin="0" xMax="550" yMax="500">
      <contour>
        <pt x="50" y="297" on="1"/>
        <pt x="253" y="297" on="1"/>
        <pt x="253" y="500" on="1"/>
        <pt x="347" y="500" on="1"/>
        <pt x="347" y="297" on="1"/>
        <pt x="550" y="297" on="1"/>
        <pt x="550" y="203" on="1"/>
        <pt x="347" y="203" on="1"/>
        <pt x="347" y="0" on="1"/>
        <pt x="253" y="0" on="1"/>
        <pt x="253" y="203" on="1"/>
        <pt x="50" y="203" on="1"/>
      </contour>
    </TTGlyph>
    <TTGlyph name="plusminus" xMin="90" yMin="0" xMax="590" yMax="500">
      <contour>
        <pt x="90" y="367" on="1"/>
        <pt x="293" y="367" on="1"/>
        <pt x="293" y="500" on="1"/>
        <pt x="387" y="500" on="1"/>
        <pt x="387" y="367" on="1"/>
        <pt x="590" y="367" on="1"/>
        <pt x="590" y="273" on="1"/>
        <pt x="387" y="273" on="1"/>
        <pt x="387" y="140" on="1"/>
        <pt x="293" y="140" on="1"/>
        <pt x="293" y="273" on="1"/>
        <pt x="90" y="273" on="1"/>
      </contour>
      <contour>
        <pt x="590" y="94" on="1"/>
        <pt x="590" y="0" on="1"/>
        <pt x="90" y="0" on="1"/>
        <pt x="90" y="94" on="1"/>
      </contour>
    </TTGlyph>
    <TTGlyph name="q" xMin="80" yMin="-200" xMax="515" yMax="505">
      <contour>
        <pt x="347" y="-5" on="1"/>
        <pt x="196" y="-5" on="1"/>
        <pt x="80" y="62" on="1"/>
        <pt x="80" y="438" on="1"/>
        <pt x="196" y="505" on="1"/>
        <pt x="347" y="505" on="1"/>
        <pt x="418" y="464" on="1"/>
        <pt x="489" y="505" on="1"/>
        <pt x="515" y="505" on="1"/>
        <pt x="515" y="-200" on="1"/>
        <pt x="418" y="-200" on="1"/>
        <pt x="418" y="36" on="1"/>
      </contour>
      <contour>
        <pt x="418" y="82" on="1"/>
        <pt x="418" y="418" on="1"/>
        <pt x="177" y="418" on="1"/>
        <pt x="177" y="82" on="1"/>
      </contour>
    </TTGlyph>
    <TTGlyph name="question" xMin="90" yMin="0" xMax="490" yMax="730">
      <contour>
        <pt x="297" y="391" on="1"/>
        <pt x="288" y="268" on="1"/>
        <pt x="208" y="268" on="1"/>
        <pt x="198" y="414" on="1"/>
        <pt x="314" y="481" on="1"/>
        <pt x="390" y="481" on="1"/>
        <pt x="390" y="640" on="1"/>
        <pt x="190" y="640" on="1"/>
        <pt x="190" y="550" on="1"/>
        <pt x="90" y="550" on="1"/>
        <pt x="90" y="663" on="1"/>
        <pt x="206" y="730" on="1"/>
        <pt x="374" y="730" on="1"/>
        <pt x="490" y="663" on="1"/>
        <pt x="490" y="458" on="1"/>
        <pt x="374" y="391" on="1"/>
      </contour>
      <contour>
        <pt x="173" y="0" on="1"/>
        <pt x="173" y="150" on="1"/>
        <pt x="323" y="150" on="1"/>
        <pt x="323" y="0" on="1"/>
      </contour>
    </TTGlyph>
    <TTGlyph name="questiondown" xMin="90" yMin="-230" xMax="490" yMax="500">
      <contour>
        <pt x="283" y="109" on="1"/>
        <pt x="292" y="232" on="1"/>
        <pt x="372" y="232" on="1"/>
        <pt x="382" y="86" on="1"/>
        <pt x="266" y="19" on="1"/>
        <pt x="190" y="19" on="1"/>
        <pt x="190" y="-140" on="1"/>
        <pt x="390" y="-140" on="1"/>
        <pt x="390" y="-50" on="1"/>
        <pt x="490" y="-50" on="1"/>
        <pt x="490" y="-163" on="1"/>
        <pt x="374" y="-230" on="1"/>
        <pt x="206" y="-230" on="1"/>
        <pt x="90" y="-163" on="1"/>
        <pt x="90" y="42" on="1"/>
        <pt x="206" y="109" on="1"/>
      </contour>
      <contour>
        <pt x="407" y="500" on="1"/>
        <pt x="407" y="350" on="1"/>
        <pt x="257" y="350" on="1"/>
        <pt x="257" y="500" on="1"/>
      </contour>
    </TTGlyph>
    <TTGlyph name="quotedbl" xMin="70" yMin="438" xMax="360" yMax="730">
      <contour>
        <pt x="90" y="438" on="1"/>
        <pt x="70" y="730" on="1"/>
        <pt x="180" y="730" on="1"/>
        <pt x="160" y="438" on="1"/>
      </contour>
      <contour>
        <pt x="270" y="438" on="1"/>
        <pt x="250" y="730" on="1"/>
        <pt x="360" y="730" on="1"/>
        <pt x="340" y="438" on="1"/>
      </contour>
    </TTGlyph>
    <TTGlyph name="quotedblbase" xMin="100" yMin="-200" xMax="490" yMax="150">
      <contour>
        <pt x="100" y="-200" on="1"/>
        <pt x="100" y="150" on="1"/>
        <pt x="250" y="150" on="1"/>
        <pt x="250" y="108" on="1"/>
        <pt x="142" y="-200" on="1"/>
      </contour>
      <contour>
        <pt x="340" y="-200" on="1"/>
        <pt x="340" y="150" on="1"/>
        <pt x="490" y="150" on="1"/>
        <pt x="490" y="108" on="1"/>
        <pt x="382" y="-200" on="1"/>
      </contour>
    </TTGlyph>
    <TTGlyph name="quotedblleft" xMin="90" yMin="380" xMax="480" yMax="730">
      <contour>
        <pt x="480" y="730" on="1"/>
        <pt x="480" y="380" on="1"/>
        <pt x="330" y="380" on="1"/>
        <pt x="330" y="422" on="1"/>
        <pt x="438" y="730" on="1"/>
      </contour>
      <contour>
        <pt x="240" y="730" on="1"/>
        <pt x="240" y="380" on="1"/>
        <pt x="90" y="380" on="1"/>
        <pt x="90" y="422" on="1"/>
        <pt x="198" y="730" on="1"/>
      </contour>
    </TTGlyph>
    <TTGlyph name="quotedblright" xMin="90" yMin="380" xMax="480" yMax="730">
      <contour>
        <pt x="90" y="380" on="1"/>
        <pt x="90" y="730" on="1"/>
        <pt x="240" y="730" on="1"/>
        <pt x="240" y="688" on="1"/>
        <pt x="132" y="380" on="1"/>
      </contour>
      <contour>
        <pt x="330" y="380" on="1"/>
        <pt x="330" y="730" on="1"/>
        <pt x="480" y="730" on="1"/>
        <pt x="480" y="688" on="1"/>
        <pt x="372" y="380" on="1"/>
      </contour>
    </TTGlyph>
    <TTGlyph name="quoteleft" xMin="90" yMin="380" xMax="240" yMax="730">
      <contour>
        <pt x="240" y="730" on="1"/>
        <pt x="240" y="380" on="1"/>
        <pt x="90" y="380" on="1"/>
        <pt x="90" y="422" on="1"/>
        <pt x="198" y="730" on="1"/>
      </contour>
    </TTGlyph>
    <TTGlyph name="quoteright" xMin="90" yMin="380" xMax="240" yMax="730">
      <contour>
        <pt x="90" y="380" on="1"/>
        <pt x="90" y="730" on="1"/>
        <pt x="240" y="730" on="1"/>
        <pt x="240" y="688" on="1"/>
        <pt x="132" y="380" on="1"/>
      </contour>
    </TTGlyph>
    <TTGlyph name="quotesinglbase" xMin="100" yMin="-200" xMax="250" yMax="150">
      <contour>
        <pt x="100" y="-200" on="1"/>
        <pt x="100" y="150" on="1"/>
        <pt x="250" y="150" on="1"/>
        <pt x="250" y="108" on="1"/>
        <pt x="142" y="-200" on="1"/>
      </contour>
    </TTGlyph>
    <TTGlyph name="quotesingle" xMin="70" yMin="438" xMax="180" yMax="730">
      <contour>
        <pt x="90" y="438" on="1"/>
        <pt x="70" y="730" on="1"/>
        <pt x="180" y="730" on="1"/>
        <pt x="160" y="438" on="1"/>
      </contour>
    </TTGlyph>
    <TTGlyph name="r" xMin="80" yMin="0" xMax="359" yMax="500">
      <contour>
        <pt x="359" y="413" on="1"/>
        <pt x="177" y="413" on="1"/>
        <pt x="177" y="0" on="1"/>
        <pt x="80" y="0" on="1"/>
        <pt x="80" y="500" on="1"/>
        <pt x="153" y="500" on="1"/>
        <pt x="177" y="459" on="1"/>
        <pt x="248" y="500" on="1"/>
        <pt x="359" y="500" on="1"/>
      </contour>
    </TTGlyph>
    <TTGlyph name="rcaron" xMin="39" yMin="0" xMax="359" yMax="728">
      <contour>
        <pt x="359" y="413" on="1"/>
        <pt x="177" y="413" on="1"/>
        <pt x="177" y="0" on="1"/>
        <pt x="80" y="0" on="1"/>
        <pt x="80" y="500" on="1"/>
        <pt x="153" y="500" on="1"/>
        <pt x="177" y="459" on="1"/>
        <pt x="248" y="500" on="1"/>
        <pt x="359" y="500" on="1"/>
      </contour>
      <contour>
        <pt x="249" y="590" on="1"/>
        <pt x="139" y="590" on="1"/>
        <pt x="39" y="728" on="1"/>
        <pt x="114" y="728" on="1"/>
        <pt x="194" y="648" on="1"/>
        <pt x="275" y="728" on="1"/>
        <pt x="350" y="728" on="1"/>
      </contour>
    </TTGlyph>
    <TTGlyph name="rcommaaccent" xMin="80" yMin="-335" xMax="359" yMax="500">
      <contour>
        <pt x="359" y="413" on="1"/>
        <pt x="177" y="413" on="1"/>
        <pt x="177" y="0" on="1"/>
        <pt x="80" y="0" on="1"/>
        <pt x="80" y="500" on="1"/>
        <pt x="153" y="500" on="1"/>
        <pt x="177" y="459" on="1"/>
        <pt x="248" y="500" on="1"/>
        <pt x="359" y="500" on="1"/>
      </contour>
      <contour>
        <pt x="149" y="-335" on="1"/>
        <pt x="149" y="-55" on="1"/>
        <pt x="269" y="-55" on="1"/>
        <pt x="269" y="-89" on="1"/>
        <pt x="183" y="-335" on="1"/>
      </contour>
    </TTGlyph>
    <TTGlyph name="registered" xMin="90" yMin="-5" xMax="750" yMax="705">
      <contour>
        <pt x="750" y="62" on="1"/>
        <pt x="634" y="-5" on="1"/>
        <pt x="206" y="-5" on="1"/>
        <pt x="90" y="62" on="1"/>
        <pt x="90" y="638" on="1"/>
        <pt x="206" y="705" on="1"/>
        <pt x="634" y="705" on="1"/>
        <pt x="750" y="638" on="1"/>
      </contour>
      <contour>
        <pt x="170" y="635" on="1"/>
        <pt x="170" y="65" on="1"/>
        <pt x="670" y="65" on="1"/>
        <pt x="670" y="635" on="1"/>
      </contour>
      <contour>
        <pt x="437" y="303" on="1"/>
        <pt x="331" y="303" on="1"/>
        <pt x="331" y="138" on="1"/>
        <pt x="262" y="138" on="1"/>
        <pt x="262" y="562" on="1"/>
        <pt x="503" y="562" on="1"/>
        <pt x="577" y="520" on="1"/>
        <pt x="577" y="346" on="1"/>
        <pt x="509" y="306" on="1"/>
        <pt x="608" y="138" on="1"/>
        <pt x="531" y="138" on="1"/>
      </contour>
      <contour>
        <pt x="331" y="499" on="1"/>
        <pt x="331" y="366" on="1"/>
        <pt x="508" y="366" on="1"/>
        <pt x="508" y="499" on="1"/>
      </contour>
    </TTGlyph>
    <TTGlyph name="ring" xMin="122" yMin="570" xMax="407" yMax="833">
      <contour>
        <pt x="407" y="617" on="1"/>
        <pt x="325" y="570" on="1"/>
        <pt x="204" y="570" on="1"/>
        <pt x="122" y="617" on="1"/>
        <pt x="122" y="786" on="1"/>
        <pt x="204" y="833" on="1"/>
        <pt x="325" y="833" on="1"/>
        <pt x="407" y="786" on="1"/>
      </contour>
      <contour>
        <pt x="197" y="768" on="1"/>
        <pt x="197" y="635" on="1"/>
        <pt x="332" y="635" on="1"/>
        <pt x="332" y="768" on="1"/>
      </contour>
    </TTGlyph>
    <TTGlyph name="ring.cap" xMin="122" yMin="770" xMax="407" yMax="1033">
      <contour>
        <pt x="407" y="817" on="1"/>
        <pt x="325" y="770" on="1"/>
        <pt x="204" y="770" on="1"/>
        <pt x="122" y="817" on="1"/>
        <pt x="122" y="986" on="1"/>
        <pt x="204" y="1033" on="1"/>
        <pt x="325" y="1033" on="1"/>
        <pt x="407" y="986" on="1"/>
      </contour>
      <contour>
        <pt x="197" y="968" on="1"/>
        <pt x="197" y="835" on="1"/>
        <pt x="332" y="835" on="1"/>
        <pt x="332" y="968" on="1"/>
      </contour>
    </TTGlyph>
    <TTGlyph name="s" xMin="80" yMin="0" xMax="456" yMax="500">
      <contour>
        <pt x="456" y="230" on="1"/>
        <pt x="456" y="67" on="1"/>
        <pt x="340" y="0" on="1"/>
        <pt x="80" y="0" on="1"/>
        <pt x="80" y="87" on="1"/>
        <pt x="359" y="87" on="1"/>
        <pt x="359" y="210" on="1"/>
        <pt x="196" y="210" on="1"/>
        <pt x="80" y="277" on="1"/>
        <pt x="80" y="433" on="1"/>
        <pt x="196" y="500" on="1"/>
        <pt x="446" y="500" on="1"/>
        <pt x="446" y="413" on="1"/>
        <pt x="177" y="413" on="1"/>
        <pt x="177" y="297" on="1"/>
        <pt x="340" y="297" on="1"/>
      </contour>
    </TTGlyph>
    <TTGlyph name="scaron" xMin="80" yMin="0" xMax="456" yMax="728">
      <contour>
        <pt x="456" y="230" on="1"/>
        <pt x="456" y="67" on="1"/>
        <pt x="340" y="0" on="1"/>
        <pt x="80" y="0" on="1"/>
        <pt x="80" y="87" on="1"/>
        <pt x="359" y="87" on="1"/>
        <pt x="359" y="210" on="1"/>
        <pt x="196" y="210" on="1"/>
        <pt x="80" y="277" on="1"/>
        <pt x="80" y="433" on="1"/>
        <pt x="196" y="500" on="1"/>
        <pt x="446" y="500" on="1"/>
        <pt x="446" y="413" on="1"/>
        <pt x="177" y="413" on="1"/>
        <pt x="177" y="297" on="1"/>
        <pt x="340" y="297" on="1"/>
      </contour>
      <contour>
        <pt x="323" y="590" on="1"/>
        <pt x="213" y="590" on="1"/>
        <pt x="113" y="728" on="1"/>
        <pt x="188" y="728" on="1"/>
        <pt x="268" y="648" on="1"/>
        <pt x="349" y="728" on="1"/>
        <pt x="424" y="728" on="1"/>
      </contour>
    </TTGlyph>
    <TTGlyph name="section" xMin="90" yMin="-200" xMax="563" yMax="705">
      <contour>
        <pt x="445" y="163" on="1"/>
        <pt x="445" y="342" on="1"/>
        <pt x="218" y="342" on="1"/>
        <pt x="218" y="163" on="1"/>
      </contour>
      <contour>
        <pt x="118" y="336" on="1"/>
        <pt x="205" y="386" on="1"/>
        <pt x="205" y="388" on="1"/>
        <pt x="118" y="438" on="1"/>
        <pt x="118" y="638" on="1"/>
        <pt x="234" y="705" on="1"/>
        <pt x="447" y="705" on="1"/>
        <pt x="563" y="638" on="1"/>
        <pt x="563" y="535" on="1"/>
        <pt x="463" y="535" on="1"/>
        <pt x="463" y="615" on="1"/>
        <pt x="218" y="615" on="1"/>
        <pt x="218" y="432" on="1"/>
        <pt x="429" y="432" on="1"/>
        <pt x="545" y="365" on="1"/>
        <pt x="545" y="169" on="1"/>
        <pt x="458" y="119" on="1"/>
        <pt x="458" y="117" on="1"/>
        <pt x="545" y="67" on="1"/>
        <pt x="545" y="-133" on="1"/>
        <pt x="429" y="-200" on="1"/>
        <pt x="206" y="-200" on="1"/>
        <pt x="90" y="-133" on="1"/>
        <pt x="90" y="-30" on="1"/>
        <pt x="190" y="-30" on="1"/>
        <pt x="190" y="-110" on="1"/>
        <pt x="445" y="-110" on="1"/>
        <pt x="445" y="73" on="1"/>
        <pt x="234" y="73" on="1"/>
        <pt x="118" y="140" on="1"/>
      </contour>
    </TTGlyph>
    <TTGlyph name="semicolon" xMin="100" yMin="-200" xMax="250" yMax="500">
      <contour>
        <pt x="100" y="350" on="1"/>
        <pt x="100" y="500" on="1"/>
        <pt x="250" y="500" on="1"/>
        <pt x="250" y="350" on="1"/>
      </contour>
      <contour>
        <pt x="100" y="-200" on="1"/>
        <pt x="100" y="150" on="1"/>
        <pt x="250" y="150" on="1"/>
        <pt x="250" y="108" on="1"/>
        <pt x="142" y="-200" on="1"/>
      </contour>
    </TTGlyph>
    <TTGlyph name="seven" xMin="60" yMin="0" xMax="565" yMax="700">
      <contour>
        <pt x="273" y="0" on="1"/>
        <pt x="167" y="0" on="1"/>
        <pt x="446" y="608" on="1"/>
        <pt x="446" y="610" on="1"/>
        <pt x="160" y="610" on="1"/>
        <pt x="160" y="520" on="1"/>
        <pt x="60" y="520" on="1"/>
        <pt x="60" y="700" on="1"/>
        <pt x="565" y="700" on="1"/>
        <pt x="565" y="640" on="1"/>
      </contour>
    </TTGlyph>
    <TTGlyph name="six" xMin="90" yMin="-5" xMax="545" yMax="705">
      <contour>
        <pt x="190" y="615" on="1"/>
        <pt x="190" y="369" on="1"/>
        <pt x="261" y="410" on="1"/>
        <pt x="429" y="410" on="1"/>
        <pt x="545" y="343" on="1"/>
        <pt x="545" y="62" on="1"/>
        <pt x="429" y="-5" on="1"/>
        <pt x="206" y="-5" on="1"/>
        <pt x="90" y="62" on="1"/>
        <pt x="90" y="638" on="1"/>
        <pt x="206" y="705" on="1"/>
        <pt x="429" y="705" on="1"/>
        <pt x="545" y="638" on="1"/>
        <pt x="545" y="525" on="1"/>
        <pt x="445" y="525" on="1"/>
        <pt x="445" y="615" on="1"/>
      </contour>
      <contour>
        <pt x="190" y="320" on="1"/>
        <pt x="190" y="85" on="1"/>
        <pt x="445" y="85" on="1"/>
        <pt x="445" y="320" on="1"/>
      </contour>
    </TTGlyph>
    <TTGlyph name="slash" xMin="30" yMin="-20" xMax="356" yMax="720">
      <contour>
        <pt x="30" y="-20" on="1"/>
        <pt x="266" y="720" on="1"/>
        <pt x="356" y="720" on="1"/>
        <pt x="120" y="-20" on="1"/>
      </contour>
    </TTGlyph>
    <TTGlyph name="st" xMin="80" yMin="0" xMax="849" yMax="640">
      <contour>
        <pt x="177" y="413" on="1"/>
        <pt x="177" y="297" on="1"/>
        <pt x="340" y="297" on="1"/>
        <pt x="456" y="230" on="1"/>
        <pt x="456" y="67" on="1"/>
        <pt x="340" y="0" on="1"/>
        <pt x="80" y="0" on="1"/>
        <pt x="80" y="87" on="1"/>
        <pt x="359" y="87" on="1"/>
        <pt x="359" y="210" on="1"/>
        <pt x="196" y="210" on="1"/>
        <pt x="80" y="277" on="1"/>
        <pt x="80" y="433" on="1"/>
        <pt x="196" y="500" on="1"/>
        <pt x="632" y="500" on="1"/>
        <pt x="632" y="584" on="1"/>
        <pt x="729" y="640" on="1"/>
        <pt x="729" y="500" on="1"/>
        <pt x="849" y="500" on="1"/>
        <pt x="849" y="413" on="1"/>
        <pt x="729" y="413" on="1"/>
        <pt x="729" y="87" on="1"/>
        <pt x="849" y="87" on="1"/>
        <pt x="849" y="0" on="1"/>
        <pt x="748" y="0" on="1"/>
        <pt x="632" y="67" on="1"/>
        <pt x="632" y="413" on="1"/>
      </contour>
    </TTGlyph>
    <TTGlyph name="sterling" xMin="40" yMin="0" xMax="592" yMax="705">
      <contour>
        <pt x="356" y="365" on="1"/>
        <pt x="356" y="291" on="1"/>
        <pt x="217" y="291" on="1"/>
        <pt x="217" y="90" on="1"/>
        <pt x="492" y="90" on="1"/>
        <pt x="492" y="180" on="1"/>
        <pt x="592" y="180" on="1"/>
        <pt x="592" y="67" on="1"/>
        <pt x="476" y="0" on="1"/>
        <pt x="117" y="0" on="1"/>
        <pt x="117" y="291" on="1"/>
        <pt x="40" y="291" on="1"/>
        <pt x="40" y="365" on="1"/>
        <pt x="117" y="365" on="1"/>
        <pt x="117" y="638" on="1"/>
        <pt x="233" y="705" on="1"/>
        <pt x="426" y="705" on="1"/>
        <pt x="542" y="638" on="1"/>
        <pt x="542" y="525" on="1"/>
        <pt x="442" y="525" on="1"/>
        <pt x="442" y="615" on="1"/>
        <pt x="217" y="615" on="1"/>
        <pt x="217" y="365" on="1"/>
      </contour>
    </TTGlyph>
    <TTGlyph name="t" xMin="40" yMin="0" xMax="349" yMax="640">
      <contour>
        <pt x="40" y="413" on="1"/>
        <pt x="40" y="500" on="1"/>
        <pt x="132" y="500" on="1"/>
        <pt x="132" y="584" on="1"/>
        <pt x="229" y="640" on="1"/>
        <pt x="229" y="500" on="1"/>
        <pt x="349" y="500" on="1"/>
        <pt x="349" y="413" on="1"/>
        <pt x="229" y="413" on="1"/>
        <pt x="229" y="87" on="1"/>
        <pt x="349" y="87" on="1"/>
        <pt x="349" y="0" on="1"/>
        <pt x="248" y="0" on="1"/>
        <pt x="132" y="67" on="1"/>
        <pt x="132" y="413" on="1"/>
      </contour>
    </TTGlyph>
    <TTGlyph name="thorn" xMin="80" yMin="-200" xMax="515" yMax="730">
      <contour>
        <pt x="80" y="730" on="1"/>
        <pt x="177" y="730" on="1"/>
        <pt x="177" y="464" on="1"/>
        <pt x="248" y="505" on="1"/>
        <pt x="399" y="505" on="1"/>
        <pt x="515" y="438" on="1"/>
        <pt x="515" y="62" on="1"/>
        <pt x="399" y="-5" on="1"/>
        <pt x="248" y="-5" on="1"/>
        <pt x="177" y="36" on="1"/>
        <pt x="177" y="-200" on="1"/>
        <pt x="80" y="-200" on="1"/>
      </contour>
      <contour>
        <pt x="177" y="418" on="1"/>
        <pt x="177" y="82" on="1"/>
        <pt x="418" y="82" on="1"/>
        <pt x="418" y="418" on="1"/>
      </contour>
    </TTGlyph>
    <TTGlyph name="three" xMin="90" yMin="-5" xMax="561" yMax="705">
      <contour>
        <pt x="445" y="-5" on="1"/>
        <pt x="206" y="-5" on="1"/>
        <pt x="90" y="62" on="1"/>
        <pt x="90" y="175" on="1"/>
        <pt x="190" y="175" on="1"/>
        <pt x="190" y="85" on="1"/>
        <pt x="461" y="85" on="1"/>
        <pt x="461" y="317" on="1"/>
        <pt x="256" y="317" on="1"/>
        <pt x="256" y="407" on="1"/>
        <pt x="461" y="407" on="1"/>
        <pt x="461" y="615" on="1"/>
        <pt x="190" y="615" on="1"/>
        <pt x="190" y="525" on="1"/>
        <pt x="90" y="525" on="1"/>
        <pt x="90" y="638" on="1"/>
        <pt x="206" y="705" on="1"/>
        <pt x="445" y="705" on="1"/>
        <pt x="561" y="638" on="1"/>
        <pt x="561" y="413" on="1"/>
        <pt x="474" y="363" on="1"/>
        <pt x="474" y="361" on="1"/>
        <pt x="561" y="311" on="1"/>
        <pt x="561" y="62" on="1"/>
      </contour>
    </TTGlyph>
    <TTGlyph name="tilde" xMin="100" yMin="585" xMax="406" yMax="734">
      <contour>
        <pt x="170" y="667" on="1"/>
        <pt x="168" y="667" on="1"/>
        <pt x="168" y="585" on="1"/>
        <pt x="100" y="585" on="1"/>
        <pt x="100" y="679" on="1"/>
        <pt x="194" y="734" on="1"/>
        <pt x="336" y="652" on="1"/>
        <pt x="338" y="652" on="1"/>
        <pt x="338" y="734" on="1"/>
        <pt x="406" y="734" on="1"/>
        <pt x="406" y="640" on="1"/>
        <pt x="312" y="585" on="1"/>
      </contour>
    </TTGlyph>
    <TTGlyph name="tilde.cap" xMin="100" yMin="785" xMax="406" yMax="934">
      <contour>
        <pt x="170" y="867" on="1"/>
        <pt x="168" y="867" on="1"/>
        <pt x="168" y="785" on="1"/>
        <pt x="100" y="785" on="1"/>
        <pt x="100" y="879" on="1"/>
        <pt x="194" y="934" on="1"/>
        <pt x="336" y="852" on="1"/>
        <pt x="338" y="852" on="1"/>
        <pt x="338" y="934" on="1"/>
        <pt x="406" y="934" on="1"/>
        <pt x="406" y="840" on="1"/>
        <pt x="312" y="785" on="1"/>
      </contour>
    </TTGlyph>
    <TTGlyph name="trademark" xMin="70" yMin="340" xMax="755" yMax="700">
      <contour>
        <pt x="689" y="340" on="1"/>
        <pt x="689" y="583" on="1"/>
        <pt x="687" y="583" on="1"/>
        <pt x="603" y="340" on="1"/>
        <pt x="542" y="340" on="1"/>
        <pt x="460" y="583" on="1"/>
        <pt x="458" y="583" on="1"/>
        <pt x="458" y="340" on="1"/>
        <pt x="392" y="340" on="1"/>
        <pt x="392" y="700" on="1"/>
        <pt x="477" y="700" on="1"/>
        <pt x="573" y="435" on="1"/>
        <pt x="575" y="435" on="1"/>
        <pt x="670" y="700" on="1"/>
        <pt x="755" y="700" on="1"/>
        <pt x="755" y="340" on="1"/>
      </contour>
      <contour>
        <pt x="235" y="637" on="1"/>
        <pt x="235" y="340" on="1"/>
        <pt x="167" y="340" on="1"/>
        <pt x="167" y="637" on="1"/>
        <pt x="70" y="637" on="1"/>
        <pt x="70" y="700" on="1"/>
        <pt x="331" y="700" on="1"/>
        <pt x="331" y="637" on="1"/>
      </contour>
    </TTGlyph>
    <TTGlyph name="two" xMin="90" yMin="0" xMax="540" yMax="700">
      <contour>
        <pt x="190" y="90" on="1"/>
        <pt x="540" y="90" on="1"/>
        <pt x="540" y="0" on="1"/>
        <pt x="90" y="0" on="1"/>
        <pt x="90" y="314" on="1"/>
        <pt x="206" y="381" on="1"/>
        <pt x="440" y="381" on="1"/>
        <pt x="440" y="610" on="1"/>
        <pt x="190" y="610" on="1"/>
        <pt x="190" y="520" on="1"/>
        <pt x="90" y="520" on="1"/>
        <pt x="90" y="633" on="1"/>
        <pt x="206" y="700" on="1"/>
        <pt x="424" y="700" on="1"/>
        <pt x="540" y="633" on="1"/>
        <pt x="540" y="358" on="1"/>
        <pt x="424" y="291" on="1"/>
        <pt x="190" y="291" on="1"/>
      </contour>
    </TTGlyph>
    <TTGlyph name="u" xMin="80" yMin="-5" xMax="505" yMax="500">
      <contour>
        <pt x="80" y="62" on="1"/>
        <pt x="80" y="500" on="1"/>
        <pt x="177" y="500" on="1"/>
        <pt x="177" y="82" on="1"/>
        <pt x="408" y="82" on="1"/>
        <pt x="408" y="500" on="1"/>
        <pt x="505" y="500" on="1"/>
        <pt x="505" y="-5" on="1"/>
        <pt x="432" y="-5" on="1"/>
        <pt x="408" y="36" on="1"/>
        <pt x="337" y="-5" on="1"/>
        <pt x="196" y="-5" on="1"/>
      </contour>
    </TTGlyph>
    <TTGlyph name="uacute" xMin="80" yMin="-5" xMax="505" yMax="718">
      <contour>
        <pt x="80" y="62" on="1"/>
        <pt x="80" y="500" on="1"/>
        <pt x="177" y="500" on="1"/>
        <pt x="177" y="82" on="1"/>
        <pt x="408" y="82" on="1"/>
        <pt x="408" y="500" on="1"/>
        <pt x="505" y="500" on="1"/>
        <pt x="505" y="-5" on="1"/>
        <pt x="432" y="-5" on="1"/>
        <pt x="408" y="36" on="1"/>
        <pt x="337" y="-5" on="1"/>
        <pt x="196" y="-5" on="1"/>
      </contour>
      <contour>
        <pt x="235" y="590" on="1"/>
        <pt x="329" y="718" on="1"/>
        <pt x="459" y="718" on="1"/>
        <pt x="315" y="590" on="1"/>
      </contour>
    </TTGlyph>
    <TTGlyph name="ucircumflex" xMin="80" yMin="-5" xMax="505" yMax="728">
      <contour>
        <pt x="80" y="62" on="1"/>
        <pt x="80" y="500" on="1"/>
        <pt x="177" y="500" on="1"/>
        <pt x="177" y="82" on="1"/>
        <pt x="408" y="82" on="1"/>
        <pt x="408" y="500" on="1"/>
        <pt x="505" y="500" on="1"/>
        <pt x="505" y="-5" on="1"/>
        <pt x="432" y="-5" on="1"/>
        <pt x="408" y="36" on="1"/>
        <pt x="337" y="-5" on="1"/>
        <pt x="196" y="-5" on="1"/>
      </contour>
      <contour>
        <pt x="238" y="728" on="1"/>
        <pt x="348" y="728" on="1"/>
        <pt x="449" y="590" on="1"/>
        <pt x="374" y="590" on="1"/>
        <pt x="293" y="670" on="1"/>
        <pt x="213" y="590" on="1"/>
        <pt x="138" y="590" on="1"/>
      </contour>
    </TTGlyph>
    <TTGlyph name="udieresis" xMin="80" yMin="-5" xMax="505" yMax="700">
      <contour>
        <pt x="80" y="62" on="1"/>
        <pt x="80" y="500" on="1"/>
        <pt x="177" y="500" on="1"/>
        <pt x="177" y="82" on="1"/>
        <pt x="408" y="82" on="1"/>
        <pt x="408" y="500" on="1"/>
        <pt x="505" y="500" on="1"/>
        <pt x="505" y="-5" on="1"/>
        <pt x="432" y="-5" on="1"/>
        <pt x="408" y="36" on="1"/>
        <pt x="337" y="-5" on="1"/>
        <pt x="196" y="-5" on="1"/>
      </contour>
      <contour>
        <pt x="130" y="595" on="1"/>
        <pt x="130" y="700" on="1"/>
        <pt x="235" y="700" on="1"/>
        <pt x="235" y="595" on="1"/>
      </contour>
      <contour>
        <pt x="349" y="595" on="1"/>
        <pt x="349" y="700" on="1"/>
        <pt x="454" y="700" on="1"/>
        <pt x="454" y="595" on="1"/>
      </contour>
    </TTGlyph>
    <TTGlyph name="ugrave" xMin="80" yMin="-5" xMax="505" yMax="718">
      <contour>
        <pt x="80" y="62" on="1"/>
        <pt x="80" y="500" on="1"/>
        <pt x="177" y="500" on="1"/>
        <pt x="177" y="82" on="1"/>
        <pt x="408" y="82" on="1"/>
        <pt x="408" y="500" on="1"/>
        <pt x="505" y="500" on="1"/>
        <pt x="505" y="-5" on="1"/>
        <pt x="432" y="-5" on="1"/>
        <pt x="408" y="36" on="1"/>
        <pt x="337" y="-5" on="1"/>
        <pt x="196" y="-5" on="1"/>
      </contour>
      <contour>
        <pt x="275" y="718" on="1"/>
        <pt x="369" y="590" on="1"/>
        <pt x="289" y="590" on="1"/>
        <pt x="145" y="718" on="1"/>
      </contour>
    </TTGlyph>
    <TTGlyph name="underscore" xMin="-20" yMin="-200" xMax="632" yMax="-116">
      <contour>
        <pt x="632" y="-116" on="1"/>
        <pt x="632" y="-200" on="1"/>
        <pt x="-20" y="-200" on="1"/>
        <pt x="-20" y="-116" on="1"/>
      </contour>
    </TTGlyph>
    <TTGlyph name="v" xMin="20" yMin="0" xMax="507" yMax="500">
      <contour>
        <pt x="115" y="500" on="1"/>
        <pt x="262" y="92" on="1"/>
        <pt x="264" y="92" on="1"/>
        <pt x="412" y="500" on="1"/>
        <pt x="507" y="500" on="1"/>
        <pt x="322" y="0" on="1"/>
        <pt x="205" y="0" on="1"/>
        <pt x="20" y="500" on="1"/>
      </contour>
    </TTGlyph>
    <TTGlyph name="w" xMin="30" yMin="0" xMax="727" yMax="500">
      <contour>
        <pt x="487" y="0" on="1"/>
        <pt x="379" y="382" on="1"/>
        <pt x="377" y="382" on="1"/>
        <pt x="270" y="0" on="1"/>
        <pt x="155" y="0" on="1"/>
        <pt x="30" y="500" on="1"/>
        <pt x="120" y="500" on="1"/>
        <pt x="215" y="109" on="1"/>
        <pt x="217" y="109" on="1"/>
        <pt x="327" y="500" on="1"/>
        <pt x="430" y="500" on="1"/>
        <pt x="540" y="109" on="1"/>
        <pt x="542" y="109" on="1"/>
        <pt x="637" y="500" on="1"/>
        <pt x="727" y="500" on="1"/>
        <pt x="602" y="0" on="1"/>
      </contour>
    </TTGlyph>
    <TTGlyph name="x" xMin="20" yMin="0" xMax="480" yMax="500">
      <contour>
        <pt x="20" y="0" on="1"/>
        <pt x="199" y="255" on="1"/>
        <pt x="26" y="500" on="1"/>
        <pt x="134" y="500" on="1"/>
        <pt x="250" y="328" on="1"/>
        <pt x="366" y="500" on="1"/>
        <pt x="474" y="500" on="1"/>
        <pt x="300" y="255" on="1"/>
        <pt x="480" y="0" on="1"/>
        <pt x="375" y="0" on="1"/>
        <pt x="250" y="183" on="1"/>
        <pt x="125" y="0" on="1"/>
      </contour>
    </TTGlyph>
    <TTGlyph name="y" xMin="20" yMin="-200" xMax="499" yMax="500">
      <contour>
        <pt x="126" y="-200" on="1"/>
        <pt x="213" y="23" on="1"/>
        <pt x="20" y="500" on="1"/>
        <pt x="117" y="500" on="1"/>
        <pt x="259" y="144" on="1"/>
        <pt x="261" y="144" on="1"/>
        <pt x="402" y="500" on="1"/>
        <pt x="499" y="500" on="1"/>
        <pt x="221" y="-200" on="1"/>
      </contour>
    </TTGlyph>
    <TTGlyph name="yacute" xMin="20" yMin="-200" xMax="499" yMax="718">
      <contour>
        <pt x="126" y="-200" on="1"/>
        <pt x="213" y="23" on="1"/>
        <pt x="20" y="500" on="1"/>
        <pt x="117" y="500" on="1"/>
        <pt x="259" y="144" on="1"/>
        <pt x="261" y="144" on="1"/>
        <pt x="402" y="500" on="1"/>
        <pt x="499" y="500" on="1"/>
        <pt x="221" y="-200" on="1"/>
      </contour>
      <contour>
        <pt x="195" y="590" on="1"/>
        <pt x="289" y="718" on="1"/>
        <pt x="419" y="718" on="1"/>
        <pt x="275" y="590" on="1"/>
      </contour>
    </TTGlyph>
    <TTGlyph name="ydieresis" xMin="20" yMin="-200" xMax="499" yMax="700">
      <contour>
        <pt x="126" y="-200" on="1"/>
        <pt x="213" y="23" on="1"/>
        <pt x="20" y="500" on="1"/>
        <pt x="117" y="500" on="1"/>
        <pt x="259" y="144" on="1"/>
        <pt x="261" y="144" on="1"/>
        <pt x="402" y="500" on="1"/>
        <pt x="499" y="500" on="1"/>
        <pt x="221" y="-200" on="1"/>
      </contour>
      <contour>
        <pt x="98" y="595" on="1"/>
        <pt x="98" y="700" on="1"/>
        <pt x="203" y="700" on="1"/>
        <pt x="203" y="595" on="1"/>
      </contour>
      <contour>
        <pt x="317" y="595" on="1"/>
        <pt x="317" y="700" on="1"/>
        <pt x="422" y="700" on="1"/>
        <pt x="422" y="595" on="1"/>
      </contour>
    </TTGlyph>
    <TTGlyph name="yen" xMin="40" yMin="0" xMax="611" yMax="700">
      <contour>
        <pt x="77" y="303" on="1"/>
        <pt x="77" y="377" on="1"/>
        <pt x="234" y="377" on="1"/>
        <pt x="40" y="700" on="1"/>
        <pt x="152" y="700" on="1"/>
        <pt x="324" y="402" on="1"/>
        <pt x="326" y="402" on="1"/>
        <pt x="499" y="700" on="1"/>
        <pt x="611" y="700" on="1"/>
        <pt x="416" y="377" on="1"/>
        <pt x="573" y="377" on="1"/>
        <pt x="573" y="303" on="1"/>
        <pt x="375" y="303" on="1"/>
        <pt x="375" y="222" on="1"/>
        <pt x="573" y="222" on="1"/>
        <pt x="573" y="148" on="1"/>
        <pt x="375" y="148" on="1"/>
        <pt x="375" y="0" on="1"/>
        <pt x="275" y="0" on="1"/>
        <pt x="275" y="148" on="1"/>
        <pt x="77" y="148" on="1"/>
        <pt x="77" y="222" on="1"/>
        <pt x="275" y="222" on="1"/>
        <pt x="275" y="303" on="1"/>
      </contour>
    </TTGlyph>
    <TTGlyph name="z" xMin="40" yMin="0" xMax="416" yMax="500">
      <contour>
        <pt x="40" y="66" on="1"/>
        <pt x="292" y="411" on="1"/>
        <pt x="292" y="413" on="1"/>
        <pt x="50" y="413" on="1"/>
        <pt x="50" y="500" on="1"/>
        <pt x="416" y="500" on="1"/>
        <pt x="416" y="434" on="1"/>
        <pt x="164" y="89" on="1"/>
        <pt x="164" y="87" on="1"/>
        <pt x="416" y="87" on="1"/>
        <pt x="416" y="0" on="1"/>
        <pt x="40" y="0" on="1"/>
      </contour>
    </TTGlyph>
    <TTGlyph name="zcaron" xMin="40" yMin="0" xMax="416" yMax="728">
      <contour>
        <pt x="40" y="66" on="1"/>
        <pt x="292" y="411" on="1"/>
        <pt x="292" y="413" on="1"/>
        <pt x="50" y="413" on="1"/>
        <pt x="50" y="500" on="1"/>
        <pt x="416" y="500" on="1"/>
        <pt x="416" y="434" on="1"/>
        <pt x="164" y="89" on="1"/>
        <pt x="164" y="87" on="1"/>
        <pt x="416" y="87" on="1"/>
        <pt x="416" y="0" on="1"/>
        <pt x="40" y="0" on="1"/>
      </contour>
      <contour>
        <pt x="280" y="590" on="1"/>
        <pt x="170" y="590" on="1"/>
        <pt x="70" y="728" on="1"/>
        <pt x="145" y="728" on="1"/>
        <pt x="225" y="648" on="1"/>
        <pt x="306" y="728" on="1"/>
        <pt x="381" y="728" on="1"/>
      </contour>
    </TTGlyph>
    <TTGlyph name="zero" xMin="90" yMin="-5" xMax="575" yMax="705">
      <contour>
        <pt x="575" y="62" on="1"/>
        <pt x="459" y="-5" on="1"/>
        <pt x="206" y="-5" on="1"/>
        <pt x="90" y="62" on="1"/>
        <pt x="90" y="638" on="1"/>
        <pt x="206" y="705" on="1"/>
        <pt x="459" y="705" on="1"/>
        <pt x="575" y="638" on="1"/>
      </contour>
      <contour>
        <pt x="190" y="615" on="1"/>
        <pt x="190" y="85" on="1"/>
        <pt x="475" y="85" on="1"/>
        <pt x="475" y="615" on="1"/>
      </contour>
    </TTGlyph>
</ttFont>
